%TF.GenerationSoftware,KiCad,Pcbnew,9.0.5*%
%TF.CreationDate,2026-03-18T16:26:27+01:00*%
%TF.ProjectId,Projet_Tschema,50726f6a-6574-45f5-9473-6368656d612e,rev?*%
%TF.SameCoordinates,Original*%
%TF.FileFunction,Copper,L1,Top*%
%TF.FilePolarity,Positive*%
%FSLAX46Y46*%
G04 Gerber Fmt 4.6, Leading zero omitted, Abs format (unit mm)*
G04 Created by KiCad (PCBNEW 9.0.5) date 2026-03-18 16:26:27*
%MOMM*%
%LPD*%
G01*
G04 APERTURE LIST*
G04 Aperture macros list*
%AMRoundRect*
0 Rectangle with rounded corners*
0 $1 Rounding radius*
0 $2 $3 $4 $5 $6 $7 $8 $9 X,Y pos of 4 corners*
0 Add a 4 corners polygon primitive as box body*
4,1,4,$2,$3,$4,$5,$6,$7,$8,$9,$2,$3,0*
0 Add four circle primitives for the rounded corners*
1,1,$1+$1,$2,$3*
1,1,$1+$1,$4,$5*
1,1,$1+$1,$6,$7*
1,1,$1+$1,$8,$9*
0 Add four rect primitives between the rounded corners*
20,1,$1+$1,$2,$3,$4,$5,0*
20,1,$1+$1,$4,$5,$6,$7,0*
20,1,$1+$1,$6,$7,$8,$9,0*
20,1,$1+$1,$8,$9,$2,$3,0*%
G04 Aperture macros list end*
%TA.AperFunction,SMDPad,CuDef*%
%ADD10RoundRect,0.250000X-0.262500X-0.450000X0.262500X-0.450000X0.262500X0.450000X-0.262500X0.450000X0*%
%TD*%
%TA.AperFunction,SMDPad,CuDef*%
%ADD11RoundRect,0.250000X-0.475000X0.250000X-0.475000X-0.250000X0.475000X-0.250000X0.475000X0.250000X0*%
%TD*%
%TA.AperFunction,ComponentPad*%
%ADD12R,1.700000X1.700000*%
%TD*%
%TA.AperFunction,SMDPad,CuDef*%
%ADD13RoundRect,0.250000X0.450000X-0.262500X0.450000X0.262500X-0.450000X0.262500X-0.450000X-0.262500X0*%
%TD*%
%TA.AperFunction,SMDPad,CuDef*%
%ADD14RoundRect,0.250000X-0.450000X0.262500X-0.450000X-0.262500X0.450000X-0.262500X0.450000X0.262500X0*%
%TD*%
%TA.AperFunction,ComponentPad*%
%ADD15C,1.500000*%
%TD*%
%TA.AperFunction,SMDPad,CuDef*%
%ADD16RoundRect,0.100000X-0.637500X-0.100000X0.637500X-0.100000X0.637500X0.100000X-0.637500X0.100000X0*%
%TD*%
%TA.AperFunction,SMDPad,CuDef*%
%ADD17RoundRect,0.250000X0.475000X-0.250000X0.475000X0.250000X-0.475000X0.250000X-0.475000X-0.250000X0*%
%TD*%
%TA.AperFunction,SMDPad,CuDef*%
%ADD18RoundRect,0.250000X-0.250000X-0.475000X0.250000X-0.475000X0.250000X0.475000X-0.250000X0.475000X0*%
%TD*%
%TA.AperFunction,SMDPad,CuDef*%
%ADD19RoundRect,0.150000X0.150000X0.700000X-0.150000X0.700000X-0.150000X-0.700000X0.150000X-0.700000X0*%
%TD*%
%TA.AperFunction,SMDPad,CuDef*%
%ADD20RoundRect,0.250000X0.250000X1.100000X-0.250000X1.100000X-0.250000X-1.100000X0.250000X-1.100000X0*%
%TD*%
%TA.AperFunction,ComponentPad*%
%ADD21C,1.700000*%
%TD*%
%TA.AperFunction,SMDPad,CuDef*%
%ADD22RoundRect,0.375000X0.625000X0.375000X-0.625000X0.375000X-0.625000X-0.375000X0.625000X-0.375000X0*%
%TD*%
%TA.AperFunction,SMDPad,CuDef*%
%ADD23RoundRect,0.500000X0.500000X1.400000X-0.500000X1.400000X-0.500000X-1.400000X0.500000X-1.400000X0*%
%TD*%
%TA.AperFunction,SMDPad,CuDef*%
%ADD24RoundRect,0.243750X-0.243750X-0.456250X0.243750X-0.456250X0.243750X0.456250X-0.243750X0.456250X0*%
%TD*%
%TA.AperFunction,SMDPad,CuDef*%
%ADD25RoundRect,0.250000X0.262500X0.450000X-0.262500X0.450000X-0.262500X-0.450000X0.262500X-0.450000X0*%
%TD*%
%TA.AperFunction,ViaPad*%
%ADD26C,1.500000*%
%TD*%
%TA.AperFunction,Conductor*%
%ADD27C,0.300000*%
%TD*%
G04 APERTURE END LIST*
D10*
%TO.P,R2,1*%
%TO.N,/3V3*%
X140288000Y-95377000D03*
%TO.P,R2,2*%
%TO.N,Net-(U1-~{RESET})*%
X142113000Y-95377000D03*
%TD*%
D11*
%TO.P,C4,1*%
%TO.N,/3V3*%
X170053000Y-101981000D03*
%TO.P,C4,2*%
%TO.N,GND*%
X170053000Y-103881000D03*
%TD*%
D12*
%TO.P,J5,1,Pin_1*%
%TO.N,/Vin*%
X193294000Y-103886000D03*
%TD*%
D13*
%TO.P,L_TXB1,1,K*%
%TO.N,/TXDB*%
X173101000Y-91821000D03*
%TO.P,L_TXB1,2,A*%
%TO.N,Net-(L_TXB1-A)*%
X173101000Y-89996000D03*
%TD*%
D10*
%TO.P,R1,1*%
%TO.N,/3V3*%
X151210000Y-90043000D03*
%TO.P,R1,2*%
%TO.N,Net-(D1-A)*%
X153035000Y-90043000D03*
%TD*%
D14*
%TO.P,R3,1*%
%TO.N,/3V3*%
X173101000Y-102056000D03*
%TO.P,R3,2*%
%TO.N,/IRQ*%
X173101000Y-103881000D03*
%TD*%
%TO.P,R8,1*%
%TO.N,/3V3*%
X132969000Y-85217000D03*
%TO.P,R8,2*%
%TO.N,Net-(L_TXA1-A)*%
X132969000Y-87042000D03*
%TD*%
D10*
%TO.P,R12,1*%
%TO.N,/3V3*%
X140288000Y-105537000D03*
%TO.P,R12,2*%
%TO.N,/A1*%
X142113000Y-105537000D03*
%TD*%
D13*
%TO.P,L_RXA1,1,K*%
%TO.N,/RXDA*%
X129921000Y-92122000D03*
%TO.P,L_RXA1,2,A*%
%TO.N,Net-(L_RXA1-A)*%
X129921000Y-90297000D03*
%TD*%
D15*
%TO.P,Y1,1,1*%
%TO.N,Net-(U1-XTAL2)*%
X135509000Y-101717000D03*
%TO.P,Y1,2,2*%
%TO.N,Net-(U1-XTAL1)*%
X135509000Y-97917000D03*
%TD*%
D12*
%TO.P,J4,1,Pin_1*%
%TO.N,GND*%
X180340000Y-103886000D03*
%TD*%
D14*
%TO.P,R9,1*%
%TO.N,/3V3*%
X170561000Y-85217000D03*
%TO.P,R9,2*%
%TO.N,Net-(L_RXB1-A)*%
X170561000Y-87042000D03*
%TD*%
D13*
%TO.P,L_RXB1,1,K*%
%TO.N,/RXDB*%
X170561000Y-91821000D03*
%TO.P,L_RXB1,2,A*%
%TO.N,Net-(L_RXB1-A)*%
X170561000Y-89996000D03*
%TD*%
D14*
%TO.P,R5,1*%
%TO.N,/3V3*%
X129921000Y-85217000D03*
%TO.P,R5,2*%
%TO.N,Net-(L_RXA1-A)*%
X129921000Y-87042000D03*
%TD*%
D16*
%TO.P,U1,1,~{RTSA}*%
%TO.N,unconnected-(U1-~{RTSA}-Pad1)*%
X149088000Y-95481000D03*
%TO.P,U1,2,~{CTSA}*%
%TO.N,unconnected-(U1-~{CTSA}-Pad2)*%
X149088000Y-96131000D03*
%TO.P,U1,3,TXA*%
%TO.N,/TXDA*%
X149088000Y-96781000D03*
%TO.P,U1,4,RXA*%
%TO.N,/RXDA*%
X149088000Y-97431000D03*
%TO.P,U1,5,~{RESET}*%
%TO.N,Net-(U1-~{RESET})*%
X149088000Y-98081000D03*
%TO.P,U1,6,XTAL1*%
%TO.N,Net-(U1-XTAL1)*%
X149088000Y-98731000D03*
%TO.P,U1,7,XTAL2*%
%TO.N,Net-(U1-XTAL2)*%
X149088000Y-99381000D03*
%TO.P,U1,8,VDD*%
%TO.N,/3V3*%
X149088000Y-100031000D03*
%TO.P,U1,9,I2C/~{SPI}*%
%TO.N,Net-(U1-I2C{slash}~{SPI})*%
X149088000Y-100681000D03*
%TO.P,U1,10,A0/~{CS}*%
%TO.N,/A0*%
X149088000Y-101331000D03*
%TO.P,U1,11,A1/SI*%
%TO.N,/A1*%
X149088000Y-101981000D03*
%TO.P,U1,12,n.c./SO*%
%TO.N,unconnected-(U1-n.c.{slash}SO-Pad12)*%
X149088000Y-102631000D03*
%TO.P,U1,13,SCL/SCLK*%
%TO.N,/P_SCL*%
X149088000Y-103281000D03*
%TO.P,U1,14,SDA/VSS*%
%TO.N,/P_SDA*%
X149088000Y-103931000D03*
%TO.P,U1,15,~{IRQ}*%
%TO.N,/IRQ*%
X154813000Y-103931000D03*
%TO.P,U1,16,~{CTSB}*%
%TO.N,unconnected-(U1-~{CTSB}-Pad16)*%
X154813000Y-103281000D03*
%TO.P,U1,17,~{RTSB}*%
%TO.N,unconnected-(U1-~{RTSB}-Pad17)*%
X154813000Y-102631000D03*
%TO.P,U1,18,GPIO0/~{DSRB}*%
%TO.N,unconnected-(U1-GPIO0{slash}~{DSRB}-Pad18)*%
X154813000Y-101981000D03*
%TO.P,U1,19,GPIO1/~{DTRB}*%
%TO.N,unconnected-(U1-GPIO1{slash}~{DTRB}-Pad19)*%
X154813000Y-101331000D03*
%TO.P,U1,20,GPIO2/~{CDB}*%
%TO.N,unconnected-(U1-GPIO2{slash}~{CDB}-Pad20)*%
X154813000Y-100681000D03*
%TO.P,U1,21,GPIO3/~{RIB}*%
%TO.N,unconnected-(U1-GPIO3{slash}~{RIB}-Pad21)*%
X154813000Y-100031000D03*
%TO.P,U1,22,VSS*%
%TO.N,GND*%
X154813000Y-99381000D03*
%TO.P,U1,23,TXB*%
%TO.N,/TXDB*%
X154813000Y-98731000D03*
%TO.P,U1,24,RXB*%
%TO.N,/RXDB*%
X154813000Y-98081000D03*
%TO.P,U1,25,GPIO4/~{DSRA}*%
%TO.N,unconnected-(U1-GPIO4{slash}~{DSRA}-Pad25)*%
X154813000Y-97431000D03*
%TO.P,U1,26,GPIO5/~{DTRA}*%
%TO.N,unconnected-(U1-GPIO5{slash}~{DTRA}-Pad26)*%
X154813000Y-96781000D03*
%TO.P,U1,27,GPIO6/~{CDA}*%
%TO.N,unconnected-(U1-GPIO6{slash}~{CDA}-Pad27)*%
X154813000Y-96131000D03*
%TO.P,U1,28,GPIO7/~{RIA}*%
%TO.N,unconnected-(U1-GPIO7{slash}~{RIA}-Pad28)*%
X154813000Y-95481000D03*
%TD*%
D14*
%TO.P,R13,1*%
%TO.N,/P24*%
X130429000Y-100965000D03*
%TO.P,R13,2*%
%TO.N,/IRQ*%
X130429000Y-102790000D03*
%TD*%
D17*
%TO.P,C5,1*%
%TO.N,/5V*%
X170053000Y-99817000D03*
%TO.P,C5,2*%
%TO.N,GND*%
X170053000Y-97917000D03*
%TD*%
D18*
%TO.P,C2,1*%
%TO.N,Net-(U1-XTAL1)*%
X140288000Y-97917000D03*
%TO.P,C2,2*%
%TO.N,GND*%
X142188000Y-97917000D03*
%TD*%
D14*
%TO.P,R10,1*%
%TO.N,/3V3*%
X173101000Y-85217000D03*
%TO.P,R10,2*%
%TO.N,Net-(L_TXB1-A)*%
X173101000Y-87042000D03*
%TD*%
D19*
%TO.P,H1,1,Pin_1*%
%TO.N,/3V3*%
X144730000Y-86813000D03*
%TO.P,H1,2,Pin_2*%
%TO.N,GND*%
X143480000Y-86813000D03*
%TO.P,H1,3,Pin_3*%
%TO.N,/TXDA*%
X142230000Y-86813000D03*
%TO.P,H1,4,Pin_4*%
%TO.N,/RXDA*%
X140980000Y-86813000D03*
%TO.P,H1,5,Pin_5*%
%TO.N,unconnected-(H1-Pin_5-Pad5)*%
X139730000Y-86813000D03*
%TO.P,H1,6,Pin_6*%
%TO.N,unconnected-(H1-Pin_6-Pad6)*%
X138480000Y-86813000D03*
D20*
%TO.P,H1,MP*%
%TO.N,N/C*%
X146580000Y-83613000D03*
X136630000Y-83613000D03*
%TD*%
D12*
%TO.P,J2,1,Pin_1*%
%TO.N,GND*%
X185928000Y-110744000D03*
D21*
%TO.P,J2,2,Pin_2*%
%TO.N,/Vin*%
X188468000Y-110744000D03*
%TD*%
D12*
%TO.P,J3,1,Pin_1*%
%TO.N,/5V*%
X180340000Y-85090000D03*
%TD*%
D13*
%TO.P,R4,1*%
%TO.N,/3V3*%
X130429000Y-98726000D03*
%TO.P,R4,2*%
%TO.N,Net-(U1-I2C{slash}~{SPI})*%
X130429000Y-96901000D03*
%TD*%
D19*
%TO.P,H2,1,Pin_1*%
%TO.N,/3V3*%
X165050000Y-86813000D03*
%TO.P,H2,2,Pin_2*%
%TO.N,GND*%
X163800000Y-86813000D03*
%TO.P,H2,3,Pin_3*%
%TO.N,/TXDB*%
X162550000Y-86813000D03*
%TO.P,H2,4,Pin_4*%
%TO.N,/RXDB*%
X161300000Y-86813000D03*
%TO.P,H2,5,Pin_5*%
%TO.N,unconnected-(H2-Pin_5-Pad5)*%
X160050000Y-86813000D03*
%TO.P,H2,6,Pin_6*%
%TO.N,unconnected-(H2-Pin_6-Pad6)*%
X158800000Y-86813000D03*
D20*
%TO.P,H2,MP*%
%TO.N,N/C*%
X166900000Y-83613000D03*
X156950000Y-83613000D03*
%TD*%
D22*
%TO.P,U2,1,ADJ*%
%TO.N,GND*%
X165075000Y-103265000D03*
%TO.P,U2,2,VO*%
%TO.N,/3V3*%
X165075000Y-100965000D03*
D23*
X158775000Y-100965000D03*
D22*
%TO.P,U2,3,VI*%
%TO.N,/5V*%
X165075000Y-98665000D03*
%TD*%
D24*
%TO.P,D1,1,K*%
%TO.N,GND*%
X151160000Y-86233000D03*
%TO.P,D1,2,A*%
%TO.N,Net-(D1-A)*%
X153035000Y-86233000D03*
%TD*%
D12*
%TO.P,J1,1,3V3*%
%TO.N,unconnected-(J1-3V3-Pad1)*%
X175641000Y-109601000D03*
D21*
%TO.P,J1,2,5V*%
%TO.N,/5V*%
X175641000Y-112141000D03*
%TO.P,J1,3,SDA1*%
%TO.N,/P_SDA*%
X173101000Y-109601000D03*
%TO.P,J1,4,5V*%
%TO.N,/5V*%
X173101000Y-112141000D03*
%TO.P,J1,5,SCL1*%
%TO.N,/P_SCL*%
X170561000Y-109601000D03*
%TO.P,J1,6,GND*%
%TO.N,GND*%
X170561000Y-112141000D03*
%TO.P,J1,7,GPIO7*%
%TO.N,unconnected-(J1-GPIO7-Pad7)*%
X168021000Y-109601000D03*
%TO.P,J1,8,TXD*%
%TO.N,unconnected-(J1-TXD-Pad8)*%
X168021000Y-112141000D03*
%TO.P,J1,9,GND*%
%TO.N,GND*%
X165481000Y-109601000D03*
%TO.P,J1,10,RXD*%
%TO.N,unconnected-(J1-RXD-Pad10)*%
X165481000Y-112141000D03*
%TO.P,J1,11,GPIO0*%
%TO.N,unconnected-(J1-GPIO0-Pad11)*%
X162941000Y-109601000D03*
%TO.P,J1,12,GPIO1*%
%TO.N,unconnected-(J1-GPIO1-Pad12)*%
X162941000Y-112141000D03*
%TO.P,J1,13,GPIO2*%
%TO.N,unconnected-(J1-GPIO2-Pad13)*%
X160401000Y-109601000D03*
%TO.P,J1,14,GND*%
%TO.N,GND*%
X160401000Y-112141000D03*
%TO.P,J1,15,GPIO3*%
%TO.N,unconnected-(J1-GPIO3-Pad15)*%
X157861000Y-109601000D03*
%TO.P,J1,16,GPIO4*%
%TO.N,unconnected-(J1-GPIO4-Pad16)*%
X157861000Y-112141000D03*
%TO.P,J1,17,3V3*%
%TO.N,unconnected-(J1-3V3-Pad17)*%
X155321000Y-109601000D03*
%TO.P,J1,18,GPIO5*%
%TO.N,/P24*%
X155321000Y-112141000D03*
%TO.P,J1,19,MOSI*%
%TO.N,unconnected-(J1-MOSI-Pad19)*%
X152781000Y-109601000D03*
%TO.P,J1,20,GND*%
%TO.N,GND*%
X152781000Y-112141000D03*
%TO.P,J1,21,MISO*%
%TO.N,unconnected-(J1-MISO-Pad21)*%
X150241000Y-109601000D03*
%TO.P,J1,22,GPIO6*%
%TO.N,unconnected-(J1-GPIO6-Pad22)*%
X150241000Y-112141000D03*
%TO.P,J1,23,SCLK*%
%TO.N,unconnected-(J1-SCLK-Pad23)*%
X147701000Y-109601000D03*
%TO.P,J1,24,CE0*%
%TO.N,unconnected-(J1-CE0-Pad24)*%
X147701000Y-112141000D03*
%TO.P,J1,25,GND*%
%TO.N,GND*%
X145161000Y-109601000D03*
%TO.P,J1,26,CE1*%
%TO.N,unconnected-(J1-CE1-Pad26)*%
X145161000Y-112141000D03*
%TO.P,J1,27,SDA0*%
%TO.N,/&lt;NO NET&gt;*%
X142621000Y-109601000D03*
%TO.P,J1,28,SCL0*%
%TO.N,unconnected-(J1-SCL0-Pad28)*%
X142621000Y-112141000D03*
%TO.P,J1,29,GPIO21*%
%TO.N,unconnected-(J1-GPIO21-Pad29)*%
X140081000Y-109601000D03*
%TO.P,J1,30,GND*%
%TO.N,GND*%
X140081000Y-112141000D03*
%TO.P,J1,31,GPIO22*%
%TO.N,unconnected-(J1-GPIO22-Pad31)*%
X137541000Y-109601000D03*
%TO.P,J1,32,GPIO26*%
%TO.N,unconnected-(J1-GPIO26-Pad32)*%
X137541000Y-112141000D03*
%TO.P,J1,33,GPIO23*%
%TO.N,unconnected-(J1-GPIO23-Pad33)*%
X135001000Y-109601000D03*
%TO.P,J1,34,GND*%
%TO.N,GND*%
X135001000Y-112141000D03*
%TO.P,J1,35,GPIO24*%
%TO.N,unconnected-(J1-GPIO24-Pad35)*%
X132461000Y-109601000D03*
%TO.P,J1,36,GPIO27*%
%TO.N,unconnected-(J1-GPIO27-Pad36)*%
X132461000Y-112141000D03*
%TO.P,J1,37,GPIO25*%
%TO.N,unconnected-(J1-GPIO25-Pad37)*%
X129921000Y-109601000D03*
%TO.P,J1,38,GPIO28*%
%TO.N,unconnected-(J1-GPIO28-Pad38)*%
X129921000Y-112141000D03*
%TO.P,J1,39,GND*%
%TO.N,GND*%
X127381000Y-109601000D03*
%TO.P,J1,40,GPIO29*%
%TO.N,unconnected-(J1-GPIO29-Pad40)*%
X127381000Y-112141000D03*
%TD*%
D12*
%TO.P,J6,1,Pin_1*%
%TO.N,GND*%
X193548000Y-85090000D03*
%TD*%
D25*
%TO.P,R11,1*%
%TO.N,/A0*%
X142113000Y-102997000D03*
%TO.P,R11,2*%
%TO.N,/3V3*%
X140288000Y-102997000D03*
%TD*%
D18*
%TO.P,C3,1*%
%TO.N,Net-(U1-XTAL2)*%
X140288000Y-100457000D03*
%TO.P,C3,2*%
%TO.N,GND*%
X142188000Y-100457000D03*
%TD*%
D11*
%TO.P,C1,1*%
%TO.N,GND*%
X173101000Y-97917000D03*
%TO.P,C1,2*%
%TO.N,/3V3*%
X173101000Y-99817000D03*
%TD*%
D13*
%TO.P,L_TXA1,1,K*%
%TO.N,/TXDA*%
X132969000Y-92122000D03*
%TO.P,L_TXA1,2,A*%
%TO.N,Net-(L_TXA1-A)*%
X132969000Y-90297000D03*
%TD*%
D26*
%TO.N,/P_SCL*%
X170561000Y-107061000D03*
%TO.N,GND*%
X127381000Y-106045000D03*
X147320000Y-92710000D03*
X144145000Y-97790000D03*
%TO.N,Net-(U1-I2C{slash}~{SPI})*%
X132461000Y-96901000D03*
%TO.N,/3V3*%
X151210000Y-92710000D03*
X165050000Y-89204000D03*
X136144000Y-89154000D03*
X164973000Y-95885000D03*
%TO.N,GND*%
X138049000Y-104013000D03*
%TO.N,/5V*%
X175641000Y-89154000D03*
%TO.N,/P_SCL*%
X145478500Y-104203500D03*
%TO.N,/P_SDA*%
X173101000Y-106934000D03*
X147320000Y-105961000D03*
%TO.N,Net-(U1-I2C{slash}~{SPI})*%
X144145000Y-100457000D03*
%TD*%
D27*
%TO.N,/P_SCL*%
X170561000Y-109601000D02*
X170561000Y-107061000D01*
%TO.N,/P_SDA*%
X173101000Y-106934000D02*
X173101000Y-109601000D01*
%TO.N,GND*%
X127381000Y-106045000D02*
X127381000Y-109601000D01*
%TO.N,/P_SCL*%
X145478500Y-104203500D02*
X146401000Y-103281000D01*
X146401000Y-103281000D02*
X149088000Y-103281000D01*
%TO.N,/P_SDA*%
X147320000Y-104140000D02*
X147529000Y-103931000D01*
X147320000Y-105961000D02*
X147320000Y-104140000D01*
X147529000Y-103931000D02*
X149088000Y-103931000D01*
%TO.N,/3V3*%
X134620000Y-85217000D02*
X132969000Y-85217000D01*
X136144000Y-89154000D02*
X134874000Y-89154000D01*
X134620000Y-88900000D02*
X134620000Y-85217000D01*
X134874000Y-89154000D02*
X134620000Y-88900000D01*
%TO.N,/P24*%
X153797000Y-113665000D02*
X155321000Y-112141000D01*
X125730000Y-100965000D02*
X124841000Y-101854000D01*
X124841000Y-101854000D02*
X124841000Y-113665000D01*
X130429000Y-100965000D02*
X125730000Y-100965000D01*
X124841000Y-113665000D02*
X153797000Y-113665000D01*
%TO.N,GND*%
X144018000Y-97917000D02*
X144145000Y-97790000D01*
X142188000Y-97917000D02*
X144018000Y-97917000D01*
%TO.N,Net-(U1-XTAL1)*%
X144780000Y-96520000D02*
X146991000Y-98731000D01*
X140335000Y-96560000D02*
X140375000Y-96520000D01*
X146991000Y-98731000D02*
X149088000Y-98731000D01*
X140335000Y-97870000D02*
X140335000Y-96560000D01*
X140375000Y-96520000D02*
X144780000Y-96520000D01*
X140288000Y-97917000D02*
X140335000Y-97870000D01*
%TO.N,Net-(U1-XTAL2)*%
X145736000Y-99381000D02*
X149088000Y-99381000D01*
X145415000Y-99060000D02*
X145736000Y-99381000D01*
X140288000Y-99742000D02*
X140970000Y-99060000D01*
X140288000Y-100457000D02*
X140288000Y-99742000D01*
X140970000Y-99060000D02*
X145415000Y-99060000D01*
%TO.N,/5V*%
X177546000Y-96774000D02*
X175641000Y-94869000D01*
X177546000Y-110236000D02*
X177546000Y-96774000D01*
%TO.N,/3V3*%
X165050000Y-89204000D02*
X165050000Y-86813000D01*
%TO.N,Net-(U1-I2C{slash}~{SPI})*%
X130429000Y-96901000D02*
X132461000Y-96901000D01*
%TO.N,/3V3*%
X144730000Y-88850000D02*
X144730000Y-86813000D01*
X129921000Y-85217000D02*
X132969000Y-85217000D01*
X128397000Y-95377000D02*
X128270000Y-95250000D01*
X162052000Y-98806000D02*
X162052000Y-100965000D01*
X132254000Y-98726000D02*
X130429000Y-98726000D01*
X165075000Y-100965000D02*
X167640000Y-100965000D01*
X144780000Y-86863000D02*
X144730000Y-86813000D01*
X128270000Y-85217000D02*
X129921000Y-85217000D01*
X132461000Y-98933000D02*
X132254000Y-98726000D01*
X162052000Y-100965000D02*
X165075000Y-100965000D01*
X130429000Y-98726000D02*
X128698000Y-98726000D01*
X151210000Y-98646499D02*
X151210000Y-91821000D01*
X132461000Y-100965000D02*
X132461000Y-98933000D01*
X165050000Y-86813000D02*
X168457000Y-86813000D01*
X145923000Y-90043000D02*
X144730000Y-88850000D01*
X140288000Y-105537000D02*
X137033000Y-105537000D01*
X170053000Y-85217000D02*
X170561000Y-85217000D01*
X170128000Y-102056000D02*
X170053000Y-101981000D01*
X164973000Y-95885000D02*
X162052000Y-98806000D01*
X149088000Y-100031000D02*
X149825499Y-100031000D01*
X173101000Y-102056000D02*
X170128000Y-102056000D01*
X151210000Y-90043000D02*
X145923000Y-90043000D01*
X140288000Y-102997000D02*
X140288000Y-105537000D01*
X128270000Y-98298000D02*
X128270000Y-95250000D01*
X173101000Y-99817000D02*
X173101000Y-102056000D01*
X168457000Y-86813000D02*
X170053000Y-85217000D01*
X151210000Y-91821000D02*
X151210000Y-90043000D01*
X168656000Y-101981000D02*
X167640000Y-100965000D01*
X128270000Y-95250000D02*
X128270000Y-85217000D01*
X170053000Y-101981000D02*
X168656000Y-101981000D01*
X132969000Y-85217000D02*
X133066000Y-85314000D01*
X128698000Y-98726000D02*
X128270000Y-98298000D01*
X149825499Y-100031000D02*
X151210000Y-98646499D01*
X158775000Y-100965000D02*
X162052000Y-100965000D01*
X137033000Y-105537000D02*
X132461000Y-100965000D01*
X140288000Y-95377000D02*
X128397000Y-95377000D01*
X173101000Y-85217000D02*
X170561000Y-85217000D01*
%TO.N,Net-(U1-XTAL1)*%
X135509000Y-97917000D02*
X140288000Y-97917000D01*
%TO.N,Net-(U1-XTAL2)*%
X135509000Y-101717000D02*
X138035500Y-101717000D01*
X139295500Y-100457000D02*
X140288000Y-100457000D01*
X138035500Y-101717000D02*
X139295500Y-100457000D01*
%TO.N,/5V*%
X169173000Y-99817000D02*
X168021000Y-98665000D01*
X170053000Y-99817000D02*
X169173000Y-99817000D01*
X167513000Y-98665000D02*
X168021000Y-98665000D01*
X175641000Y-89281000D02*
X175641000Y-94869000D01*
X175641000Y-112141000D02*
X177546000Y-110236000D01*
X168021000Y-94869000D02*
X168021000Y-98665000D01*
X165075000Y-98665000D02*
X167513000Y-98665000D01*
X175641000Y-94869000D02*
X168021000Y-94869000D01*
X175641000Y-89154000D02*
X175641000Y-89281000D01*
X175641000Y-112141000D02*
X173101000Y-112141000D01*
%TO.N,Net-(D1-A)*%
X153035000Y-86233000D02*
X153035000Y-90043000D01*
%TO.N,/TXDA*%
X132969000Y-92122000D02*
X143691502Y-92122000D01*
X149088000Y-96781000D02*
X148350501Y-96781000D01*
X148350501Y-96781000D02*
X143767751Y-92198249D01*
X142230000Y-90660499D02*
X142230000Y-86813000D01*
X143767751Y-92198249D02*
X142230000Y-90660499D01*
X143691502Y-92122000D02*
X143767751Y-92198249D01*
%TO.N,/RXDA*%
X129921000Y-92122000D02*
X130882500Y-91160500D01*
X144145000Y-93345000D02*
X129921000Y-93345000D01*
X130882500Y-91160500D02*
X139979500Y-91160500D01*
X129921000Y-93345000D02*
X129921000Y-92122000D01*
X148231000Y-97431000D02*
X144145000Y-93345000D01*
X139979500Y-91160500D02*
X140980000Y-90160000D01*
X140980000Y-90160000D02*
X140980000Y-86813000D01*
X149088000Y-97431000D02*
X148231000Y-97431000D01*
%TO.N,/RXDB*%
X161300000Y-91821000D02*
X161300000Y-86813000D01*
X154813000Y-98081000D02*
X155550499Y-98081000D01*
X170561000Y-91821000D02*
X161300000Y-91821000D01*
X161300000Y-92331499D02*
X161300000Y-91821000D01*
X155550499Y-98081000D02*
X161300000Y-92331499D01*
%TO.N,/TXDB*%
X163093500Y-90957500D02*
X172237500Y-90957500D01*
X154813000Y-98731000D02*
X156031000Y-98731000D01*
X162550000Y-86813000D02*
X162550000Y-90414000D01*
X156031000Y-98731000D02*
X161417000Y-93345000D01*
X172237500Y-90957500D02*
X173101000Y-91821000D01*
X161417000Y-93345000D02*
X173101000Y-93345000D01*
X173101000Y-93345000D02*
X173101000Y-91821000D01*
X162550000Y-90414000D02*
X163093500Y-90957500D01*
%TO.N,Net-(L_RXA1-A)*%
X129921000Y-87042000D02*
X129921000Y-90297000D01*
%TO.N,Net-(L_RXB1-A)*%
X170561000Y-87042000D02*
X170561000Y-89996000D01*
%TO.N,Net-(L_TXA1-A)*%
X132969000Y-87042000D02*
X132969000Y-90297000D01*
%TO.N,Net-(L_TXB1-A)*%
X173101000Y-87042000D02*
X173101000Y-89996000D01*
%TO.N,Net-(U1-~{RESET})*%
X142113000Y-95377000D02*
X144653000Y-95377000D01*
X147357000Y-98081000D02*
X149088000Y-98081000D01*
X144653000Y-95377000D02*
X147357000Y-98081000D01*
%TO.N,/IRQ*%
X155829000Y-103931000D02*
X157435000Y-105537000D01*
X173101000Y-105537000D02*
X173101000Y-103881000D01*
X130429000Y-102790000D02*
X130429000Y-106299000D01*
X131191000Y-107061000D02*
X155911000Y-107061000D01*
X130429000Y-106299000D02*
X131191000Y-107061000D01*
X154813000Y-103931000D02*
X155829000Y-103931000D01*
X157435000Y-105537000D02*
X173101000Y-105537000D01*
X155911000Y-107061000D02*
X157435000Y-105537000D01*
%TO.N,Net-(U1-I2C{slash}~{SPI})*%
X144145000Y-100457000D02*
X144369000Y-100681000D01*
X144369000Y-100681000D02*
X149088000Y-100681000D01*
%TO.N,/A0*%
X143383000Y-102997000D02*
X145049000Y-101331000D01*
X142113000Y-102997000D02*
X143383000Y-102997000D01*
X145049000Y-101331000D02*
X149088000Y-101331000D01*
%TO.N,/A1*%
X143383000Y-105537000D02*
X143510000Y-105410000D01*
X143510000Y-105410000D02*
X143510000Y-104140000D01*
X142113000Y-105537000D02*
X143383000Y-105537000D01*
X145669000Y-101981000D02*
X149088000Y-101981000D01*
X143510000Y-104140000D02*
X145669000Y-101981000D01*
%TD*%
%TA.AperFunction,Conductor*%
%TO.N,GND*%
G36*
X142363500Y-99480462D02*
G01*
X142418038Y-99535000D01*
X142438000Y-99609500D01*
X142438000Y-101681999D01*
X142487974Y-101681999D01*
X142590696Y-101671505D01*
X142757121Y-101616357D01*
X142906340Y-101524319D01*
X143030319Y-101400340D01*
X143122358Y-101251120D01*
X143122359Y-101251117D01*
X143146389Y-101178599D01*
X143188771Y-101114159D01*
X143257695Y-101079543D01*
X143334692Y-101084028D01*
X143393185Y-101120106D01*
X143507218Y-101234139D01*
X143590138Y-101289544D01*
X143671084Y-101343631D01*
X143671085Y-101343631D01*
X143671086Y-101343632D01*
X143853165Y-101419051D01*
X144031328Y-101454490D01*
X144100503Y-101488603D01*
X144143353Y-101552733D01*
X144148397Y-101629695D01*
X144114284Y-101698870D01*
X144107619Y-101705986D01*
X143260748Y-102552859D01*
X143243760Y-102562666D01*
X143229889Y-102576538D01*
X143210940Y-102581615D01*
X143193953Y-102591423D01*
X143155389Y-102596500D01*
X143020307Y-102596500D01*
X142945807Y-102576538D01*
X142891269Y-102522000D01*
X142872161Y-102463428D01*
X142869591Y-102439517D01*
X142864229Y-102425141D01*
X142819297Y-102304670D01*
X142819295Y-102304666D01*
X142733047Y-102189455D01*
X142733044Y-102189452D01*
X142617833Y-102103204D01*
X142617829Y-102103202D01*
X142482982Y-102052908D01*
X142423376Y-102046500D01*
X141802636Y-102046500D01*
X141802611Y-102046502D01*
X141743021Y-102052908D01*
X141743015Y-102052909D01*
X141608170Y-102103202D01*
X141608166Y-102103204D01*
X141492955Y-102189452D01*
X141492952Y-102189455D01*
X141406704Y-102304666D01*
X141406702Y-102304670D01*
X141356408Y-102439517D01*
X141350000Y-102499114D01*
X141350000Y-103494863D01*
X141350002Y-103494888D01*
X141356408Y-103554478D01*
X141356409Y-103554484D01*
X141406702Y-103689329D01*
X141406704Y-103689333D01*
X141492952Y-103804544D01*
X141492955Y-103804547D01*
X141608166Y-103890795D01*
X141608170Y-103890797D01*
X141743017Y-103941091D01*
X141802614Y-103947499D01*
X141802618Y-103947499D01*
X141802627Y-103947500D01*
X142423372Y-103947499D01*
X142482983Y-103941091D01*
X142582113Y-103904118D01*
X142617829Y-103890797D01*
X142617833Y-103890795D01*
X142698376Y-103830500D01*
X142733046Y-103804546D01*
X142789145Y-103729608D01*
X142819295Y-103689333D01*
X142819297Y-103689329D01*
X142846550Y-103616258D01*
X142869591Y-103554483D01*
X142872162Y-103530573D01*
X142899973Y-103458633D01*
X142960028Y-103410238D01*
X143020308Y-103397500D01*
X143326390Y-103397500D01*
X143400890Y-103417462D01*
X143455428Y-103472000D01*
X143475390Y-103546500D01*
X143455428Y-103621000D01*
X143431752Y-103651854D01*
X143285876Y-103797731D01*
X143189518Y-103894089D01*
X143189517Y-103894090D01*
X143136793Y-103985410D01*
X143136794Y-103985410D01*
X143136793Y-103985413D01*
X143109500Y-104087269D01*
X143109500Y-104796883D01*
X143089538Y-104871383D01*
X143035000Y-104925921D01*
X142960500Y-104945883D01*
X142886000Y-104925921D01*
X142831462Y-104871383D01*
X142820894Y-104848953D01*
X142819296Y-104844668D01*
X142819295Y-104844666D01*
X142733047Y-104729455D01*
X142733044Y-104729452D01*
X142617833Y-104643204D01*
X142617829Y-104643202D01*
X142482982Y-104592908D01*
X142423376Y-104586500D01*
X141802636Y-104586500D01*
X141802611Y-104586502D01*
X141743021Y-104592908D01*
X141743015Y-104592909D01*
X141608170Y-104643202D01*
X141608166Y-104643204D01*
X141492955Y-104729452D01*
X141492952Y-104729455D01*
X141406704Y-104844666D01*
X141406702Y-104844670D01*
X141356408Y-104979517D01*
X141350000Y-105039114D01*
X141350000Y-106034863D01*
X141350002Y-106034888D01*
X141356408Y-106094478D01*
X141356409Y-106094484D01*
X141406702Y-106229329D01*
X141406704Y-106229333D01*
X141492952Y-106344544D01*
X141492953Y-106344544D01*
X141492954Y-106344546D01*
X141543601Y-106382460D01*
X141556638Y-106392220D01*
X141604314Y-106452848D01*
X141615290Y-106529191D01*
X141586624Y-106600794D01*
X141525996Y-106648470D01*
X141467344Y-106660500D01*
X140933656Y-106660500D01*
X140859156Y-106640538D01*
X140804618Y-106586000D01*
X140784656Y-106511500D01*
X140804618Y-106437000D01*
X140844362Y-106392220D01*
X140850330Y-106387751D01*
X140908046Y-106344546D01*
X140976702Y-106252834D01*
X140994295Y-106229333D01*
X140994297Y-106229329D01*
X141021324Y-106156864D01*
X141044591Y-106094483D01*
X141049657Y-106047367D01*
X141050999Y-106034885D01*
X141050999Y-106034882D01*
X141051000Y-106034873D01*
X141050999Y-105039128D01*
X141044591Y-104979517D01*
X141004260Y-104871383D01*
X140994297Y-104844670D01*
X140994295Y-104844666D01*
X140908047Y-104729455D01*
X140908044Y-104729452D01*
X140792836Y-104643207D01*
X140792833Y-104643206D01*
X140792831Y-104643204D01*
X140785425Y-104640441D01*
X140722601Y-104595703D01*
X140690563Y-104525544D01*
X140688500Y-104500838D01*
X140688500Y-104033161D01*
X140708462Y-103958661D01*
X140763000Y-103904123D01*
X140785429Y-103893556D01*
X140792831Y-103890796D01*
X140908046Y-103804546D01*
X140964145Y-103729608D01*
X140994295Y-103689333D01*
X140994297Y-103689329D01*
X141021550Y-103616258D01*
X141044591Y-103554483D01*
X141049264Y-103511017D01*
X141050999Y-103494885D01*
X141050999Y-103494882D01*
X141051000Y-103494873D01*
X141050999Y-102499128D01*
X141044591Y-102439517D01*
X141022952Y-102381499D01*
X140994297Y-102304670D01*
X140994295Y-102304666D01*
X140908047Y-102189455D01*
X140908044Y-102189452D01*
X140792833Y-102103204D01*
X140792829Y-102103202D01*
X140657982Y-102052908D01*
X140598376Y-102046500D01*
X139977636Y-102046500D01*
X139977611Y-102046502D01*
X139918021Y-102052908D01*
X139918015Y-102052909D01*
X139783170Y-102103202D01*
X139783166Y-102103204D01*
X139667955Y-102189452D01*
X139667952Y-102189455D01*
X139581704Y-102304666D01*
X139581702Y-102304670D01*
X139531408Y-102439517D01*
X139525000Y-102499114D01*
X139525000Y-103494863D01*
X139525002Y-103494888D01*
X139531408Y-103554478D01*
X139531409Y-103554484D01*
X139581702Y-103689329D01*
X139581704Y-103689333D01*
X139667952Y-103804544D01*
X139667954Y-103804546D01*
X139783167Y-103890794D01*
X139783167Y-103890795D01*
X139783168Y-103890795D01*
X139783169Y-103890796D01*
X139790563Y-103893554D01*
X139853391Y-103938287D01*
X139885435Y-104008443D01*
X139887500Y-104033161D01*
X139887500Y-104500838D01*
X139867538Y-104575338D01*
X139813000Y-104629876D01*
X139790578Y-104640440D01*
X139783169Y-104643204D01*
X139783168Y-104643205D01*
X139783163Y-104643207D01*
X139667955Y-104729452D01*
X139667952Y-104729455D01*
X139581704Y-104844666D01*
X139581702Y-104844670D01*
X139531408Y-104979517D01*
X139528838Y-105003427D01*
X139501027Y-105075367D01*
X139440972Y-105123762D01*
X139380692Y-105136500D01*
X137260611Y-105136500D01*
X137186111Y-105116538D01*
X137155252Y-105092859D01*
X134934734Y-102872341D01*
X134896170Y-102805546D01*
X134896170Y-102728418D01*
X134934734Y-102661623D01*
X135001529Y-102623059D01*
X135078657Y-102623059D01*
X135097114Y-102629324D01*
X135217165Y-102679051D01*
X135410459Y-102717500D01*
X135410460Y-102717500D01*
X135607540Y-102717500D01*
X135607541Y-102717500D01*
X135800835Y-102679051D01*
X135982914Y-102603632D01*
X136146782Y-102494139D01*
X136286139Y-102354782D01*
X136395632Y-102190914D01*
X136399699Y-102184828D01*
X136402029Y-102186385D01*
X136445477Y-102139982D01*
X136519280Y-102117581D01*
X136524180Y-102117500D01*
X138088225Y-102117500D01*
X138088227Y-102117500D01*
X138190088Y-102090207D01*
X138281413Y-102037480D01*
X139308117Y-101010775D01*
X139374908Y-100972214D01*
X139452036Y-100972214D01*
X139518831Y-101010778D01*
X139553078Y-101064067D01*
X139594203Y-101174331D01*
X139594204Y-101174333D01*
X139680452Y-101289544D01*
X139680455Y-101289547D01*
X139795666Y-101375795D01*
X139795670Y-101375797D01*
X139930517Y-101426091D01*
X139990114Y-101432499D01*
X139990118Y-101432499D01*
X139990127Y-101432500D01*
X140585872Y-101432499D01*
X140645483Y-101426091D01*
X140754415Y-101385462D01*
X140780329Y-101375797D01*
X140780333Y-101375795D01*
X140866322Y-101311423D01*
X140895546Y-101289546D01*
X140981617Y-101174569D01*
X141042244Y-101126893D01*
X141118587Y-101115917D01*
X141190190Y-101144583D01*
X141237867Y-101205210D01*
X141242334Y-101216996D01*
X141253641Y-101251119D01*
X141253641Y-101251120D01*
X141345680Y-101400340D01*
X141469659Y-101524319D01*
X141618878Y-101616357D01*
X141785302Y-101671505D01*
X141785311Y-101671507D01*
X141888016Y-101681999D01*
X141938000Y-101681999D01*
X141938000Y-99609500D01*
X141957962Y-99535000D01*
X142012500Y-99480462D01*
X142087000Y-99460500D01*
X142289000Y-99460500D01*
X142363500Y-99480462D01*
G37*
%TD.AperFunction*%
%TA.AperFunction,Conductor*%
G36*
X144626889Y-96940462D02*
G01*
X144657748Y-96964141D01*
X146419748Y-98726141D01*
X146458312Y-98792936D01*
X146458312Y-98870064D01*
X146419748Y-98936859D01*
X146352953Y-98975423D01*
X146314389Y-98980500D01*
X145963610Y-98980500D01*
X145889110Y-98960538D01*
X145858251Y-98936859D01*
X145775779Y-98854387D01*
X145660913Y-98739520D01*
X145660909Y-98739517D01*
X145569591Y-98686794D01*
X145569588Y-98686793D01*
X145537783Y-98678271D01*
X145467729Y-98659500D01*
X145467727Y-98659500D01*
X143330775Y-98659500D01*
X143256275Y-98639538D01*
X143201737Y-98585000D01*
X143181775Y-98510500D01*
X143182547Y-98495356D01*
X143187999Y-98441986D01*
X143188000Y-98441979D01*
X143188000Y-98167000D01*
X142438000Y-98167000D01*
X142438000Y-98510500D01*
X142418038Y-98585000D01*
X142363500Y-98639538D01*
X142289000Y-98659500D01*
X142087000Y-98659500D01*
X142012500Y-98639538D01*
X141957962Y-98585000D01*
X141938000Y-98510500D01*
X141938000Y-98066000D01*
X141957962Y-97991500D01*
X142012500Y-97936962D01*
X142087000Y-97917000D01*
X142188000Y-97917000D01*
X142188000Y-97816000D01*
X142207962Y-97741500D01*
X142262500Y-97686962D01*
X142337000Y-97667000D01*
X143187999Y-97667000D01*
X143187999Y-97392026D01*
X143177505Y-97289303D01*
X143120200Y-97116368D01*
X143115715Y-97039370D01*
X143150330Y-96970446D01*
X143214769Y-96928063D01*
X143261637Y-96920500D01*
X144552389Y-96920500D01*
X144626889Y-96940462D01*
G37*
%TD.AperFunction*%
%TA.AperFunction,Conductor*%
G36*
X136160361Y-81800462D02*
G01*
X136214899Y-81855000D01*
X136234861Y-81929500D01*
X136214899Y-82004000D01*
X136160361Y-82058538D01*
X136137932Y-82069105D01*
X136137672Y-82069201D01*
X136137666Y-82069204D01*
X136022455Y-82155452D01*
X136022452Y-82155455D01*
X135936204Y-82270666D01*
X135936202Y-82270670D01*
X135885908Y-82405517D01*
X135879500Y-82465114D01*
X135879500Y-84760863D01*
X135879502Y-84760888D01*
X135885908Y-84820478D01*
X135885909Y-84820484D01*
X135936202Y-84955329D01*
X135936204Y-84955333D01*
X136022452Y-85070544D01*
X136022455Y-85070547D01*
X136137666Y-85156795D01*
X136137670Y-85156797D01*
X136272517Y-85207091D01*
X136332114Y-85213499D01*
X136332118Y-85213499D01*
X136332127Y-85213500D01*
X136927872Y-85213499D01*
X136987483Y-85207091D01*
X137102284Y-85164273D01*
X137122329Y-85156797D01*
X137122333Y-85156795D01*
X137190335Y-85105888D01*
X137237546Y-85070546D01*
X137280671Y-85012938D01*
X137323795Y-84955333D01*
X137323797Y-84955329D01*
X137364195Y-84847015D01*
X137374091Y-84820483D01*
X137375823Y-84804370D01*
X137380499Y-84760885D01*
X137380499Y-84760882D01*
X137380500Y-84760873D01*
X137380499Y-82465128D01*
X137374091Y-82405517D01*
X137359588Y-82366633D01*
X137323797Y-82270670D01*
X137323795Y-82270666D01*
X137237547Y-82155455D01*
X137237544Y-82155452D01*
X137122333Y-82069204D01*
X137122327Y-82069201D01*
X137122068Y-82069105D01*
X137121797Y-82068912D01*
X137112977Y-82064096D01*
X137113552Y-82063041D01*
X137059242Y-82024366D01*
X137027202Y-81954208D01*
X137034534Y-81877429D01*
X137079273Y-81814603D01*
X137149431Y-81782563D01*
X137174139Y-81780500D01*
X146035861Y-81780500D01*
X146110361Y-81800462D01*
X146164899Y-81855000D01*
X146184861Y-81929500D01*
X146164899Y-82004000D01*
X146110361Y-82058538D01*
X146087932Y-82069105D01*
X146087672Y-82069201D01*
X146087666Y-82069204D01*
X145972455Y-82155452D01*
X145972452Y-82155455D01*
X145886204Y-82270666D01*
X145886202Y-82270670D01*
X145835908Y-82405517D01*
X145829500Y-82465114D01*
X145829500Y-84760863D01*
X145829502Y-84760888D01*
X145835908Y-84820478D01*
X145835909Y-84820484D01*
X145886202Y-84955329D01*
X145886204Y-84955333D01*
X145972452Y-85070544D01*
X145972455Y-85070547D01*
X146087666Y-85156795D01*
X146087670Y-85156797D01*
X146222517Y-85207091D01*
X146282114Y-85213499D01*
X146282118Y-85213499D01*
X146282127Y-85213500D01*
X146877872Y-85213499D01*
X146937483Y-85207091D01*
X147052284Y-85164273D01*
X147072329Y-85156797D01*
X147072333Y-85156795D01*
X147140335Y-85105888D01*
X147187546Y-85070546D01*
X147230671Y-85012938D01*
X147273795Y-84955333D01*
X147273797Y-84955329D01*
X147314195Y-84847015D01*
X147324091Y-84820483D01*
X147325823Y-84804370D01*
X147330499Y-84760885D01*
X147330499Y-84760882D01*
X147330500Y-84760873D01*
X147330499Y-82465128D01*
X147324091Y-82405517D01*
X147309588Y-82366633D01*
X147273797Y-82270670D01*
X147273795Y-82270666D01*
X147187547Y-82155455D01*
X147187544Y-82155452D01*
X147072333Y-82069204D01*
X147072327Y-82069201D01*
X147072068Y-82069105D01*
X147071797Y-82068912D01*
X147062977Y-82064096D01*
X147063552Y-82063041D01*
X147009242Y-82024366D01*
X146977202Y-81954208D01*
X146984534Y-81877429D01*
X147029273Y-81814603D01*
X147099431Y-81782563D01*
X147124139Y-81780500D01*
X156405861Y-81780500D01*
X156480361Y-81800462D01*
X156534899Y-81855000D01*
X156554861Y-81929500D01*
X156534899Y-82004000D01*
X156480361Y-82058538D01*
X156457932Y-82069105D01*
X156457672Y-82069201D01*
X156457666Y-82069204D01*
X156342455Y-82155452D01*
X156342452Y-82155455D01*
X156256204Y-82270666D01*
X156256202Y-82270670D01*
X156205908Y-82405517D01*
X156199500Y-82465114D01*
X156199500Y-84760863D01*
X156199502Y-84760888D01*
X156205908Y-84820478D01*
X156205909Y-84820484D01*
X156256202Y-84955329D01*
X156256204Y-84955333D01*
X156342452Y-85070544D01*
X156342455Y-85070547D01*
X156457666Y-85156795D01*
X156457670Y-85156797D01*
X156592517Y-85207091D01*
X156652114Y-85213499D01*
X156652118Y-85213499D01*
X156652127Y-85213500D01*
X157247872Y-85213499D01*
X157307483Y-85207091D01*
X157422284Y-85164273D01*
X157442329Y-85156797D01*
X157442333Y-85156795D01*
X157510335Y-85105888D01*
X157557546Y-85070546D01*
X157600671Y-85012938D01*
X157643795Y-84955333D01*
X157643797Y-84955329D01*
X157684195Y-84847015D01*
X157694091Y-84820483D01*
X157695823Y-84804370D01*
X157700499Y-84760885D01*
X157700499Y-84760882D01*
X157700500Y-84760873D01*
X157700499Y-82465128D01*
X157694091Y-82405517D01*
X157679588Y-82366633D01*
X157643797Y-82270670D01*
X157643795Y-82270666D01*
X157557547Y-82155455D01*
X157557544Y-82155452D01*
X157442333Y-82069204D01*
X157442327Y-82069201D01*
X157442068Y-82069105D01*
X157441797Y-82068912D01*
X157432977Y-82064096D01*
X157433552Y-82063041D01*
X157379242Y-82024366D01*
X157347202Y-81954208D01*
X157354534Y-81877429D01*
X157399273Y-81814603D01*
X157469431Y-81782563D01*
X157494139Y-81780500D01*
X166355861Y-81780500D01*
X166430361Y-81800462D01*
X166484899Y-81855000D01*
X166504861Y-81929500D01*
X166484899Y-82004000D01*
X166430361Y-82058538D01*
X166407932Y-82069105D01*
X166407672Y-82069201D01*
X166407666Y-82069204D01*
X166292455Y-82155452D01*
X166292452Y-82155455D01*
X166206204Y-82270666D01*
X166206202Y-82270670D01*
X166155908Y-82405517D01*
X166149500Y-82465114D01*
X166149500Y-84760863D01*
X166149502Y-84760888D01*
X166155908Y-84820478D01*
X166155909Y-84820484D01*
X166206202Y-84955329D01*
X166206204Y-84955333D01*
X166292452Y-85070544D01*
X166292455Y-85070547D01*
X166407666Y-85156795D01*
X166407670Y-85156797D01*
X166542517Y-85207091D01*
X166602114Y-85213499D01*
X166602118Y-85213499D01*
X166602127Y-85213500D01*
X167197872Y-85213499D01*
X167257483Y-85207091D01*
X167372284Y-85164273D01*
X167392329Y-85156797D01*
X167392333Y-85156795D01*
X167460335Y-85105888D01*
X167507546Y-85070546D01*
X167550671Y-85012938D01*
X167593795Y-84955333D01*
X167593797Y-84955329D01*
X167634195Y-84847015D01*
X167644091Y-84820483D01*
X167645823Y-84804370D01*
X167650499Y-84760885D01*
X167650500Y-84760867D01*
X167650500Y-84215322D01*
X179239500Y-84215322D01*
X179239500Y-85964677D01*
X179254033Y-86037739D01*
X179282779Y-86080760D01*
X179309399Y-86120601D01*
X179392260Y-86175966D01*
X179465326Y-86190500D01*
X179465330Y-86190500D01*
X181214670Y-86190500D01*
X181214674Y-86190500D01*
X181287740Y-86175966D01*
X181370601Y-86120601D01*
X181425966Y-86037740D01*
X181440500Y-85964674D01*
X181440500Y-84215326D01*
X181435895Y-84192177D01*
X192198000Y-84192177D01*
X192198000Y-84840000D01*
X193114988Y-84840000D01*
X193082075Y-84897007D01*
X193048000Y-85024174D01*
X193048000Y-85155826D01*
X193082075Y-85282993D01*
X193114988Y-85340000D01*
X192198000Y-85340000D01*
X192198000Y-85987822D01*
X192198001Y-85987842D01*
X192204401Y-86047377D01*
X192254645Y-86182084D01*
X192254650Y-86182094D01*
X192340809Y-86297187D01*
X192340812Y-86297190D01*
X192455905Y-86383349D01*
X192455915Y-86383354D01*
X192590623Y-86433598D01*
X192590621Y-86433598D01*
X192650157Y-86439998D01*
X192650177Y-86440000D01*
X193298000Y-86440000D01*
X193298000Y-85523012D01*
X193355007Y-85555925D01*
X193482174Y-85590000D01*
X193613826Y-85590000D01*
X193740993Y-85555925D01*
X193798000Y-85523012D01*
X193798000Y-86440000D01*
X194445823Y-86440000D01*
X194445842Y-86439998D01*
X194505377Y-86433598D01*
X194640084Y-86383354D01*
X194640094Y-86383349D01*
X194755187Y-86297190D01*
X194755190Y-86297187D01*
X194841349Y-86182094D01*
X194841354Y-86182084D01*
X194891598Y-86047377D01*
X194897998Y-85987842D01*
X194898000Y-85987822D01*
X194898000Y-85340000D01*
X193981012Y-85340000D01*
X194013925Y-85282993D01*
X194048000Y-85155826D01*
X194048000Y-85024174D01*
X194013925Y-84897007D01*
X193981012Y-84840000D01*
X194898000Y-84840000D01*
X194898000Y-84192177D01*
X194897998Y-84192157D01*
X194891598Y-84132622D01*
X194841354Y-83997915D01*
X194841349Y-83997905D01*
X194755190Y-83882812D01*
X194755187Y-83882809D01*
X194640094Y-83796650D01*
X194640084Y-83796645D01*
X194505376Y-83746401D01*
X194505378Y-83746401D01*
X194445842Y-83740001D01*
X194445823Y-83740000D01*
X193798000Y-83740000D01*
X193798000Y-84656988D01*
X193740993Y-84624075D01*
X193613826Y-84590000D01*
X193482174Y-84590000D01*
X193355007Y-84624075D01*
X193298000Y-84656988D01*
X193298000Y-83740000D01*
X192650177Y-83740000D01*
X192650157Y-83740001D01*
X192590622Y-83746401D01*
X192455915Y-83796645D01*
X192455905Y-83796650D01*
X192340812Y-83882809D01*
X192340809Y-83882812D01*
X192254650Y-83997905D01*
X192254645Y-83997915D01*
X192204401Y-84132622D01*
X192198001Y-84192157D01*
X192198000Y-84192177D01*
X181435895Y-84192177D01*
X181425966Y-84142260D01*
X181370601Y-84059399D01*
X181287740Y-84004034D01*
X181287739Y-84004033D01*
X181214677Y-83989500D01*
X181214674Y-83989500D01*
X179465326Y-83989500D01*
X179465322Y-83989500D01*
X179392260Y-84004033D01*
X179309399Y-84059398D01*
X179309398Y-84059399D01*
X179254033Y-84142260D01*
X179239500Y-84215322D01*
X167650500Y-84215322D01*
X167650500Y-84208006D01*
X167650499Y-82465136D01*
X167650499Y-82465128D01*
X167644091Y-82405517D01*
X167629588Y-82366633D01*
X167593797Y-82270670D01*
X167593795Y-82270666D01*
X167507547Y-82155455D01*
X167507544Y-82155452D01*
X167392333Y-82069204D01*
X167392327Y-82069201D01*
X167392068Y-82069105D01*
X167391797Y-82068912D01*
X167382977Y-82064096D01*
X167383552Y-82063041D01*
X167329242Y-82024366D01*
X167297202Y-81954208D01*
X167304534Y-81877429D01*
X167349273Y-81814603D01*
X167419431Y-81782563D01*
X167444139Y-81780500D01*
X196684500Y-81780500D01*
X196759000Y-81800462D01*
X196813538Y-81855000D01*
X196833500Y-81929500D01*
X196833500Y-114146500D01*
X196813538Y-114221000D01*
X196759000Y-114275538D01*
X196684500Y-114295500D01*
X154062020Y-114295500D01*
X153987520Y-114275538D01*
X153932982Y-114221000D01*
X153913020Y-114146500D01*
X153932982Y-114072000D01*
X153987519Y-114017463D01*
X154042906Y-113985484D01*
X154042905Y-113985484D01*
X154042913Y-113985480D01*
X154810568Y-113217823D01*
X154877361Y-113179261D01*
X154954489Y-113179261D01*
X154961947Y-113181470D01*
X155063299Y-113214402D01*
X155234389Y-113241500D01*
X155234393Y-113241500D01*
X155407607Y-113241500D01*
X155407611Y-113241500D01*
X155578701Y-113214402D01*
X155743445Y-113160873D01*
X155897788Y-113082232D01*
X156037928Y-112980414D01*
X156160414Y-112857928D01*
X156262232Y-112717788D01*
X156340873Y-112563445D01*
X156394402Y-112398701D01*
X156421500Y-112227611D01*
X156421500Y-112054389D01*
X156760500Y-112054389D01*
X156760500Y-112227611D01*
X156772137Y-112301086D01*
X156787597Y-112398700D01*
X156818742Y-112494553D01*
X156841127Y-112563445D01*
X156889929Y-112659224D01*
X156919771Y-112717793D01*
X157021583Y-112857924D01*
X157021586Y-112857928D01*
X157144072Y-112980414D01*
X157144075Y-112980416D01*
X157279676Y-113078937D01*
X157284212Y-113082232D01*
X157438555Y-113160873D01*
X157603299Y-113214402D01*
X157774389Y-113241500D01*
X157774393Y-113241500D01*
X157947607Y-113241500D01*
X157947611Y-113241500D01*
X158118701Y-113214402D01*
X158283445Y-113160873D01*
X158437788Y-113082232D01*
X158577928Y-112980414D01*
X158700414Y-112857928D01*
X158802232Y-112717788D01*
X158862841Y-112598833D01*
X158914446Y-112541522D01*
X158987799Y-112517687D01*
X159063242Y-112533722D01*
X159120559Y-112585331D01*
X159137305Y-112620438D01*
X159149907Y-112659223D01*
X159246378Y-112848555D01*
X159285728Y-112902716D01*
X159285729Y-112902716D01*
X159918037Y-112270408D01*
X159935075Y-112333993D01*
X160000901Y-112448007D01*
X160093993Y-112541099D01*
X160208007Y-112606925D01*
X160271590Y-112623962D01*
X159639282Y-113256270D01*
X159693444Y-113295621D01*
X159693444Y-113295622D01*
X159882779Y-113392093D01*
X160084871Y-113457757D01*
X160294758Y-113491000D01*
X160507242Y-113491000D01*
X160717128Y-113457757D01*
X160919220Y-113392093D01*
X161108555Y-113295622D01*
X161108557Y-113295620D01*
X161162716Y-113256270D01*
X161162716Y-113256269D01*
X160530409Y-112623962D01*
X160593993Y-112606925D01*
X160708007Y-112541099D01*
X160801099Y-112448007D01*
X160866925Y-112333993D01*
X160883962Y-112270409D01*
X161516269Y-112902716D01*
X161516270Y-112902716D01*
X161555620Y-112848557D01*
X161555622Y-112848555D01*
X161652091Y-112659224D01*
X161664693Y-112620441D01*
X161706699Y-112555756D01*
X161775421Y-112520739D01*
X161852443Y-112524775D01*
X161917128Y-112566781D01*
X161939161Y-112598839D01*
X161999769Y-112717790D01*
X162101583Y-112857924D01*
X162101586Y-112857928D01*
X162224072Y-112980414D01*
X162224075Y-112980416D01*
X162359676Y-113078937D01*
X162364212Y-113082232D01*
X162518555Y-113160873D01*
X162683299Y-113214402D01*
X162854389Y-113241500D01*
X162854393Y-113241500D01*
X163027607Y-113241500D01*
X163027611Y-113241500D01*
X163198701Y-113214402D01*
X163363445Y-113160873D01*
X163517788Y-113082232D01*
X163657928Y-112980414D01*
X163780414Y-112857928D01*
X163882232Y-112717788D01*
X163960873Y-112563445D01*
X164014402Y-112398701D01*
X164041500Y-112227611D01*
X164041500Y-112054389D01*
X164014402Y-111883299D01*
X163960873Y-111718555D01*
X163882232Y-111564212D01*
X163780414Y-111424072D01*
X163657928Y-111301586D01*
X163578668Y-111244000D01*
X163517793Y-111199771D01*
X163517790Y-111199769D01*
X163517788Y-111199768D01*
X163363445Y-111121127D01*
X163300030Y-111100522D01*
X163198700Y-111067597D01*
X163101086Y-111052137D01*
X163027611Y-111040500D01*
X162854389Y-111040500D01*
X162788050Y-111051007D01*
X162683299Y-111067597D01*
X162530859Y-111117129D01*
X162518555Y-111121127D01*
X162518549Y-111121129D01*
X162518549Y-111121130D01*
X162364206Y-111199771D01*
X162224075Y-111301583D01*
X162101583Y-111424075D01*
X161999771Y-111564206D01*
X161999768Y-111564212D01*
X161939162Y-111683160D01*
X161939161Y-111683161D01*
X161887552Y-111740478D01*
X161814199Y-111764312D01*
X161738756Y-111748276D01*
X161681439Y-111696667D01*
X161664693Y-111661559D01*
X161652091Y-111622773D01*
X161555621Y-111433444D01*
X161516270Y-111379282D01*
X160883962Y-112011589D01*
X160866925Y-111948007D01*
X160801099Y-111833993D01*
X160708007Y-111740901D01*
X160593993Y-111675075D01*
X160530407Y-111658037D01*
X161162716Y-111025729D01*
X161162716Y-111025728D01*
X161108555Y-110986378D01*
X161108555Y-110986377D01*
X160919223Y-110889907D01*
X160880438Y-110877305D01*
X160815753Y-110835297D01*
X160780739Y-110766575D01*
X160784776Y-110689553D01*
X160826784Y-110624868D01*
X160858827Y-110602844D01*
X160977788Y-110542232D01*
X161117928Y-110440414D01*
X161240414Y-110317928D01*
X161342232Y-110177788D01*
X161420873Y-110023445D01*
X161474402Y-109858701D01*
X161501500Y-109687611D01*
X161501500Y-109514389D01*
X161840500Y-109514389D01*
X161840500Y-109687611D01*
X161846284Y-109724127D01*
X161867597Y-109858700D01*
X161886582Y-109917128D01*
X161921127Y-110023445D01*
X161996605Y-110171579D01*
X161999771Y-110177793D01*
X162101583Y-110317924D01*
X162101586Y-110317928D01*
X162224072Y-110440414D01*
X162224075Y-110440416D01*
X162364203Y-110542226D01*
X162364212Y-110542232D01*
X162518555Y-110620873D01*
X162683299Y-110674402D01*
X162854389Y-110701500D01*
X162854393Y-110701500D01*
X163027607Y-110701500D01*
X163027611Y-110701500D01*
X163198701Y-110674402D01*
X163363445Y-110620873D01*
X163517788Y-110542232D01*
X163657928Y-110440414D01*
X163780414Y-110317928D01*
X163882232Y-110177788D01*
X163942841Y-110058833D01*
X163994446Y-110001522D01*
X164067799Y-109977687D01*
X164143242Y-109993722D01*
X164200559Y-110045331D01*
X164217305Y-110080438D01*
X164229907Y-110119223D01*
X164326378Y-110308555D01*
X164365728Y-110362716D01*
X164365729Y-110362716D01*
X164998037Y-109730408D01*
X165015075Y-109793993D01*
X165080901Y-109908007D01*
X165173993Y-110001099D01*
X165288007Y-110066925D01*
X165351590Y-110083962D01*
X164719282Y-110716270D01*
X164773444Y-110755621D01*
X164773444Y-110755622D01*
X164962773Y-110852091D01*
X165001559Y-110864693D01*
X165066244Y-110906700D01*
X165101260Y-110975422D01*
X165097224Y-111052444D01*
X165055217Y-111117129D01*
X165023161Y-111139161D01*
X164904206Y-111199771D01*
X164764075Y-111301583D01*
X164641583Y-111424075D01*
X164539771Y-111564206D01*
X164461130Y-111718549D01*
X164461125Y-111718561D01*
X164407597Y-111883299D01*
X164396845Y-111951190D01*
X164380500Y-112054389D01*
X164380500Y-112227611D01*
X164392137Y-112301086D01*
X164407597Y-112398700D01*
X164438742Y-112494553D01*
X164461127Y-112563445D01*
X164509929Y-112659224D01*
X164539771Y-112717793D01*
X164641583Y-112857924D01*
X164641586Y-112857928D01*
X164764072Y-112980414D01*
X164764075Y-112980416D01*
X164899676Y-113078937D01*
X164904212Y-113082232D01*
X165058555Y-113160873D01*
X165223299Y-113214402D01*
X165394389Y-113241500D01*
X165394393Y-113241500D01*
X165567607Y-113241500D01*
X165567611Y-113241500D01*
X165738701Y-113214402D01*
X165903445Y-113160873D01*
X166057788Y-113082232D01*
X166197928Y-112980414D01*
X166320414Y-112857928D01*
X166422232Y-112717788D01*
X166500873Y-112563445D01*
X166554402Y-112398701D01*
X166581500Y-112227611D01*
X166581500Y-112054389D01*
X166554402Y-111883299D01*
X166500873Y-111718555D01*
X166422232Y-111564212D01*
X166320414Y-111424072D01*
X166197928Y-111301586D01*
X166071768Y-111209925D01*
X166057790Y-111199769D01*
X165938839Y-111139161D01*
X165881521Y-111087552D01*
X165857687Y-111014199D01*
X165873723Y-110938757D01*
X165925332Y-110881439D01*
X165960441Y-110864693D01*
X165999224Y-110852091D01*
X166188555Y-110755622D01*
X166188557Y-110755620D01*
X166242716Y-110716270D01*
X166242716Y-110716269D01*
X165610409Y-110083962D01*
X165673993Y-110066925D01*
X165788007Y-110001099D01*
X165881099Y-109908007D01*
X165946925Y-109793993D01*
X165963962Y-109730409D01*
X166596269Y-110362716D01*
X166596270Y-110362716D01*
X166635620Y-110308557D01*
X166635622Y-110308555D01*
X166732091Y-110119224D01*
X166744693Y-110080441D01*
X166786699Y-110015756D01*
X166855421Y-109980739D01*
X166932443Y-109984775D01*
X166997128Y-110026781D01*
X167019161Y-110058839D01*
X167079769Y-110177790D01*
X167181583Y-110317924D01*
X167181586Y-110317928D01*
X167304072Y-110440414D01*
X167304075Y-110440416D01*
X167444203Y-110542226D01*
X167444212Y-110542232D01*
X167598555Y-110620873D01*
X167763299Y-110674402D01*
X167934389Y-110701500D01*
X167934393Y-110701500D01*
X168107607Y-110701500D01*
X168107611Y-110701500D01*
X168278701Y-110674402D01*
X168443445Y-110620873D01*
X168597788Y-110542232D01*
X168737928Y-110440414D01*
X168860414Y-110317928D01*
X168962232Y-110177788D01*
X169040873Y-110023445D01*
X169094402Y-109858701D01*
X169121500Y-109687611D01*
X169121500Y-109514389D01*
X169094402Y-109343299D01*
X169040873Y-109178555D01*
X168962232Y-109024212D01*
X168860414Y-108884072D01*
X168737928Y-108761586D01*
X168737924Y-108761583D01*
X168597793Y-108659771D01*
X168597790Y-108659769D01*
X168597788Y-108659768D01*
X168443445Y-108581127D01*
X168377774Y-108559789D01*
X168278700Y-108527597D01*
X168181086Y-108512137D01*
X168107611Y-108500500D01*
X167934389Y-108500500D01*
X167868037Y-108511009D01*
X167763299Y-108527597D01*
X167598561Y-108581125D01*
X167598555Y-108581127D01*
X167598549Y-108581129D01*
X167598549Y-108581130D01*
X167444206Y-108659771D01*
X167304075Y-108761583D01*
X167181583Y-108884075D01*
X167079771Y-109024206D01*
X167079768Y-109024212D01*
X167019162Y-109143160D01*
X167019161Y-109143161D01*
X166967552Y-109200478D01*
X166894199Y-109224312D01*
X166818756Y-109208276D01*
X166761439Y-109156667D01*
X166744693Y-109121559D01*
X166732091Y-109082773D01*
X166635621Y-108893444D01*
X166596270Y-108839282D01*
X165963962Y-109471589D01*
X165946925Y-109408007D01*
X165881099Y-109293993D01*
X165788007Y-109200901D01*
X165673993Y-109135075D01*
X165610407Y-109118037D01*
X166242716Y-108485729D01*
X166242716Y-108485728D01*
X166188555Y-108446378D01*
X166188555Y-108446377D01*
X165999220Y-108349906D01*
X165797128Y-108284242D01*
X165587242Y-108251000D01*
X165374758Y-108251000D01*
X165164871Y-108284242D01*
X164962779Y-108349906D01*
X164773444Y-108446378D01*
X164719282Y-108485728D01*
X164719282Y-108485729D01*
X165351590Y-109118037D01*
X165288007Y-109135075D01*
X165173993Y-109200901D01*
X165080901Y-109293993D01*
X165015075Y-109408007D01*
X164998037Y-109471590D01*
X164365728Y-108839282D01*
X164326378Y-108893444D01*
X164229908Y-109082774D01*
X164217305Y-109121562D01*
X164175297Y-109186246D01*
X164106575Y-109221260D01*
X164029552Y-109217223D01*
X163964868Y-109175215D01*
X163942839Y-109143161D01*
X163882232Y-109024212D01*
X163882230Y-109024208D01*
X163780416Y-108884075D01*
X163780414Y-108884072D01*
X163657928Y-108761586D01*
X163609402Y-108726330D01*
X163522319Y-108663060D01*
X163522317Y-108663058D01*
X163517795Y-108659772D01*
X163517789Y-108659769D01*
X163517788Y-108659768D01*
X163363445Y-108581127D01*
X163297774Y-108559789D01*
X163198700Y-108527597D01*
X163101086Y-108512137D01*
X163027611Y-108500500D01*
X162854389Y-108500500D01*
X162788037Y-108511009D01*
X162683299Y-108527597D01*
X162518561Y-108581125D01*
X162518555Y-108581127D01*
X162518549Y-108581129D01*
X162518549Y-108581130D01*
X162364206Y-108659771D01*
X162224075Y-108761583D01*
X162101583Y-108884075D01*
X161999771Y-109024206D01*
X161921130Y-109178549D01*
X161921125Y-109178561D01*
X161867597Y-109343299D01*
X161857349Y-109408007D01*
X161840500Y-109514389D01*
X161501500Y-109514389D01*
X161474402Y-109343299D01*
X161420873Y-109178555D01*
X161342232Y-109024212D01*
X161240414Y-108884072D01*
X161117928Y-108761586D01*
X161117924Y-108761583D01*
X160977793Y-108659771D01*
X160977790Y-108659769D01*
X160977788Y-108659768D01*
X160823445Y-108581127D01*
X160757774Y-108559789D01*
X160658700Y-108527597D01*
X160561086Y-108512137D01*
X160487611Y-108500500D01*
X160314389Y-108500500D01*
X160248037Y-108511009D01*
X160143299Y-108527597D01*
X159978561Y-108581125D01*
X159978555Y-108581127D01*
X159978549Y-108581129D01*
X159978549Y-108581130D01*
X159824206Y-108659771D01*
X159684075Y-108761583D01*
X159561583Y-108884075D01*
X159459771Y-109024206D01*
X159381130Y-109178549D01*
X159381125Y-109178561D01*
X159327597Y-109343299D01*
X159317349Y-109408007D01*
X159300500Y-109514389D01*
X159300500Y-109687611D01*
X159306284Y-109724127D01*
X159327597Y-109858700D01*
X159346582Y-109917128D01*
X159381127Y-110023445D01*
X159456605Y-110171579D01*
X159459771Y-110177793D01*
X159561583Y-110317924D01*
X159561586Y-110317928D01*
X159684072Y-110440414D01*
X159684075Y-110440416D01*
X159824208Y-110542230D01*
X159824212Y-110542232D01*
X159943161Y-110602839D01*
X160000478Y-110654446D01*
X160024312Y-110727799D01*
X160008276Y-110803242D01*
X159956668Y-110860560D01*
X159921562Y-110877305D01*
X159882774Y-110889908D01*
X159693444Y-110986378D01*
X159639282Y-111025728D01*
X159639282Y-111025729D01*
X160271590Y-111658037D01*
X160208007Y-111675075D01*
X160093993Y-111740901D01*
X160000901Y-111833993D01*
X159935075Y-111948007D01*
X159918037Y-112011590D01*
X159285728Y-111379282D01*
X159246378Y-111433444D01*
X159149908Y-111622774D01*
X159137305Y-111661562D01*
X159095297Y-111726246D01*
X159026575Y-111761260D01*
X158949552Y-111757223D01*
X158884868Y-111715215D01*
X158862839Y-111683161D01*
X158802232Y-111564212D01*
X158802230Y-111564208D01*
X158700416Y-111424075D01*
X158700414Y-111424072D01*
X158577928Y-111301586D01*
X158498668Y-111244000D01*
X158437793Y-111199771D01*
X158437790Y-111199769D01*
X158437788Y-111199768D01*
X158283445Y-111121127D01*
X158220030Y-111100522D01*
X158118700Y-111067597D01*
X158021086Y-111052137D01*
X157947611Y-111040500D01*
X157774389Y-111040500D01*
X157708050Y-111051007D01*
X157603299Y-111067597D01*
X157450859Y-111117129D01*
X157438555Y-111121127D01*
X157438549Y-111121129D01*
X157438549Y-111121130D01*
X157284206Y-111199771D01*
X157144075Y-111301583D01*
X157021583Y-111424075D01*
X156919771Y-111564206D01*
X156841130Y-111718549D01*
X156841125Y-111718561D01*
X156787597Y-111883299D01*
X156776845Y-111951190D01*
X156760500Y-112054389D01*
X156421500Y-112054389D01*
X156394402Y-111883299D01*
X156340873Y-111718555D01*
X156262232Y-111564212D01*
X156160414Y-111424072D01*
X156037928Y-111301586D01*
X155958668Y-111244000D01*
X155897793Y-111199771D01*
X155897790Y-111199769D01*
X155897788Y-111199768D01*
X155743445Y-111121127D01*
X155680030Y-111100522D01*
X155578700Y-111067597D01*
X155481086Y-111052137D01*
X155407611Y-111040500D01*
X155234389Y-111040500D01*
X155168050Y-111051007D01*
X155063299Y-111067597D01*
X154910859Y-111117129D01*
X154898555Y-111121127D01*
X154898549Y-111121129D01*
X154898549Y-111121130D01*
X154744206Y-111199771D01*
X154604075Y-111301583D01*
X154481583Y-111424075D01*
X154379771Y-111564206D01*
X154379768Y-111564212D01*
X154319162Y-111683160D01*
X154319161Y-111683161D01*
X154267552Y-111740478D01*
X154194199Y-111764312D01*
X154118756Y-111748276D01*
X154061439Y-111696667D01*
X154044693Y-111661559D01*
X154032091Y-111622773D01*
X153935621Y-111433444D01*
X153896270Y-111379282D01*
X153263962Y-112011590D01*
X153246925Y-111948007D01*
X153181099Y-111833993D01*
X153088007Y-111740901D01*
X152973993Y-111675075D01*
X152910407Y-111658037D01*
X153542716Y-111025729D01*
X153542716Y-111025728D01*
X153488555Y-110986378D01*
X153488555Y-110986377D01*
X153299223Y-110889907D01*
X153260438Y-110877305D01*
X153195753Y-110835297D01*
X153160739Y-110766575D01*
X153164776Y-110689553D01*
X153206784Y-110624868D01*
X153238827Y-110602844D01*
X153357788Y-110542232D01*
X153497928Y-110440414D01*
X153620414Y-110317928D01*
X153722232Y-110177788D01*
X153800873Y-110023445D01*
X153854402Y-109858701D01*
X153881500Y-109687611D01*
X153881500Y-109514389D01*
X154220500Y-109514389D01*
X154220500Y-109687611D01*
X154226284Y-109724127D01*
X154247597Y-109858700D01*
X154266582Y-109917128D01*
X154301127Y-110023445D01*
X154376605Y-110171579D01*
X154379771Y-110177793D01*
X154481583Y-110317924D01*
X154481586Y-110317928D01*
X154604072Y-110440414D01*
X154604075Y-110440416D01*
X154744203Y-110542226D01*
X154744212Y-110542232D01*
X154898555Y-110620873D01*
X155063299Y-110674402D01*
X155234389Y-110701500D01*
X155234393Y-110701500D01*
X155407607Y-110701500D01*
X155407611Y-110701500D01*
X155578701Y-110674402D01*
X155743445Y-110620873D01*
X155897788Y-110542232D01*
X156037928Y-110440414D01*
X156160414Y-110317928D01*
X156262232Y-110177788D01*
X156340873Y-110023445D01*
X156394402Y-109858701D01*
X156421500Y-109687611D01*
X156421500Y-109514389D01*
X156760500Y-109514389D01*
X156760500Y-109687611D01*
X156766284Y-109724127D01*
X156787597Y-109858700D01*
X156806582Y-109917128D01*
X156841127Y-110023445D01*
X156916605Y-110171579D01*
X156919771Y-110177793D01*
X157021583Y-110317924D01*
X157021586Y-110317928D01*
X157144072Y-110440414D01*
X157144075Y-110440416D01*
X157284203Y-110542226D01*
X157284212Y-110542232D01*
X157438555Y-110620873D01*
X157603299Y-110674402D01*
X157774389Y-110701500D01*
X157774393Y-110701500D01*
X157947607Y-110701500D01*
X157947611Y-110701500D01*
X158118701Y-110674402D01*
X158283445Y-110620873D01*
X158437788Y-110542232D01*
X158577928Y-110440414D01*
X158700414Y-110317928D01*
X158802232Y-110177788D01*
X158880873Y-110023445D01*
X158934402Y-109858701D01*
X158961500Y-109687611D01*
X158961500Y-109514389D01*
X158934402Y-109343299D01*
X158880873Y-109178555D01*
X158802232Y-109024212D01*
X158700414Y-108884072D01*
X158577928Y-108761586D01*
X158577924Y-108761583D01*
X158437793Y-108659771D01*
X158437790Y-108659769D01*
X158437788Y-108659768D01*
X158283445Y-108581127D01*
X158217774Y-108559789D01*
X158118700Y-108527597D01*
X158021086Y-108512137D01*
X157947611Y-108500500D01*
X157774389Y-108500500D01*
X157708037Y-108511009D01*
X157603299Y-108527597D01*
X157438561Y-108581125D01*
X157438555Y-108581127D01*
X157438549Y-108581129D01*
X157438549Y-108581130D01*
X157284206Y-108659771D01*
X157144075Y-108761583D01*
X157021583Y-108884075D01*
X156919771Y-109024206D01*
X156841130Y-109178549D01*
X156841125Y-109178561D01*
X156787597Y-109343299D01*
X156777349Y-109408007D01*
X156760500Y-109514389D01*
X156421500Y-109514389D01*
X156394402Y-109343299D01*
X156340873Y-109178555D01*
X156262232Y-109024212D01*
X156160414Y-108884072D01*
X156037928Y-108761586D01*
X156037924Y-108761583D01*
X155897793Y-108659771D01*
X155897790Y-108659769D01*
X155897788Y-108659768D01*
X155743445Y-108581127D01*
X155677774Y-108559789D01*
X155578700Y-108527597D01*
X155481086Y-108512137D01*
X155407611Y-108500500D01*
X155234389Y-108500500D01*
X155168037Y-108511009D01*
X155063299Y-108527597D01*
X154898561Y-108581125D01*
X154898555Y-108581127D01*
X154898549Y-108581129D01*
X154898549Y-108581130D01*
X154744206Y-108659771D01*
X154604075Y-108761583D01*
X154481583Y-108884075D01*
X154379771Y-109024206D01*
X154301130Y-109178549D01*
X154301125Y-109178561D01*
X154247597Y-109343299D01*
X154237349Y-109408007D01*
X154220500Y-109514389D01*
X153881500Y-109514389D01*
X153854402Y-109343299D01*
X153800873Y-109178555D01*
X153722232Y-109024212D01*
X153620414Y-108884072D01*
X153497928Y-108761586D01*
X153497924Y-108761583D01*
X153357793Y-108659771D01*
X153357790Y-108659769D01*
X153357788Y-108659768D01*
X153203445Y-108581127D01*
X153137774Y-108559789D01*
X153038700Y-108527597D01*
X152941086Y-108512137D01*
X152867611Y-108500500D01*
X152694389Y-108500500D01*
X152628037Y-108511009D01*
X152523299Y-108527597D01*
X152358561Y-108581125D01*
X152358555Y-108581127D01*
X152358549Y-108581129D01*
X152358549Y-108581130D01*
X152204206Y-108659771D01*
X152064075Y-108761583D01*
X151941583Y-108884075D01*
X151839771Y-109024206D01*
X151761130Y-109178549D01*
X151761125Y-109178561D01*
X151707597Y-109343299D01*
X151697349Y-109408007D01*
X151680500Y-109514389D01*
X151680500Y-109687611D01*
X151686284Y-109724127D01*
X151707597Y-109858700D01*
X151726582Y-109917128D01*
X151761127Y-110023445D01*
X151836605Y-110171579D01*
X151839771Y-110177793D01*
X151941583Y-110317924D01*
X151941586Y-110317928D01*
X152064072Y-110440414D01*
X152064075Y-110440416D01*
X152204208Y-110542230D01*
X152204212Y-110542232D01*
X152323161Y-110602839D01*
X152380478Y-110654446D01*
X152404312Y-110727799D01*
X152388276Y-110803242D01*
X152336668Y-110860560D01*
X152301562Y-110877305D01*
X152262774Y-110889908D01*
X152073444Y-110986378D01*
X152019282Y-111025728D01*
X152019282Y-111025729D01*
X152651590Y-111658037D01*
X152588007Y-111675075D01*
X152473993Y-111740901D01*
X152380901Y-111833993D01*
X152315075Y-111948007D01*
X152298037Y-112011590D01*
X151665729Y-111379282D01*
X151665728Y-111379282D01*
X151626378Y-111433444D01*
X151529908Y-111622774D01*
X151517305Y-111661562D01*
X151475297Y-111726246D01*
X151406575Y-111761260D01*
X151329552Y-111757223D01*
X151264868Y-111715215D01*
X151242839Y-111683161D01*
X151182232Y-111564212D01*
X151182230Y-111564208D01*
X151080416Y-111424075D01*
X151080414Y-111424072D01*
X150957928Y-111301586D01*
X150878668Y-111244000D01*
X150817793Y-111199771D01*
X150817790Y-111199769D01*
X150817788Y-111199768D01*
X150663445Y-111121127D01*
X150600030Y-111100522D01*
X150498700Y-111067597D01*
X150401086Y-111052137D01*
X150327611Y-111040500D01*
X150154389Y-111040500D01*
X150088050Y-111051007D01*
X149983299Y-111067597D01*
X149830859Y-111117129D01*
X149818555Y-111121127D01*
X149818549Y-111121129D01*
X149818549Y-111121130D01*
X149664206Y-111199771D01*
X149524075Y-111301583D01*
X149401583Y-111424075D01*
X149299771Y-111564206D01*
X149221130Y-111718549D01*
X149221125Y-111718561D01*
X149167597Y-111883299D01*
X149156845Y-111951190D01*
X149140500Y-112054389D01*
X149140500Y-112227611D01*
X149152137Y-112301086D01*
X149167597Y-112398700D01*
X149198742Y-112494553D01*
X149221127Y-112563445D01*
X149269929Y-112659224D01*
X149299771Y-112717793D01*
X149401583Y-112857924D01*
X149401586Y-112857928D01*
X149524072Y-112980414D01*
X149544091Y-112994959D01*
X149592627Y-113054896D01*
X149604693Y-113131074D01*
X149577053Y-113203080D01*
X149517113Y-113251618D01*
X149456509Y-113264500D01*
X148485491Y-113264500D01*
X148410991Y-113244538D01*
X148356453Y-113190000D01*
X148336491Y-113115500D01*
X148356453Y-113041000D01*
X148397907Y-112994959D01*
X148417928Y-112980414D01*
X148540414Y-112857928D01*
X148642232Y-112717788D01*
X148720873Y-112563445D01*
X148774402Y-112398701D01*
X148801500Y-112227611D01*
X148801500Y-112054389D01*
X148774402Y-111883299D01*
X148720873Y-111718555D01*
X148642232Y-111564212D01*
X148540414Y-111424072D01*
X148417928Y-111301586D01*
X148338668Y-111244000D01*
X148277793Y-111199771D01*
X148277790Y-111199769D01*
X148277788Y-111199768D01*
X148123445Y-111121127D01*
X148060030Y-111100522D01*
X147958700Y-111067597D01*
X147861086Y-111052137D01*
X147787611Y-111040500D01*
X147614389Y-111040500D01*
X147548050Y-111051007D01*
X147443299Y-111067597D01*
X147290859Y-111117129D01*
X147278555Y-111121127D01*
X147278549Y-111121129D01*
X147278549Y-111121130D01*
X147124206Y-111199771D01*
X146984075Y-111301583D01*
X146861583Y-111424075D01*
X146759771Y-111564206D01*
X146681130Y-111718549D01*
X146681125Y-111718561D01*
X146627597Y-111883299D01*
X146616845Y-111951190D01*
X146600500Y-112054389D01*
X146600500Y-112227611D01*
X146612137Y-112301086D01*
X146627597Y-112398700D01*
X146658742Y-112494553D01*
X146681127Y-112563445D01*
X146729929Y-112659224D01*
X146759771Y-112717793D01*
X146861583Y-112857924D01*
X146861586Y-112857928D01*
X146984072Y-112980414D01*
X147004091Y-112994959D01*
X147052627Y-113054896D01*
X147064693Y-113131074D01*
X147037053Y-113203080D01*
X146977113Y-113251618D01*
X146916509Y-113264500D01*
X145945491Y-113264500D01*
X145870991Y-113244538D01*
X145816453Y-113190000D01*
X145796491Y-113115500D01*
X145816453Y-113041000D01*
X145857907Y-112994959D01*
X145877928Y-112980414D01*
X146000414Y-112857928D01*
X146102232Y-112717788D01*
X146180873Y-112563445D01*
X146234402Y-112398701D01*
X146261500Y-112227611D01*
X146261500Y-112054389D01*
X146234402Y-111883299D01*
X146180873Y-111718555D01*
X146102232Y-111564212D01*
X146000414Y-111424072D01*
X145877928Y-111301586D01*
X145751768Y-111209925D01*
X145737790Y-111199769D01*
X145618839Y-111139161D01*
X145561521Y-111087552D01*
X145537687Y-111014199D01*
X145553723Y-110938757D01*
X145605332Y-110881439D01*
X145640441Y-110864693D01*
X145679224Y-110852091D01*
X145868555Y-110755622D01*
X145868557Y-110755620D01*
X145922716Y-110716270D01*
X145922716Y-110716269D01*
X145290409Y-110083962D01*
X145353993Y-110066925D01*
X145468007Y-110001099D01*
X145561099Y-109908007D01*
X145626925Y-109793993D01*
X145643962Y-109730409D01*
X146276269Y-110362716D01*
X146276270Y-110362716D01*
X146315620Y-110308557D01*
X146315622Y-110308555D01*
X146412091Y-110119224D01*
X146424693Y-110080441D01*
X146466699Y-110015756D01*
X146535421Y-109980739D01*
X146612443Y-109984775D01*
X146677128Y-110026781D01*
X146699161Y-110058839D01*
X146759769Y-110177790D01*
X146861583Y-110317924D01*
X146861586Y-110317928D01*
X146984072Y-110440414D01*
X146984075Y-110440416D01*
X147124203Y-110542226D01*
X147124212Y-110542232D01*
X147278555Y-110620873D01*
X147443299Y-110674402D01*
X147614389Y-110701500D01*
X147614393Y-110701500D01*
X147787607Y-110701500D01*
X147787611Y-110701500D01*
X147958701Y-110674402D01*
X148123445Y-110620873D01*
X148277788Y-110542232D01*
X148417928Y-110440414D01*
X148540414Y-110317928D01*
X148642232Y-110177788D01*
X148720873Y-110023445D01*
X148774402Y-109858701D01*
X148801500Y-109687611D01*
X148801500Y-109514389D01*
X149140500Y-109514389D01*
X149140500Y-109687611D01*
X149146284Y-109724127D01*
X149167597Y-109858700D01*
X149186582Y-109917128D01*
X149221127Y-110023445D01*
X149296605Y-110171579D01*
X149299771Y-110177793D01*
X149401583Y-110317924D01*
X149401586Y-110317928D01*
X149524072Y-110440414D01*
X149524075Y-110440416D01*
X149664203Y-110542226D01*
X149664212Y-110542232D01*
X149818555Y-110620873D01*
X149983299Y-110674402D01*
X150154389Y-110701500D01*
X150154393Y-110701500D01*
X150327607Y-110701500D01*
X150327611Y-110701500D01*
X150498701Y-110674402D01*
X150663445Y-110620873D01*
X150817788Y-110542232D01*
X150957928Y-110440414D01*
X151080414Y-110317928D01*
X151182232Y-110177788D01*
X151260873Y-110023445D01*
X151314402Y-109858701D01*
X151341500Y-109687611D01*
X151341500Y-109514389D01*
X151314402Y-109343299D01*
X151260873Y-109178555D01*
X151182232Y-109024212D01*
X151080414Y-108884072D01*
X150957928Y-108761586D01*
X150957924Y-108761583D01*
X150817793Y-108659771D01*
X150817790Y-108659769D01*
X150817788Y-108659768D01*
X150663445Y-108581127D01*
X150597774Y-108559789D01*
X150498700Y-108527597D01*
X150401086Y-108512137D01*
X150327611Y-108500500D01*
X150154389Y-108500500D01*
X150088037Y-108511009D01*
X149983299Y-108527597D01*
X149818561Y-108581125D01*
X149818555Y-108581127D01*
X149818549Y-108581129D01*
X149818549Y-108581130D01*
X149664206Y-108659771D01*
X149524075Y-108761583D01*
X149401583Y-108884075D01*
X149299771Y-109024206D01*
X149221130Y-109178549D01*
X149221125Y-109178561D01*
X149167597Y-109343299D01*
X149157349Y-109408007D01*
X149140500Y-109514389D01*
X148801500Y-109514389D01*
X148774402Y-109343299D01*
X148720873Y-109178555D01*
X148642232Y-109024212D01*
X148540414Y-108884072D01*
X148417928Y-108761586D01*
X148417924Y-108761583D01*
X148277793Y-108659771D01*
X148277790Y-108659769D01*
X148277788Y-108659768D01*
X148123445Y-108581127D01*
X148057774Y-108559789D01*
X147958700Y-108527597D01*
X147861086Y-108512137D01*
X147787611Y-108500500D01*
X147614389Y-108500500D01*
X147548037Y-108511009D01*
X147443299Y-108527597D01*
X147278561Y-108581125D01*
X147278555Y-108581127D01*
X147278549Y-108581129D01*
X147278549Y-108581130D01*
X147124206Y-108659771D01*
X146984075Y-108761583D01*
X146861583Y-108884075D01*
X146759771Y-109024206D01*
X146759768Y-109024212D01*
X146699162Y-109143160D01*
X146699161Y-109143161D01*
X146647552Y-109200478D01*
X146574199Y-109224312D01*
X146498756Y-109208276D01*
X146441439Y-109156667D01*
X146424693Y-109121559D01*
X146412091Y-109082773D01*
X146315621Y-108893444D01*
X146276270Y-108839282D01*
X145643962Y-109471589D01*
X145626925Y-109408007D01*
X145561099Y-109293993D01*
X145468007Y-109200901D01*
X145353993Y-109135075D01*
X145290407Y-109118037D01*
X145922716Y-108485729D01*
X145922716Y-108485728D01*
X145868555Y-108446378D01*
X145868555Y-108446377D01*
X145679220Y-108349906D01*
X145477128Y-108284242D01*
X145267242Y-108251000D01*
X145054758Y-108251000D01*
X144844871Y-108284242D01*
X144642779Y-108349906D01*
X144453444Y-108446378D01*
X144399282Y-108485728D01*
X144399282Y-108485729D01*
X145031590Y-109118037D01*
X144968007Y-109135075D01*
X144853993Y-109200901D01*
X144760901Y-109293993D01*
X144695075Y-109408007D01*
X144678037Y-109471590D01*
X144045728Y-108839282D01*
X144006378Y-108893444D01*
X143909908Y-109082774D01*
X143897305Y-109121562D01*
X143855297Y-109186246D01*
X143786575Y-109221260D01*
X143709552Y-109217223D01*
X143644868Y-109175215D01*
X143622839Y-109143161D01*
X143562232Y-109024212D01*
X143562230Y-109024208D01*
X143460416Y-108884075D01*
X143460414Y-108884072D01*
X143337928Y-108761586D01*
X143289402Y-108726330D01*
X143202319Y-108663060D01*
X143202317Y-108663058D01*
X143197795Y-108659772D01*
X143197789Y-108659769D01*
X143197788Y-108659768D01*
X143043445Y-108581127D01*
X142977774Y-108559789D01*
X142878700Y-108527597D01*
X142781086Y-108512137D01*
X142707611Y-108500500D01*
X142534389Y-108500500D01*
X142468037Y-108511009D01*
X142363299Y-108527597D01*
X142198561Y-108581125D01*
X142198555Y-108581127D01*
X142198549Y-108581129D01*
X142198549Y-108581130D01*
X142044206Y-108659771D01*
X141904075Y-108761583D01*
X141781583Y-108884075D01*
X141679771Y-109024206D01*
X141601130Y-109178549D01*
X141601125Y-109178561D01*
X141547597Y-109343299D01*
X141537349Y-109408007D01*
X141520500Y-109514389D01*
X141520500Y-109687611D01*
X141526284Y-109724127D01*
X141547597Y-109858700D01*
X141566582Y-109917128D01*
X141601127Y-110023445D01*
X141676605Y-110171579D01*
X141679771Y-110177793D01*
X141781583Y-110317924D01*
X141781586Y-110317928D01*
X141904072Y-110440414D01*
X141904075Y-110440416D01*
X142044203Y-110542226D01*
X142044212Y-110542232D01*
X142198555Y-110620873D01*
X142363299Y-110674402D01*
X142534389Y-110701500D01*
X142534393Y-110701500D01*
X142707607Y-110701500D01*
X142707611Y-110701500D01*
X142878701Y-110674402D01*
X143043445Y-110620873D01*
X143197788Y-110542232D01*
X143337928Y-110440414D01*
X143460414Y-110317928D01*
X143562232Y-110177788D01*
X143622841Y-110058833D01*
X143674446Y-110001522D01*
X143747799Y-109977687D01*
X143823242Y-109993722D01*
X143880559Y-110045331D01*
X143897305Y-110080438D01*
X143909907Y-110119223D01*
X144006378Y-110308555D01*
X144045728Y-110362716D01*
X144045729Y-110362716D01*
X144678037Y-109730408D01*
X144695075Y-109793993D01*
X144760901Y-109908007D01*
X144853993Y-110001099D01*
X144968007Y-110066925D01*
X145031590Y-110083962D01*
X144399282Y-110716270D01*
X144453444Y-110755621D01*
X144453444Y-110755622D01*
X144642773Y-110852091D01*
X144681559Y-110864693D01*
X144746244Y-110906700D01*
X144781260Y-110975422D01*
X144777224Y-111052444D01*
X144735217Y-111117129D01*
X144703161Y-111139161D01*
X144584206Y-111199771D01*
X144444075Y-111301583D01*
X144321583Y-111424075D01*
X144219771Y-111564206D01*
X144141130Y-111718549D01*
X144141125Y-111718561D01*
X144087597Y-111883299D01*
X144076845Y-111951190D01*
X144060500Y-112054389D01*
X144060500Y-112227611D01*
X144072137Y-112301086D01*
X144087597Y-112398700D01*
X144118742Y-112494553D01*
X144141127Y-112563445D01*
X144189929Y-112659224D01*
X144219771Y-112717793D01*
X144321583Y-112857924D01*
X144321586Y-112857928D01*
X144444072Y-112980414D01*
X144464091Y-112994959D01*
X144512627Y-113054896D01*
X144524693Y-113131074D01*
X144497053Y-113203080D01*
X144437113Y-113251618D01*
X144376509Y-113264500D01*
X143405491Y-113264500D01*
X143330991Y-113244538D01*
X143276453Y-113190000D01*
X143256491Y-113115500D01*
X143276453Y-113041000D01*
X143317907Y-112994959D01*
X143337928Y-112980414D01*
X143460414Y-112857928D01*
X143562232Y-112717788D01*
X143640873Y-112563445D01*
X143694402Y-112398701D01*
X143721500Y-112227611D01*
X143721500Y-112054389D01*
X143694402Y-111883299D01*
X143640873Y-111718555D01*
X143562232Y-111564212D01*
X143460414Y-111424072D01*
X143337928Y-111301586D01*
X143258668Y-111244000D01*
X143197793Y-111199771D01*
X143197790Y-111199769D01*
X143197788Y-111199768D01*
X143043445Y-111121127D01*
X142980030Y-111100522D01*
X142878700Y-111067597D01*
X142781086Y-111052137D01*
X142707611Y-111040500D01*
X142534389Y-111040500D01*
X142468050Y-111051007D01*
X142363299Y-111067597D01*
X142210859Y-111117129D01*
X142198555Y-111121127D01*
X142198549Y-111121129D01*
X142198549Y-111121130D01*
X142044206Y-111199771D01*
X141904075Y-111301583D01*
X141781583Y-111424075D01*
X141679771Y-111564206D01*
X141679768Y-111564212D01*
X141619162Y-111683160D01*
X141619161Y-111683161D01*
X141567552Y-111740478D01*
X141494199Y-111764312D01*
X141418756Y-111748276D01*
X141361439Y-111696667D01*
X141344693Y-111661559D01*
X141332091Y-111622773D01*
X141235621Y-111433444D01*
X141196270Y-111379282D01*
X140563962Y-112011589D01*
X140546925Y-111948007D01*
X140481099Y-111833993D01*
X140388007Y-111740901D01*
X140273993Y-111675075D01*
X140210407Y-111658037D01*
X140842716Y-111025729D01*
X140842716Y-111025728D01*
X140788555Y-110986378D01*
X140788555Y-110986377D01*
X140599223Y-110889907D01*
X140560438Y-110877305D01*
X140495753Y-110835297D01*
X140460739Y-110766575D01*
X140464776Y-110689553D01*
X140506784Y-110624868D01*
X140538827Y-110602844D01*
X140657788Y-110542232D01*
X140797928Y-110440414D01*
X140920414Y-110317928D01*
X141022232Y-110177788D01*
X141100873Y-110023445D01*
X141154402Y-109858701D01*
X141181500Y-109687611D01*
X141181500Y-109514389D01*
X141154402Y-109343299D01*
X141100873Y-109178555D01*
X141022232Y-109024212D01*
X140920414Y-108884072D01*
X140797928Y-108761586D01*
X140797924Y-108761583D01*
X140657793Y-108659771D01*
X140657790Y-108659769D01*
X140657788Y-108659768D01*
X140503445Y-108581127D01*
X140437774Y-108559789D01*
X140338700Y-108527597D01*
X140241086Y-108512137D01*
X140167611Y-108500500D01*
X139994389Y-108500500D01*
X139928037Y-108511009D01*
X139823299Y-108527597D01*
X139658561Y-108581125D01*
X139658555Y-108581127D01*
X139658549Y-108581129D01*
X139658549Y-108581130D01*
X139504206Y-108659771D01*
X139364075Y-108761583D01*
X139241583Y-108884075D01*
X139139771Y-109024206D01*
X139061130Y-109178549D01*
X139061125Y-109178561D01*
X139007597Y-109343299D01*
X138997349Y-109408007D01*
X138980500Y-109514389D01*
X138980500Y-109687611D01*
X138986284Y-109724127D01*
X139007597Y-109858700D01*
X139026582Y-109917128D01*
X139061127Y-110023445D01*
X139136605Y-110171579D01*
X139139771Y-110177793D01*
X139241583Y-110317924D01*
X139241586Y-110317928D01*
X139364072Y-110440414D01*
X139364075Y-110440416D01*
X139504208Y-110542230D01*
X139504212Y-110542232D01*
X139623161Y-110602839D01*
X139680478Y-110654446D01*
X139704312Y-110727799D01*
X139688276Y-110803242D01*
X139636668Y-110860560D01*
X139601562Y-110877305D01*
X139562774Y-110889908D01*
X139373444Y-110986378D01*
X139319282Y-111025728D01*
X139319282Y-111025729D01*
X139951590Y-111658037D01*
X139888007Y-111675075D01*
X139773993Y-111740901D01*
X139680901Y-111833993D01*
X139615075Y-111948007D01*
X139598037Y-112011590D01*
X138965729Y-111379282D01*
X138965728Y-111379282D01*
X138926378Y-111433444D01*
X138829908Y-111622774D01*
X138817305Y-111661562D01*
X138775297Y-111726246D01*
X138706575Y-111761260D01*
X138629552Y-111757223D01*
X138564868Y-111715215D01*
X138542839Y-111683161D01*
X138482232Y-111564212D01*
X138482230Y-111564208D01*
X138380416Y-111424075D01*
X138380414Y-111424072D01*
X138257928Y-111301586D01*
X138178668Y-111244000D01*
X138117793Y-111199771D01*
X138117790Y-111199769D01*
X138117788Y-111199768D01*
X137963445Y-111121127D01*
X137900030Y-111100522D01*
X137798700Y-111067597D01*
X137701086Y-111052137D01*
X137627611Y-111040500D01*
X137454389Y-111040500D01*
X137388050Y-111051007D01*
X137283299Y-111067597D01*
X137130859Y-111117129D01*
X137118555Y-111121127D01*
X137118549Y-111121129D01*
X137118549Y-111121130D01*
X136964206Y-111199771D01*
X136824075Y-111301583D01*
X136701583Y-111424075D01*
X136599771Y-111564206D01*
X136599768Y-111564212D01*
X136539162Y-111683160D01*
X136539161Y-111683161D01*
X136487552Y-111740478D01*
X136414199Y-111764312D01*
X136338756Y-111748276D01*
X136281439Y-111696667D01*
X136264693Y-111661559D01*
X136252091Y-111622773D01*
X136155621Y-111433444D01*
X136116270Y-111379282D01*
X135483962Y-112011589D01*
X135466925Y-111948007D01*
X135401099Y-111833993D01*
X135308007Y-111740901D01*
X135193993Y-111675075D01*
X135130407Y-111658037D01*
X135762716Y-111025729D01*
X135762716Y-111025728D01*
X135708555Y-110986378D01*
X135708555Y-110986377D01*
X135519223Y-110889907D01*
X135480438Y-110877305D01*
X135415753Y-110835297D01*
X135380739Y-110766575D01*
X135384776Y-110689553D01*
X135426784Y-110624868D01*
X135458827Y-110602844D01*
X135577788Y-110542232D01*
X135717928Y-110440414D01*
X135840414Y-110317928D01*
X135942232Y-110177788D01*
X136020873Y-110023445D01*
X136074402Y-109858701D01*
X136101500Y-109687611D01*
X136101500Y-109514389D01*
X136440500Y-109514389D01*
X136440500Y-109687611D01*
X136446284Y-109724127D01*
X136467597Y-109858700D01*
X136486582Y-109917128D01*
X136521127Y-110023445D01*
X136596605Y-110171579D01*
X136599771Y-110177793D01*
X136701583Y-110317924D01*
X136701586Y-110317928D01*
X136824072Y-110440414D01*
X136824075Y-110440416D01*
X136964203Y-110542226D01*
X136964212Y-110542232D01*
X137118555Y-110620873D01*
X137283299Y-110674402D01*
X137454389Y-110701500D01*
X137454393Y-110701500D01*
X137627607Y-110701500D01*
X137627611Y-110701500D01*
X137798701Y-110674402D01*
X137963445Y-110620873D01*
X138117788Y-110542232D01*
X138257928Y-110440414D01*
X138380414Y-110317928D01*
X138482232Y-110177788D01*
X138560873Y-110023445D01*
X138614402Y-109858701D01*
X138641500Y-109687611D01*
X138641500Y-109514389D01*
X138614402Y-109343299D01*
X138560873Y-109178555D01*
X138482232Y-109024212D01*
X138380414Y-108884072D01*
X138257928Y-108761586D01*
X138257924Y-108761583D01*
X138117793Y-108659771D01*
X138117790Y-108659769D01*
X138117788Y-108659768D01*
X137963445Y-108581127D01*
X137897774Y-108559789D01*
X137798700Y-108527597D01*
X137701086Y-108512137D01*
X137627611Y-108500500D01*
X137454389Y-108500500D01*
X137388037Y-108511009D01*
X137283299Y-108527597D01*
X137118561Y-108581125D01*
X137118555Y-108581127D01*
X137118549Y-108581129D01*
X137118549Y-108581130D01*
X136964206Y-108659771D01*
X136824075Y-108761583D01*
X136701583Y-108884075D01*
X136599771Y-109024206D01*
X136521130Y-109178549D01*
X136521125Y-109178561D01*
X136467597Y-109343299D01*
X136457349Y-109408007D01*
X136440500Y-109514389D01*
X136101500Y-109514389D01*
X136074402Y-109343299D01*
X136020873Y-109178555D01*
X135942232Y-109024212D01*
X135840414Y-108884072D01*
X135717928Y-108761586D01*
X135717924Y-108761583D01*
X135577793Y-108659771D01*
X135577790Y-108659769D01*
X135577788Y-108659768D01*
X135423445Y-108581127D01*
X135357774Y-108559789D01*
X135258700Y-108527597D01*
X135161086Y-108512137D01*
X135087611Y-108500500D01*
X134914389Y-108500500D01*
X134848037Y-108511009D01*
X134743299Y-108527597D01*
X134578561Y-108581125D01*
X134578555Y-108581127D01*
X134578549Y-108581129D01*
X134578549Y-108581130D01*
X134424206Y-108659771D01*
X134284075Y-108761583D01*
X134161583Y-108884075D01*
X134059771Y-109024206D01*
X133981130Y-109178549D01*
X133981125Y-109178561D01*
X133927597Y-109343299D01*
X133917349Y-109408007D01*
X133900500Y-109514389D01*
X133900500Y-109687611D01*
X133906284Y-109724127D01*
X133927597Y-109858700D01*
X133946582Y-109917128D01*
X133981127Y-110023445D01*
X134056605Y-110171579D01*
X134059771Y-110177793D01*
X134161583Y-110317924D01*
X134161586Y-110317928D01*
X134284072Y-110440414D01*
X134284075Y-110440416D01*
X134424208Y-110542230D01*
X134424212Y-110542232D01*
X134543161Y-110602839D01*
X134600478Y-110654446D01*
X134624312Y-110727799D01*
X134608276Y-110803242D01*
X134556668Y-110860560D01*
X134521562Y-110877305D01*
X134482774Y-110889908D01*
X134293444Y-110986378D01*
X134239282Y-111025728D01*
X134239282Y-111025729D01*
X134871590Y-111658037D01*
X134808007Y-111675075D01*
X134693993Y-111740901D01*
X134600901Y-111833993D01*
X134535075Y-111948007D01*
X134518037Y-112011590D01*
X133885729Y-111379282D01*
X133885728Y-111379282D01*
X133846378Y-111433444D01*
X133749908Y-111622774D01*
X133737305Y-111661562D01*
X133695297Y-111726246D01*
X133626575Y-111761260D01*
X133549552Y-111757223D01*
X133484868Y-111715215D01*
X133462839Y-111683161D01*
X133402232Y-111564212D01*
X133402230Y-111564208D01*
X133300416Y-111424075D01*
X133300414Y-111424072D01*
X133177928Y-111301586D01*
X133098668Y-111244000D01*
X133037793Y-111199771D01*
X133037790Y-111199769D01*
X133037788Y-111199768D01*
X132883445Y-111121127D01*
X132820030Y-111100522D01*
X132718700Y-111067597D01*
X132621086Y-111052137D01*
X132547611Y-111040500D01*
X132374389Y-111040500D01*
X132308050Y-111051007D01*
X132203299Y-111067597D01*
X132050859Y-111117129D01*
X132038555Y-111121127D01*
X132038549Y-111121129D01*
X132038549Y-111121130D01*
X131884206Y-111199771D01*
X131744075Y-111301583D01*
X131621583Y-111424075D01*
X131519771Y-111564206D01*
X131441130Y-111718549D01*
X131441125Y-111718561D01*
X131387597Y-111883299D01*
X131376845Y-111951190D01*
X131360500Y-112054389D01*
X131360500Y-112227611D01*
X131372137Y-112301086D01*
X131387597Y-112398700D01*
X131418742Y-112494553D01*
X131441127Y-112563445D01*
X131489929Y-112659224D01*
X131519771Y-112717793D01*
X131621583Y-112857924D01*
X131621586Y-112857928D01*
X131744072Y-112980414D01*
X131764091Y-112994959D01*
X131812627Y-113054896D01*
X131824693Y-113131074D01*
X131797053Y-113203080D01*
X131737113Y-113251618D01*
X131676509Y-113264500D01*
X130705491Y-113264500D01*
X130630991Y-113244538D01*
X130576453Y-113190000D01*
X130556491Y-113115500D01*
X130576453Y-113041000D01*
X130617907Y-112994959D01*
X130637928Y-112980414D01*
X130760414Y-112857928D01*
X130862232Y-112717788D01*
X130940873Y-112563445D01*
X130994402Y-112398701D01*
X131021500Y-112227611D01*
X131021500Y-112054389D01*
X130994402Y-111883299D01*
X130940873Y-111718555D01*
X130862232Y-111564212D01*
X130760414Y-111424072D01*
X130637928Y-111301586D01*
X130558668Y-111244000D01*
X130497793Y-111199771D01*
X130497790Y-111199769D01*
X130497788Y-111199768D01*
X130343445Y-111121127D01*
X130280030Y-111100522D01*
X130178700Y-111067597D01*
X130081086Y-111052137D01*
X130007611Y-111040500D01*
X129834389Y-111040500D01*
X129768050Y-111051007D01*
X129663299Y-111067597D01*
X129510859Y-111117129D01*
X129498555Y-111121127D01*
X129498549Y-111121129D01*
X129498549Y-111121130D01*
X129344206Y-111199771D01*
X129204075Y-111301583D01*
X129081583Y-111424075D01*
X128979771Y-111564206D01*
X128901130Y-111718549D01*
X128901125Y-111718561D01*
X128847597Y-111883299D01*
X128836845Y-111951190D01*
X128820500Y-112054389D01*
X128820500Y-112227611D01*
X128832137Y-112301086D01*
X128847597Y-112398700D01*
X128878742Y-112494553D01*
X128901127Y-112563445D01*
X128949929Y-112659224D01*
X128979771Y-112717793D01*
X129081583Y-112857924D01*
X129081586Y-112857928D01*
X129204072Y-112980414D01*
X129224091Y-112994959D01*
X129272627Y-113054896D01*
X129284693Y-113131074D01*
X129257053Y-113203080D01*
X129197113Y-113251618D01*
X129136509Y-113264500D01*
X128165491Y-113264500D01*
X128090991Y-113244538D01*
X128036453Y-113190000D01*
X128016491Y-113115500D01*
X128036453Y-113041000D01*
X128077907Y-112994959D01*
X128097928Y-112980414D01*
X128220414Y-112857928D01*
X128322232Y-112717788D01*
X128400873Y-112563445D01*
X128454402Y-112398701D01*
X128481500Y-112227611D01*
X128481500Y-112054389D01*
X128454402Y-111883299D01*
X128400873Y-111718555D01*
X128322232Y-111564212D01*
X128220414Y-111424072D01*
X128097928Y-111301586D01*
X127971768Y-111209925D01*
X127957790Y-111199769D01*
X127838839Y-111139161D01*
X127781521Y-111087552D01*
X127757687Y-111014199D01*
X127773723Y-110938757D01*
X127825332Y-110881439D01*
X127860441Y-110864693D01*
X127899224Y-110852091D01*
X128088555Y-110755622D01*
X128088557Y-110755620D01*
X128142716Y-110716270D01*
X128142716Y-110716269D01*
X127510409Y-110083962D01*
X127573993Y-110066925D01*
X127688007Y-110001099D01*
X127781099Y-109908007D01*
X127846925Y-109793993D01*
X127863962Y-109730409D01*
X128496269Y-110362716D01*
X128496270Y-110362716D01*
X128535620Y-110308557D01*
X128535622Y-110308555D01*
X128632091Y-110119224D01*
X128644693Y-110080441D01*
X128686699Y-110015756D01*
X128755421Y-109980739D01*
X128832443Y-109984775D01*
X128897128Y-110026781D01*
X128919161Y-110058839D01*
X128979769Y-110177790D01*
X129081583Y-110317924D01*
X129081586Y-110317928D01*
X129204072Y-110440414D01*
X129204075Y-110440416D01*
X129344203Y-110542226D01*
X129344212Y-110542232D01*
X129498555Y-110620873D01*
X129663299Y-110674402D01*
X129834389Y-110701500D01*
X129834393Y-110701500D01*
X130007607Y-110701500D01*
X130007611Y-110701500D01*
X130178701Y-110674402D01*
X130343445Y-110620873D01*
X130497788Y-110542232D01*
X130637928Y-110440414D01*
X130760414Y-110317928D01*
X130862232Y-110177788D01*
X130940873Y-110023445D01*
X130994402Y-109858701D01*
X131021500Y-109687611D01*
X131021500Y-109514389D01*
X131360500Y-109514389D01*
X131360500Y-109687611D01*
X131366284Y-109724127D01*
X131387597Y-109858700D01*
X131406582Y-109917128D01*
X131441127Y-110023445D01*
X131516605Y-110171579D01*
X131519771Y-110177793D01*
X131621583Y-110317924D01*
X131621586Y-110317928D01*
X131744072Y-110440414D01*
X131744075Y-110440416D01*
X131884203Y-110542226D01*
X131884212Y-110542232D01*
X132038555Y-110620873D01*
X132203299Y-110674402D01*
X132374389Y-110701500D01*
X132374393Y-110701500D01*
X132547607Y-110701500D01*
X132547611Y-110701500D01*
X132718701Y-110674402D01*
X132883445Y-110620873D01*
X133037788Y-110542232D01*
X133177928Y-110440414D01*
X133300414Y-110317928D01*
X133402232Y-110177788D01*
X133480873Y-110023445D01*
X133534402Y-109858701D01*
X133561500Y-109687611D01*
X133561500Y-109514389D01*
X133534402Y-109343299D01*
X133480873Y-109178555D01*
X133402232Y-109024212D01*
X133300414Y-108884072D01*
X133177928Y-108761586D01*
X133177924Y-108761583D01*
X133037793Y-108659771D01*
X133037790Y-108659769D01*
X133037788Y-108659768D01*
X132883445Y-108581127D01*
X132817774Y-108559789D01*
X132718700Y-108527597D01*
X132621086Y-108512137D01*
X132547611Y-108500500D01*
X132374389Y-108500500D01*
X132308037Y-108511009D01*
X132203299Y-108527597D01*
X132038561Y-108581125D01*
X132038555Y-108581127D01*
X132038549Y-108581129D01*
X132038549Y-108581130D01*
X131884206Y-108659771D01*
X131744075Y-108761583D01*
X131621583Y-108884075D01*
X131519771Y-109024206D01*
X131441130Y-109178549D01*
X131441125Y-109178561D01*
X131387597Y-109343299D01*
X131377349Y-109408007D01*
X131360500Y-109514389D01*
X131021500Y-109514389D01*
X130994402Y-109343299D01*
X130940873Y-109178555D01*
X130862232Y-109024212D01*
X130760414Y-108884072D01*
X130637928Y-108761586D01*
X130637924Y-108761583D01*
X130497793Y-108659771D01*
X130497790Y-108659769D01*
X130497788Y-108659768D01*
X130343445Y-108581127D01*
X130277774Y-108559789D01*
X130178700Y-108527597D01*
X130081086Y-108512137D01*
X130007611Y-108500500D01*
X129834389Y-108500500D01*
X129768037Y-108511009D01*
X129663299Y-108527597D01*
X129498561Y-108581125D01*
X129498555Y-108581127D01*
X129498549Y-108581129D01*
X129498549Y-108581130D01*
X129344206Y-108659771D01*
X129204075Y-108761583D01*
X129081583Y-108884075D01*
X128979771Y-109024206D01*
X128979768Y-109024212D01*
X128919162Y-109143160D01*
X128919161Y-109143161D01*
X128867552Y-109200478D01*
X128794199Y-109224312D01*
X128718756Y-109208276D01*
X128661439Y-109156667D01*
X128644693Y-109121559D01*
X128632091Y-109082773D01*
X128535621Y-108893444D01*
X128496270Y-108839282D01*
X127863962Y-109471589D01*
X127846925Y-109408007D01*
X127781099Y-109293993D01*
X127688007Y-109200901D01*
X127573993Y-109135075D01*
X127510407Y-109118037D01*
X128142716Y-108485729D01*
X128142716Y-108485728D01*
X128088555Y-108446378D01*
X128088555Y-108446377D01*
X127899220Y-108349906D01*
X127697128Y-108284242D01*
X127487242Y-108251000D01*
X127274758Y-108251000D01*
X127064871Y-108284242D01*
X126862779Y-108349906D01*
X126673444Y-108446378D01*
X126619282Y-108485728D01*
X126619282Y-108485729D01*
X127251590Y-109118037D01*
X127188007Y-109135075D01*
X127073993Y-109200901D01*
X126980901Y-109293993D01*
X126915075Y-109408007D01*
X126898037Y-109471590D01*
X126265729Y-108839282D01*
X126265728Y-108839282D01*
X126226378Y-108893444D01*
X126129906Y-109082779D01*
X126064242Y-109284871D01*
X126031000Y-109494757D01*
X126031000Y-109707242D01*
X126064242Y-109917128D01*
X126129906Y-110119220D01*
X126226378Y-110308555D01*
X126265728Y-110362716D01*
X126265729Y-110362716D01*
X126898037Y-109730408D01*
X126915075Y-109793993D01*
X126980901Y-109908007D01*
X127073993Y-110001099D01*
X127188007Y-110066925D01*
X127251590Y-110083962D01*
X126619282Y-110716270D01*
X126673444Y-110755621D01*
X126673444Y-110755622D01*
X126862773Y-110852091D01*
X126901559Y-110864693D01*
X126966244Y-110906700D01*
X127001260Y-110975422D01*
X126997224Y-111052444D01*
X126955217Y-111117129D01*
X126923161Y-111139161D01*
X126804206Y-111199771D01*
X126664075Y-111301583D01*
X126541583Y-111424075D01*
X126439771Y-111564206D01*
X126361130Y-111718549D01*
X126361125Y-111718561D01*
X126307597Y-111883299D01*
X126296845Y-111951190D01*
X126280500Y-112054389D01*
X126280500Y-112227611D01*
X126292137Y-112301086D01*
X126307597Y-112398700D01*
X126338742Y-112494553D01*
X126361127Y-112563445D01*
X126409929Y-112659224D01*
X126439771Y-112717793D01*
X126541583Y-112857924D01*
X126541586Y-112857928D01*
X126664072Y-112980414D01*
X126684091Y-112994959D01*
X126732627Y-113054896D01*
X126744693Y-113131074D01*
X126717053Y-113203080D01*
X126657113Y-113251618D01*
X126596509Y-113264500D01*
X125390500Y-113264500D01*
X125316000Y-113244538D01*
X125261462Y-113190000D01*
X125241500Y-113115500D01*
X125241500Y-102081611D01*
X125261462Y-102007111D01*
X125285141Y-101976252D01*
X125852252Y-101409141D01*
X125919047Y-101370577D01*
X125957611Y-101365500D01*
X129392838Y-101365500D01*
X129467338Y-101385462D01*
X129521876Y-101440000D01*
X129532440Y-101462421D01*
X129535204Y-101469831D01*
X129535206Y-101469833D01*
X129535207Y-101469836D01*
X129621452Y-101585044D01*
X129621455Y-101585047D01*
X129736666Y-101671295D01*
X129736670Y-101671297D01*
X129871517Y-101721591D01*
X129931114Y-101727999D01*
X129931118Y-101727999D01*
X129931127Y-101728000D01*
X130926872Y-101727999D01*
X130986483Y-101721591D01*
X131092635Y-101681999D01*
X131121329Y-101671297D01*
X131121333Y-101671295D01*
X131205759Y-101608093D01*
X131236546Y-101585046D01*
X131308696Y-101488666D01*
X131322795Y-101469833D01*
X131322797Y-101469829D01*
X131346246Y-101406957D01*
X131373091Y-101334983D01*
X131377192Y-101296837D01*
X131379499Y-101275385D01*
X131379499Y-101275382D01*
X131379500Y-101275373D01*
X131379499Y-100654628D01*
X131373091Y-100595017D01*
X131355458Y-100547740D01*
X131322797Y-100460170D01*
X131322795Y-100460166D01*
X131236547Y-100344955D01*
X131236544Y-100344952D01*
X131121333Y-100258704D01*
X131121329Y-100258702D01*
X130986482Y-100208408D01*
X130926876Y-100202000D01*
X129931136Y-100202000D01*
X129931111Y-100202002D01*
X129871521Y-100208408D01*
X129871515Y-100208409D01*
X129736670Y-100258702D01*
X129736666Y-100258704D01*
X129621455Y-100344952D01*
X129621452Y-100344955D01*
X129535207Y-100460163D01*
X129535206Y-100460166D01*
X129535204Y-100460169D01*
X129532441Y-100467574D01*
X129487703Y-100530399D01*
X129417544Y-100562437D01*
X129392838Y-100564500D01*
X125677270Y-100564500D01*
X125575408Y-100591794D01*
X125484093Y-100644515D01*
X125484089Y-100644518D01*
X124520518Y-101608089D01*
X124520515Y-101608093D01*
X124467794Y-101699408D01*
X124467793Y-101699412D01*
X124460133Y-101727999D01*
X124460133Y-101728000D01*
X124460132Y-101727999D01*
X124440500Y-101801267D01*
X124440500Y-101801273D01*
X124440500Y-113612273D01*
X124440500Y-113717727D01*
X124467793Y-113819587D01*
X124467794Y-113819588D01*
X124520518Y-113910911D01*
X124595086Y-113985479D01*
X124595091Y-113985483D01*
X124650481Y-114017462D01*
X124705019Y-114071999D01*
X124724982Y-114146499D01*
X124705020Y-114220999D01*
X124650483Y-114275537D01*
X124575983Y-114295500D01*
X123331500Y-114295500D01*
X123257000Y-114275538D01*
X123202462Y-114221000D01*
X123182500Y-114146500D01*
X123182500Y-85164271D01*
X127869500Y-85164271D01*
X127869500Y-98350729D01*
X127880267Y-98390912D01*
X127896253Y-98450574D01*
X127896794Y-98452591D01*
X127949515Y-98543906D01*
X127949518Y-98543910D01*
X127949520Y-98543913D01*
X128164926Y-98759319D01*
X128377519Y-98971912D01*
X128452088Y-99046481D01*
X128460754Y-99051484D01*
X128543413Y-99099207D01*
X128645273Y-99126500D01*
X128750727Y-99126500D01*
X129392838Y-99126500D01*
X129467338Y-99146462D01*
X129521876Y-99201000D01*
X129532440Y-99223421D01*
X129535204Y-99230831D01*
X129535206Y-99230833D01*
X129535207Y-99230836D01*
X129621452Y-99346044D01*
X129621455Y-99346047D01*
X129736666Y-99432295D01*
X129736670Y-99432297D01*
X129871517Y-99482591D01*
X129931114Y-99488999D01*
X129931118Y-99488999D01*
X129931127Y-99489000D01*
X130926872Y-99488999D01*
X130986483Y-99482591D01*
X131086471Y-99445298D01*
X131121329Y-99432297D01*
X131121333Y-99432295D01*
X131178938Y-99389171D01*
X131236546Y-99346046D01*
X131322796Y-99230831D01*
X131325558Y-99223425D01*
X131370297Y-99160601D01*
X131440456Y-99128563D01*
X131465162Y-99126500D01*
X131911500Y-99126500D01*
X131986000Y-99146462D01*
X132040538Y-99201000D01*
X132060500Y-99275500D01*
X132060500Y-101017729D01*
X132074892Y-101071440D01*
X132086809Y-101115917D01*
X132087794Y-101119591D01*
X132140515Y-101210906D01*
X132140518Y-101210910D01*
X132140520Y-101210913D01*
X134429502Y-103499895D01*
X136712519Y-105782912D01*
X136787088Y-105857481D01*
X136817529Y-105875055D01*
X136878413Y-105910207D01*
X136980273Y-105937500D01*
X137085727Y-105937500D01*
X139380693Y-105937500D01*
X139455193Y-105957462D01*
X139509731Y-106012000D01*
X139528838Y-106070571D01*
X139530551Y-106086500D01*
X139531409Y-106094485D01*
X139581702Y-106229329D01*
X139581704Y-106229333D01*
X139667952Y-106344544D01*
X139667953Y-106344544D01*
X139667954Y-106344546D01*
X139718601Y-106382460D01*
X139731638Y-106392220D01*
X139779314Y-106452848D01*
X139790290Y-106529191D01*
X139761624Y-106600794D01*
X139700996Y-106648470D01*
X139642344Y-106660500D01*
X131418610Y-106660500D01*
X131344110Y-106640538D01*
X131313251Y-106616859D01*
X130873141Y-106176748D01*
X130834577Y-106109953D01*
X130829500Y-106071389D01*
X130829500Y-103697307D01*
X130849462Y-103622807D01*
X130904000Y-103568269D01*
X130962571Y-103549161D01*
X130986483Y-103546591D01*
X131081862Y-103511017D01*
X131121329Y-103496297D01*
X131121333Y-103496295D01*
X131214752Y-103426361D01*
X131236546Y-103410046D01*
X131322796Y-103294831D01*
X131373091Y-103159983D01*
X131379003Y-103104998D01*
X131379499Y-103100385D01*
X131379499Y-103100382D01*
X131379500Y-103100373D01*
X131379499Y-102479628D01*
X131373091Y-102420017D01*
X131348759Y-102354780D01*
X131322797Y-102285170D01*
X131322795Y-102285166D01*
X131236547Y-102169955D01*
X131236544Y-102169952D01*
X131121333Y-102083704D01*
X131121329Y-102083702D01*
X130986482Y-102033408D01*
X130926876Y-102027000D01*
X129931136Y-102027000D01*
X129931111Y-102027002D01*
X129871521Y-102033408D01*
X129871515Y-102033409D01*
X129736670Y-102083702D01*
X129736666Y-102083704D01*
X129621455Y-102169952D01*
X129621452Y-102169955D01*
X129535204Y-102285166D01*
X129535202Y-102285170D01*
X129484908Y-102420017D01*
X129478500Y-102479614D01*
X129478500Y-103100363D01*
X129478502Y-103100388D01*
X129484908Y-103159978D01*
X129484909Y-103159984D01*
X129535202Y-103294829D01*
X129535204Y-103294833D01*
X129621452Y-103410044D01*
X129621455Y-103410047D01*
X129736666Y-103496295D01*
X129736670Y-103496297D01*
X129871517Y-103546591D01*
X129895427Y-103549162D01*
X129967367Y-103576973D01*
X130015762Y-103637028D01*
X130028500Y-103697308D01*
X130028500Y-106351729D01*
X130055794Y-106453591D01*
X130108515Y-106544906D01*
X130108518Y-106544910D01*
X130108520Y-106544913D01*
X130870518Y-107306910D01*
X130870520Y-107306913D01*
X130945087Y-107381480D01*
X130998670Y-107412416D01*
X131008929Y-107418339D01*
X131036409Y-107434205D01*
X131036410Y-107434205D01*
X131036413Y-107434207D01*
X131138273Y-107461501D01*
X131138276Y-107461501D01*
X131252856Y-107461501D01*
X131252872Y-107461500D01*
X155963725Y-107461500D01*
X155963727Y-107461500D01*
X156065588Y-107434207D01*
X156156913Y-107381480D01*
X157557252Y-105981141D01*
X157624047Y-105942577D01*
X157662611Y-105937500D01*
X169950396Y-105937500D01*
X170024896Y-105957462D01*
X170079434Y-106012000D01*
X170099396Y-106086500D01*
X170079434Y-106161000D01*
X170033177Y-106210388D01*
X169969651Y-106252836D01*
X169923214Y-106283864D01*
X169783864Y-106423214D01*
X169783860Y-106423219D01*
X169674368Y-106587084D01*
X169674367Y-106587087D01*
X169598949Y-106769163D01*
X169598948Y-106769165D01*
X169560500Y-106962460D01*
X169560500Y-107159539D01*
X169598948Y-107352834D01*
X169598949Y-107352836D01*
X169674367Y-107534912D01*
X169674368Y-107534915D01*
X169699001Y-107571780D01*
X169783861Y-107698782D01*
X169923218Y-107838139D01*
X170081995Y-107944230D01*
X170093173Y-107951699D01*
X170091611Y-107954036D01*
X170137992Y-107997434D01*
X170160418Y-108071230D01*
X170160500Y-108076179D01*
X170160500Y-108478638D01*
X170140538Y-108553138D01*
X170086000Y-108607676D01*
X170079155Y-108611392D01*
X169997293Y-108653102D01*
X169984206Y-108659771D01*
X169844075Y-108761583D01*
X169721583Y-108884075D01*
X169619771Y-109024206D01*
X169541130Y-109178549D01*
X169541125Y-109178561D01*
X169487597Y-109343299D01*
X169477349Y-109408007D01*
X169460500Y-109514389D01*
X169460500Y-109687611D01*
X169466284Y-109724127D01*
X169487597Y-109858700D01*
X169506582Y-109917128D01*
X169541127Y-110023445D01*
X169616605Y-110171579D01*
X169619771Y-110177793D01*
X169721583Y-110317924D01*
X169721586Y-110317928D01*
X169844072Y-110440414D01*
X169844075Y-110440416D01*
X169984208Y-110542230D01*
X169984212Y-110542232D01*
X170103161Y-110602839D01*
X170160478Y-110654446D01*
X170184312Y-110727799D01*
X170168276Y-110803242D01*
X170116668Y-110860560D01*
X170081562Y-110877305D01*
X170042774Y-110889908D01*
X169853444Y-110986378D01*
X169799282Y-111025728D01*
X169799282Y-111025729D01*
X170431590Y-111658037D01*
X170368007Y-111675075D01*
X170253993Y-111740901D01*
X170160901Y-111833993D01*
X170095075Y-111948007D01*
X170078037Y-112011590D01*
X169445728Y-111379282D01*
X169406378Y-111433444D01*
X169309908Y-111622774D01*
X169297305Y-111661562D01*
X169255297Y-111726246D01*
X169186575Y-111761260D01*
X169109552Y-111757223D01*
X169044868Y-111715215D01*
X169022839Y-111683161D01*
X168962232Y-111564212D01*
X168962230Y-111564208D01*
X168860416Y-111424075D01*
X168860414Y-111424072D01*
X168737928Y-111301586D01*
X168658668Y-111244000D01*
X168597793Y-111199771D01*
X168597790Y-111199769D01*
X168597788Y-111199768D01*
X168443445Y-111121127D01*
X168380030Y-111100522D01*
X168278700Y-111067597D01*
X168181086Y-111052137D01*
X168107611Y-111040500D01*
X167934389Y-111040500D01*
X167868050Y-111051007D01*
X167763299Y-111067597D01*
X167610859Y-111117129D01*
X167598555Y-111121127D01*
X167598549Y-111121129D01*
X167598549Y-111121130D01*
X167444206Y-111199771D01*
X167304075Y-111301583D01*
X167181583Y-111424075D01*
X167079771Y-111564206D01*
X167001130Y-111718549D01*
X167001125Y-111718561D01*
X166947597Y-111883299D01*
X166936845Y-111951190D01*
X166920500Y-112054389D01*
X166920500Y-112227611D01*
X166932137Y-112301086D01*
X166947597Y-112398700D01*
X166978742Y-112494553D01*
X167001127Y-112563445D01*
X167049929Y-112659224D01*
X167079771Y-112717793D01*
X167181583Y-112857924D01*
X167181586Y-112857928D01*
X167304072Y-112980414D01*
X167304075Y-112980416D01*
X167439676Y-113078937D01*
X167444212Y-113082232D01*
X167598555Y-113160873D01*
X167763299Y-113214402D01*
X167934389Y-113241500D01*
X167934393Y-113241500D01*
X168107607Y-113241500D01*
X168107611Y-113241500D01*
X168278701Y-113214402D01*
X168443445Y-113160873D01*
X168597788Y-113082232D01*
X168737928Y-112980414D01*
X168860414Y-112857928D01*
X168962232Y-112717788D01*
X169022841Y-112598833D01*
X169074446Y-112541522D01*
X169147799Y-112517687D01*
X169223242Y-112533722D01*
X169280559Y-112585331D01*
X169297305Y-112620438D01*
X169309907Y-112659223D01*
X169406378Y-112848555D01*
X169445728Y-112902716D01*
X169445729Y-112902716D01*
X170078037Y-112270408D01*
X170095075Y-112333993D01*
X170160901Y-112448007D01*
X170253993Y-112541099D01*
X170368007Y-112606925D01*
X170431590Y-112623962D01*
X169799282Y-113256270D01*
X169853444Y-113295621D01*
X169853444Y-113295622D01*
X170042779Y-113392093D01*
X170244871Y-113457757D01*
X170454758Y-113491000D01*
X170667242Y-113491000D01*
X170877128Y-113457757D01*
X171079220Y-113392093D01*
X171268555Y-113295622D01*
X171268557Y-113295620D01*
X171322716Y-113256270D01*
X171322716Y-113256269D01*
X170690409Y-112623962D01*
X170753993Y-112606925D01*
X170868007Y-112541099D01*
X170961099Y-112448007D01*
X171026925Y-112333993D01*
X171043962Y-112270409D01*
X171676269Y-112902716D01*
X171676270Y-112902716D01*
X171715620Y-112848557D01*
X171715622Y-112848555D01*
X171812091Y-112659224D01*
X171824693Y-112620441D01*
X171866699Y-112555756D01*
X171935421Y-112520739D01*
X172012443Y-112524775D01*
X172077128Y-112566781D01*
X172099161Y-112598839D01*
X172159769Y-112717790D01*
X172261583Y-112857924D01*
X172261586Y-112857928D01*
X172384072Y-112980414D01*
X172384075Y-112980416D01*
X172519676Y-113078937D01*
X172524212Y-113082232D01*
X172678555Y-113160873D01*
X172843299Y-113214402D01*
X173014389Y-113241500D01*
X173014393Y-113241500D01*
X173187607Y-113241500D01*
X173187611Y-113241500D01*
X173358701Y-113214402D01*
X173523445Y-113160873D01*
X173677788Y-113082232D01*
X173817928Y-112980414D01*
X173940414Y-112857928D01*
X174042232Y-112717788D01*
X174090602Y-112622854D01*
X174093285Y-112619874D01*
X174094324Y-112616000D01*
X174118929Y-112591394D01*
X174142211Y-112565538D01*
X174146025Y-112564298D01*
X174148862Y-112561462D01*
X174182471Y-112552456D01*
X174215564Y-112541704D01*
X174223362Y-112541500D01*
X174518638Y-112541500D01*
X174593138Y-112561462D01*
X174647676Y-112616000D01*
X174651392Y-112622844D01*
X174669928Y-112659224D01*
X174699771Y-112717793D01*
X174801583Y-112857924D01*
X174801586Y-112857928D01*
X174924072Y-112980414D01*
X174924075Y-112980416D01*
X175059676Y-113078937D01*
X175064212Y-113082232D01*
X175218555Y-113160873D01*
X175383299Y-113214402D01*
X175554389Y-113241500D01*
X175554393Y-113241500D01*
X175727607Y-113241500D01*
X175727611Y-113241500D01*
X175898701Y-113214402D01*
X176063445Y-113160873D01*
X176217788Y-113082232D01*
X176357928Y-112980414D01*
X176480414Y-112857928D01*
X176582232Y-112717788D01*
X176660873Y-112563445D01*
X176714402Y-112398701D01*
X176741500Y-112227611D01*
X176741500Y-112054389D01*
X176714402Y-111883299D01*
X176681476Y-111781966D01*
X176677440Y-111704947D01*
X176712455Y-111636225D01*
X176717805Y-111630586D01*
X177866480Y-110481913D01*
X177919207Y-110390588D01*
X177946500Y-110288727D01*
X177946500Y-110183273D01*
X177946500Y-109846177D01*
X184578000Y-109846177D01*
X184578000Y-110494000D01*
X185494988Y-110494000D01*
X185462075Y-110551007D01*
X185428000Y-110678174D01*
X185428000Y-110809826D01*
X185462075Y-110936993D01*
X185494988Y-110994000D01*
X184578000Y-110994000D01*
X184578000Y-111641822D01*
X184578001Y-111641842D01*
X184584401Y-111701377D01*
X184634645Y-111836084D01*
X184634650Y-111836094D01*
X184720809Y-111951187D01*
X184720812Y-111951190D01*
X184835905Y-112037349D01*
X184835915Y-112037354D01*
X184970623Y-112087598D01*
X184970621Y-112087598D01*
X185030157Y-112093998D01*
X185030177Y-112094000D01*
X185678000Y-112094000D01*
X185678000Y-111177012D01*
X185735007Y-111209925D01*
X185862174Y-111244000D01*
X185993826Y-111244000D01*
X186120993Y-111209925D01*
X186178000Y-111177012D01*
X186178000Y-112094000D01*
X186825823Y-112094000D01*
X186825842Y-112093998D01*
X186885377Y-112087598D01*
X187020084Y-112037354D01*
X187020094Y-112037349D01*
X187135187Y-111951190D01*
X187135190Y-111951187D01*
X187221349Y-111836094D01*
X187221354Y-111836084D01*
X187271598Y-111701377D01*
X187277998Y-111641842D01*
X187278000Y-111641822D01*
X187278000Y-111436963D01*
X187297962Y-111362463D01*
X187352500Y-111307925D01*
X187427000Y-111287963D01*
X187501500Y-111307925D01*
X187547542Y-111349381D01*
X187628586Y-111460928D01*
X187751072Y-111583414D01*
X187751075Y-111583416D01*
X187888361Y-111683161D01*
X187891212Y-111685232D01*
X188045555Y-111763873D01*
X188210299Y-111817402D01*
X188381389Y-111844500D01*
X188381393Y-111844500D01*
X188554607Y-111844500D01*
X188554611Y-111844500D01*
X188725701Y-111817402D01*
X188890445Y-111763873D01*
X189044788Y-111685232D01*
X189184928Y-111583414D01*
X189307414Y-111460928D01*
X189409232Y-111320788D01*
X189487873Y-111166445D01*
X189541402Y-111001701D01*
X189568500Y-110830611D01*
X189568500Y-110657389D01*
X189541402Y-110486299D01*
X189487873Y-110321555D01*
X189409232Y-110167212D01*
X189398872Y-110152953D01*
X189307416Y-110027075D01*
X189307414Y-110027072D01*
X189184928Y-109904586D01*
X189121772Y-109858700D01*
X189044793Y-109802771D01*
X189044790Y-109802769D01*
X189044788Y-109802768D01*
X188890445Y-109724127D01*
X188838479Y-109707242D01*
X188725700Y-109670597D01*
X188628086Y-109655137D01*
X188554611Y-109643500D01*
X188381389Y-109643500D01*
X188315037Y-109654009D01*
X188210299Y-109670597D01*
X188045561Y-109724125D01*
X188045555Y-109724127D01*
X188045549Y-109724129D01*
X188045549Y-109724130D01*
X187891206Y-109802771D01*
X187751075Y-109904583D01*
X187628588Y-110027070D01*
X187628583Y-110027076D01*
X187547543Y-110138617D01*
X187487603Y-110187155D01*
X187411424Y-110199220D01*
X187339419Y-110171579D01*
X187290881Y-110111639D01*
X187278000Y-110051036D01*
X187278000Y-109846177D01*
X187277998Y-109846157D01*
X187271598Y-109786622D01*
X187221354Y-109651915D01*
X187221349Y-109651905D01*
X187135190Y-109536812D01*
X187135187Y-109536809D01*
X187020094Y-109450650D01*
X187020084Y-109450645D01*
X186885376Y-109400401D01*
X186885378Y-109400401D01*
X186825842Y-109394001D01*
X186825823Y-109394000D01*
X186178000Y-109394000D01*
X186178000Y-110310988D01*
X186120993Y-110278075D01*
X185993826Y-110244000D01*
X185862174Y-110244000D01*
X185735007Y-110278075D01*
X185678000Y-110310988D01*
X185678000Y-109394000D01*
X185030177Y-109394000D01*
X185030157Y-109394001D01*
X184970622Y-109400401D01*
X184835915Y-109450645D01*
X184835905Y-109450650D01*
X184720812Y-109536809D01*
X184720809Y-109536812D01*
X184634650Y-109651905D01*
X184634645Y-109651915D01*
X184584401Y-109786622D01*
X184578001Y-109846157D01*
X184578000Y-109846177D01*
X177946500Y-109846177D01*
X177946500Y-102988177D01*
X178990000Y-102988177D01*
X178990000Y-103636000D01*
X179906988Y-103636000D01*
X179874075Y-103693007D01*
X179840000Y-103820174D01*
X179840000Y-103951826D01*
X179874075Y-104078993D01*
X179906988Y-104136000D01*
X178990000Y-104136000D01*
X178990000Y-104783822D01*
X178990001Y-104783842D01*
X178996401Y-104843377D01*
X179046645Y-104978084D01*
X179046650Y-104978094D01*
X179132809Y-105093187D01*
X179132812Y-105093190D01*
X179247905Y-105179349D01*
X179247915Y-105179354D01*
X179382623Y-105229598D01*
X179382621Y-105229598D01*
X179442157Y-105235998D01*
X179442177Y-105236000D01*
X180090000Y-105236000D01*
X180090000Y-104319012D01*
X180147007Y-104351925D01*
X180274174Y-104386000D01*
X180405826Y-104386000D01*
X180532993Y-104351925D01*
X180590000Y-104319012D01*
X180590000Y-105236000D01*
X181237823Y-105236000D01*
X181237842Y-105235998D01*
X181297377Y-105229598D01*
X181432084Y-105179354D01*
X181432094Y-105179349D01*
X181547187Y-105093190D01*
X181547190Y-105093187D01*
X181633349Y-104978094D01*
X181633354Y-104978084D01*
X181683598Y-104843377D01*
X181689998Y-104783842D01*
X181690000Y-104783822D01*
X181690000Y-104136000D01*
X180773012Y-104136000D01*
X180805925Y-104078993D01*
X180840000Y-103951826D01*
X180840000Y-103820174D01*
X180805925Y-103693007D01*
X180773012Y-103636000D01*
X181690000Y-103636000D01*
X181690000Y-103011322D01*
X192193500Y-103011322D01*
X192193500Y-104760677D01*
X192208033Y-104833739D01*
X192244587Y-104888446D01*
X192263399Y-104916601D01*
X192346260Y-104971966D01*
X192419326Y-104986500D01*
X192419330Y-104986500D01*
X194168670Y-104986500D01*
X194168674Y-104986500D01*
X194241740Y-104971966D01*
X194324601Y-104916601D01*
X194379966Y-104833740D01*
X194394500Y-104760674D01*
X194394500Y-103011326D01*
X194379966Y-102938260D01*
X194324601Y-102855399D01*
X194290170Y-102832393D01*
X194241739Y-102800033D01*
X194168677Y-102785500D01*
X194168674Y-102785500D01*
X192419326Y-102785500D01*
X192419322Y-102785500D01*
X192346260Y-102800033D01*
X192263399Y-102855398D01*
X192263398Y-102855399D01*
X192208033Y-102938260D01*
X192193500Y-103011322D01*
X181690000Y-103011322D01*
X181690000Y-102988177D01*
X181689998Y-102988157D01*
X181683598Y-102928622D01*
X181633354Y-102793915D01*
X181633349Y-102793905D01*
X181547190Y-102678812D01*
X181547187Y-102678809D01*
X181432094Y-102592650D01*
X181432084Y-102592645D01*
X181297376Y-102542401D01*
X181297378Y-102542401D01*
X181237842Y-102536001D01*
X181237823Y-102536000D01*
X180590000Y-102536000D01*
X180590000Y-103452988D01*
X180532993Y-103420075D01*
X180405826Y-103386000D01*
X180274174Y-103386000D01*
X180147007Y-103420075D01*
X180090000Y-103452988D01*
X180090000Y-102536000D01*
X179442177Y-102536000D01*
X179442157Y-102536001D01*
X179382622Y-102542401D01*
X179247915Y-102592645D01*
X179247905Y-102592650D01*
X179132812Y-102678809D01*
X179132809Y-102678812D01*
X179046650Y-102793905D01*
X179046645Y-102793915D01*
X178996401Y-102928622D01*
X178990001Y-102988157D01*
X178990000Y-102988177D01*
X177946500Y-102988177D01*
X177946500Y-96721273D01*
X177926797Y-96647740D01*
X177919207Y-96619412D01*
X177866480Y-96528087D01*
X176085141Y-94746748D01*
X176046577Y-94679953D01*
X176041500Y-94641389D01*
X176041500Y-90169179D01*
X176061462Y-90094679D01*
X176109874Y-90046266D01*
X176108827Y-90044699D01*
X176119230Y-90037748D01*
X176278782Y-89931139D01*
X176418139Y-89791782D01*
X176527632Y-89627914D01*
X176603051Y-89445835D01*
X176641500Y-89252541D01*
X176641500Y-89055459D01*
X176603051Y-88862165D01*
X176527632Y-88680086D01*
X176418139Y-88516218D01*
X176278782Y-88376861D01*
X176223911Y-88340197D01*
X176114915Y-88267368D01*
X176114912Y-88267367D01*
X175932836Y-88191949D01*
X175932834Y-88191948D01*
X175772721Y-88160100D01*
X175739541Y-88153500D01*
X175542459Y-88153500D01*
X175510389Y-88159878D01*
X175349165Y-88191948D01*
X175349163Y-88191949D01*
X175167087Y-88267367D01*
X175167084Y-88267368D01*
X175003219Y-88376860D01*
X175003214Y-88376864D01*
X174863864Y-88516214D01*
X174863860Y-88516219D01*
X174754368Y-88680084D01*
X174754367Y-88680087D01*
X174678949Y-88862163D01*
X174678948Y-88862165D01*
X174640500Y-89055460D01*
X174640500Y-89252539D01*
X174678948Y-89445834D01*
X174678949Y-89445836D01*
X174754367Y-89627912D01*
X174754368Y-89627915D01*
X174827197Y-89736911D01*
X174863861Y-89791782D01*
X175003218Y-89931139D01*
X175162770Y-90037748D01*
X175173173Y-90044699D01*
X175171611Y-90047036D01*
X175217992Y-90090434D01*
X175240418Y-90164230D01*
X175240500Y-90169179D01*
X175240500Y-94319500D01*
X175220538Y-94394000D01*
X175166000Y-94448538D01*
X175091500Y-94468500D01*
X168073727Y-94468500D01*
X167968273Y-94468500D01*
X167866413Y-94495793D01*
X167866411Y-94495793D01*
X167866411Y-94495794D01*
X167775088Y-94548518D01*
X167700518Y-94623088D01*
X167647794Y-94714411D01*
X167620500Y-94816271D01*
X167620500Y-98115500D01*
X167600538Y-98190000D01*
X167546000Y-98244538D01*
X167471500Y-98264500D01*
X166455826Y-98264500D01*
X166381326Y-98244538D01*
X166326788Y-98190000D01*
X166312744Y-98157075D01*
X166278618Y-98039610D01*
X166198170Y-97903580D01*
X166086420Y-97791830D01*
X165950390Y-97711382D01*
X165878720Y-97690560D01*
X165798629Y-97667291D01*
X165798630Y-97667291D01*
X165788955Y-97666529D01*
X165763163Y-97664500D01*
X165763155Y-97664500D01*
X164386849Y-97664500D01*
X164386831Y-97664501D01*
X164351379Y-97667290D01*
X164351374Y-97667290D01*
X164351373Y-97667291D01*
X164199610Y-97711382D01*
X164063581Y-97791829D01*
X164063578Y-97791831D01*
X163951831Y-97903578D01*
X163951829Y-97903581D01*
X163871382Y-98039610D01*
X163871382Y-98039611D01*
X163827291Y-98191370D01*
X163827291Y-98191373D01*
X163824500Y-98226837D01*
X163824500Y-98226838D01*
X163824500Y-98226844D01*
X163824500Y-99103150D01*
X163824501Y-99103168D01*
X163826337Y-99126500D01*
X163827291Y-99138627D01*
X163871382Y-99290390D01*
X163951830Y-99426420D01*
X164063580Y-99538170D01*
X164199610Y-99618618D01*
X164351370Y-99662708D01*
X164351369Y-99662708D01*
X164351373Y-99662709D01*
X164386837Y-99665500D01*
X165763162Y-99665499D01*
X165798627Y-99662709D01*
X165950390Y-99618618D01*
X166086420Y-99538170D01*
X166198170Y-99426420D01*
X166278618Y-99290390D01*
X166312743Y-99172929D01*
X166352698Y-99106957D01*
X166420286Y-99069801D01*
X166455827Y-99065500D01*
X167460273Y-99065500D01*
X167793389Y-99065500D01*
X167867889Y-99085462D01*
X167898748Y-99109141D01*
X168927087Y-100137480D01*
X169018412Y-100190207D01*
X169023496Y-100191569D01*
X169090292Y-100230132D01*
X169124541Y-100283424D01*
X169134202Y-100309329D01*
X169134204Y-100309333D01*
X169220452Y-100424544D01*
X169220455Y-100424547D01*
X169335666Y-100510795D01*
X169335670Y-100510797D01*
X169470517Y-100561091D01*
X169530114Y-100567499D01*
X169530118Y-100567499D01*
X169530127Y-100567500D01*
X170575872Y-100567499D01*
X170635483Y-100561091D01*
X170737495Y-100523043D01*
X170770329Y-100510797D01*
X170770333Y-100510795D01*
X170828069Y-100467573D01*
X170885546Y-100424546D01*
X170949127Y-100339613D01*
X170971795Y-100309333D01*
X170971797Y-100309329D01*
X171011238Y-100203581D01*
X171022091Y-100174483D01*
X171026069Y-100137481D01*
X171028499Y-100114885D01*
X171028499Y-100114882D01*
X171028500Y-100114873D01*
X171028499Y-99519128D01*
X171022091Y-99459517D01*
X171004443Y-99412201D01*
X170971797Y-99324670D01*
X170971795Y-99324666D01*
X170885547Y-99209455D01*
X170885544Y-99209452D01*
X170770570Y-99123382D01*
X170722893Y-99062755D01*
X170711917Y-98986411D01*
X170740583Y-98914809D01*
X170801210Y-98867132D01*
X170812999Y-98862664D01*
X170847121Y-98851357D01*
X170996340Y-98759319D01*
X171120319Y-98635340D01*
X171212357Y-98486121D01*
X171267505Y-98319697D01*
X171267507Y-98319688D01*
X171277999Y-98216989D01*
X171278000Y-98216979D01*
X171278000Y-98167000D01*
X168828001Y-98167000D01*
X168828001Y-98216973D01*
X168838494Y-98319696D01*
X168893642Y-98486121D01*
X168985680Y-98635340D01*
X169109659Y-98759319D01*
X169258878Y-98851357D01*
X169293001Y-98862664D01*
X169357442Y-98905046D01*
X169392057Y-98973970D01*
X169387574Y-99050967D01*
X169345192Y-99115408D01*
X169335430Y-99123381D01*
X169273139Y-99170013D01*
X169201536Y-99198680D01*
X169125193Y-99187705D01*
X169078486Y-99156093D01*
X168465141Y-98542748D01*
X168426577Y-98475953D01*
X168421500Y-98437389D01*
X168421500Y-97617010D01*
X168828000Y-97617010D01*
X168828000Y-97667000D01*
X169803000Y-97667000D01*
X170303000Y-97667000D01*
X171277999Y-97667000D01*
X171277999Y-97617026D01*
X171277997Y-97617010D01*
X171876000Y-97617010D01*
X171876000Y-97667000D01*
X172851000Y-97667000D01*
X173351000Y-97667000D01*
X174325999Y-97667000D01*
X174325999Y-97617026D01*
X174315505Y-97514303D01*
X174260357Y-97347878D01*
X174168319Y-97198659D01*
X174044340Y-97074680D01*
X173895121Y-96982642D01*
X173728697Y-96927494D01*
X173728688Y-96927492D01*
X173625989Y-96917000D01*
X173351000Y-96917000D01*
X173351000Y-97667000D01*
X172851000Y-97667000D01*
X172851000Y-96917000D01*
X172576026Y-96917000D01*
X172473303Y-96927494D01*
X172306878Y-96982642D01*
X172157659Y-97074680D01*
X172033680Y-97198659D01*
X171941642Y-97347878D01*
X171886494Y-97514302D01*
X171886492Y-97514311D01*
X171876000Y-97617010D01*
X171277997Y-97617010D01*
X171267505Y-97514303D01*
X171212357Y-97347878D01*
X171120319Y-97198659D01*
X170996340Y-97074680D01*
X170847121Y-96982642D01*
X170680697Y-96927494D01*
X170680688Y-96927492D01*
X170577989Y-96917000D01*
X170303000Y-96917000D01*
X170303000Y-97667000D01*
X169803000Y-97667000D01*
X169803000Y-96917000D01*
X169528026Y-96917000D01*
X169425303Y-96927494D01*
X169258878Y-96982642D01*
X169109659Y-97074680D01*
X168985680Y-97198659D01*
X168893642Y-97347878D01*
X168838494Y-97514302D01*
X168838492Y-97514311D01*
X168828000Y-97617010D01*
X168421500Y-97617010D01*
X168421500Y-95418500D01*
X168441462Y-95344000D01*
X168496000Y-95289462D01*
X168570500Y-95269500D01*
X175413389Y-95269500D01*
X175487889Y-95289462D01*
X175518748Y-95313141D01*
X177101859Y-96896252D01*
X177140423Y-96963047D01*
X177145500Y-97001611D01*
X177145500Y-110008389D01*
X177140423Y-110027336D01*
X177140423Y-110046953D01*
X177130615Y-110063940D01*
X177125538Y-110082889D01*
X177101859Y-110113748D01*
X176995859Y-110219748D01*
X176929064Y-110258312D01*
X176851936Y-110258312D01*
X176785141Y-110219748D01*
X176746577Y-110152953D01*
X176741500Y-110114389D01*
X176741500Y-108726330D01*
X176741499Y-108726322D01*
X176726966Y-108653260D01*
X176671601Y-108570399D01*
X176671600Y-108570398D01*
X176588739Y-108515033D01*
X176515677Y-108500500D01*
X176515674Y-108500500D01*
X174766326Y-108500500D01*
X174766322Y-108500500D01*
X174693260Y-108515033D01*
X174610399Y-108570398D01*
X174610398Y-108570399D01*
X174555033Y-108653260D01*
X174540500Y-108726322D01*
X174540500Y-110475677D01*
X174555033Y-110548739D01*
X174603232Y-110620874D01*
X174610399Y-110631601D01*
X174693260Y-110686966D01*
X174766326Y-110701500D01*
X176154388Y-110701500D01*
X176228888Y-110721462D01*
X176283426Y-110776000D01*
X176303388Y-110850500D01*
X176283426Y-110925000D01*
X176259746Y-110955859D01*
X176151431Y-111064173D01*
X176084636Y-111102737D01*
X176007508Y-111102737D01*
X176000030Y-111100522D01*
X175992226Y-111097986D01*
X175898701Y-111067598D01*
X175898697Y-111067597D01*
X175898696Y-111067597D01*
X175856396Y-111060897D01*
X175727611Y-111040500D01*
X175554389Y-111040500D01*
X175488050Y-111051007D01*
X175383299Y-111067597D01*
X175230859Y-111117129D01*
X175218555Y-111121127D01*
X175218549Y-111121129D01*
X175218549Y-111121130D01*
X175064206Y-111199771D01*
X174924075Y-111301583D01*
X174801583Y-111424075D01*
X174699771Y-111564206D01*
X174699768Y-111564212D01*
X174669930Y-111622774D01*
X174651398Y-111659145D01*
X174648714Y-111662125D01*
X174647676Y-111666000D01*
X174623070Y-111690605D01*
X174599789Y-111716462D01*
X174595974Y-111717701D01*
X174593138Y-111720538D01*
X174559528Y-111729543D01*
X174526436Y-111740296D01*
X174518638Y-111740500D01*
X174223362Y-111740500D01*
X174148862Y-111720538D01*
X174094324Y-111666000D01*
X174090602Y-111659145D01*
X174081786Y-111641842D01*
X174042232Y-111564212D01*
X173940414Y-111424072D01*
X173817928Y-111301586D01*
X173738668Y-111244000D01*
X173677793Y-111199771D01*
X173677790Y-111199769D01*
X173677788Y-111199768D01*
X173523445Y-111121127D01*
X173460030Y-111100522D01*
X173358700Y-111067597D01*
X173261086Y-111052137D01*
X173187611Y-111040500D01*
X173014389Y-111040500D01*
X172948050Y-111051007D01*
X172843299Y-111067597D01*
X172690859Y-111117129D01*
X172678555Y-111121127D01*
X172678549Y-111121129D01*
X172678549Y-111121130D01*
X172524206Y-111199771D01*
X172384075Y-111301583D01*
X172261583Y-111424075D01*
X172159771Y-111564206D01*
X172159768Y-111564212D01*
X172099162Y-111683160D01*
X172099161Y-111683161D01*
X172047552Y-111740478D01*
X171974199Y-111764312D01*
X171898756Y-111748276D01*
X171841439Y-111696667D01*
X171824693Y-111661559D01*
X171812091Y-111622773D01*
X171715621Y-111433444D01*
X171676270Y-111379282D01*
X171043962Y-112011589D01*
X171026925Y-111948007D01*
X170961099Y-111833993D01*
X170868007Y-111740901D01*
X170753993Y-111675075D01*
X170690407Y-111658037D01*
X171322716Y-111025729D01*
X171322716Y-111025728D01*
X171268555Y-110986378D01*
X171268555Y-110986377D01*
X171079223Y-110889907D01*
X171040438Y-110877305D01*
X170975753Y-110835297D01*
X170940739Y-110766575D01*
X170944776Y-110689553D01*
X170986784Y-110624868D01*
X171018827Y-110602844D01*
X171137788Y-110542232D01*
X171277928Y-110440414D01*
X171400414Y-110317928D01*
X171502232Y-110177788D01*
X171580873Y-110023445D01*
X171634402Y-109858701D01*
X171661500Y-109687611D01*
X171661500Y-109514389D01*
X171634402Y-109343299D01*
X171580873Y-109178555D01*
X171502232Y-109024212D01*
X171400414Y-108884072D01*
X171277928Y-108761586D01*
X171277924Y-108761583D01*
X171137793Y-108659771D01*
X171137790Y-108659769D01*
X171137788Y-108659768D01*
X171042854Y-108611397D01*
X170985538Y-108559789D01*
X170961704Y-108486436D01*
X170961500Y-108478638D01*
X170961500Y-108076179D01*
X170981462Y-108001679D01*
X171029874Y-107953266D01*
X171028827Y-107951699D01*
X171040005Y-107944230D01*
X171198782Y-107838139D01*
X171338139Y-107698782D01*
X171447632Y-107534914D01*
X171523051Y-107352835D01*
X171561500Y-107159541D01*
X171561500Y-106962459D01*
X171523051Y-106769165D01*
X171447632Y-106587086D01*
X171446906Y-106586000D01*
X171362772Y-106460084D01*
X171338139Y-106423218D01*
X171198782Y-106283861D01*
X171088822Y-106210388D01*
X171037970Y-106152400D01*
X171022923Y-106076754D01*
X171047715Y-106003719D01*
X171105704Y-105952866D01*
X171171604Y-105937500D01*
X172322861Y-105937500D01*
X172397361Y-105957462D01*
X172451899Y-106012000D01*
X172471861Y-106086500D01*
X172451899Y-106161000D01*
X172428220Y-106191859D01*
X172323864Y-106296214D01*
X172323860Y-106296219D01*
X172214368Y-106460084D01*
X172214367Y-106460087D01*
X172138949Y-106642163D01*
X172138948Y-106642165D01*
X172100500Y-106835460D01*
X172100500Y-107032539D01*
X172138948Y-107225834D01*
X172138949Y-107225836D01*
X172214367Y-107407912D01*
X172214368Y-107407915D01*
X172287197Y-107516911D01*
X172323861Y-107571782D01*
X172463218Y-107711139D01*
X172627086Y-107820632D01*
X172633173Y-107824699D01*
X172631611Y-107827036D01*
X172677992Y-107870434D01*
X172700418Y-107944230D01*
X172700500Y-107949179D01*
X172700500Y-108478638D01*
X172680538Y-108553138D01*
X172626000Y-108607676D01*
X172619155Y-108611392D01*
X172537293Y-108653102D01*
X172524206Y-108659771D01*
X172384075Y-108761583D01*
X172261583Y-108884075D01*
X172159771Y-109024206D01*
X172081130Y-109178549D01*
X172081125Y-109178561D01*
X172027597Y-109343299D01*
X172017349Y-109408007D01*
X172000500Y-109514389D01*
X172000500Y-109687611D01*
X172006284Y-109724127D01*
X172027597Y-109858700D01*
X172046582Y-109917128D01*
X172081127Y-110023445D01*
X172156605Y-110171579D01*
X172159771Y-110177793D01*
X172261583Y-110317924D01*
X172261586Y-110317928D01*
X172384072Y-110440414D01*
X172384075Y-110440416D01*
X172524203Y-110542226D01*
X172524212Y-110542232D01*
X172678555Y-110620873D01*
X172843299Y-110674402D01*
X173014389Y-110701500D01*
X173014393Y-110701500D01*
X173187607Y-110701500D01*
X173187611Y-110701500D01*
X173358701Y-110674402D01*
X173523445Y-110620873D01*
X173677788Y-110542232D01*
X173817928Y-110440414D01*
X173940414Y-110317928D01*
X174042232Y-110177788D01*
X174120873Y-110023445D01*
X174174402Y-109858701D01*
X174201500Y-109687611D01*
X174201500Y-109514389D01*
X174174402Y-109343299D01*
X174120873Y-109178555D01*
X174042232Y-109024212D01*
X173940414Y-108884072D01*
X173817928Y-108761586D01*
X173817924Y-108761583D01*
X173677793Y-108659771D01*
X173677790Y-108659769D01*
X173677788Y-108659768D01*
X173582854Y-108611397D01*
X173525538Y-108559789D01*
X173501704Y-108486436D01*
X173501500Y-108478638D01*
X173501500Y-107949179D01*
X173521462Y-107874679D01*
X173569874Y-107826266D01*
X173568827Y-107824699D01*
X173574914Y-107820632D01*
X173738782Y-107711139D01*
X173878139Y-107571782D01*
X173987632Y-107407914D01*
X174063051Y-107225835D01*
X174101500Y-107032541D01*
X174101500Y-106835459D01*
X174063051Y-106642165D01*
X173987632Y-106460086D01*
X173972206Y-106437000D01*
X173915229Y-106351727D01*
X173878139Y-106296218D01*
X173738782Y-106156861D01*
X173668579Y-106109953D01*
X173574915Y-106047368D01*
X173574912Y-106047367D01*
X173483903Y-106009670D01*
X173422713Y-105962718D01*
X173393197Y-105891461D01*
X173403264Y-105814993D01*
X173416826Y-105791503D01*
X173416597Y-105791371D01*
X173424317Y-105777997D01*
X173474207Y-105691587D01*
X173501500Y-105589727D01*
X173501500Y-104788307D01*
X173521462Y-104713807D01*
X173576000Y-104659269D01*
X173634571Y-104640161D01*
X173658483Y-104637591D01*
X173747765Y-104604291D01*
X173793329Y-104587297D01*
X173793333Y-104587295D01*
X173875821Y-104525544D01*
X173908546Y-104501046D01*
X173951671Y-104443438D01*
X173994795Y-104385833D01*
X173994797Y-104385829D01*
X174019275Y-104320199D01*
X174045091Y-104250983D01*
X174046823Y-104234870D01*
X174051499Y-104191385D01*
X174051499Y-104191382D01*
X174051500Y-104191373D01*
X174051499Y-103570628D01*
X174045091Y-103511017D01*
X174016030Y-103433100D01*
X173994797Y-103376170D01*
X173994795Y-103376166D01*
X173908547Y-103260955D01*
X173908544Y-103260952D01*
X173793333Y-103174704D01*
X173793329Y-103174702D01*
X173658482Y-103124408D01*
X173598876Y-103118000D01*
X172603136Y-103118000D01*
X172603111Y-103118002D01*
X172543521Y-103124408D01*
X172543515Y-103124409D01*
X172408670Y-103174702D01*
X172408666Y-103174704D01*
X172293455Y-103260952D01*
X172293452Y-103260955D01*
X172207204Y-103376166D01*
X172207202Y-103376170D01*
X172156908Y-103511017D01*
X172150500Y-103570614D01*
X172150500Y-104191363D01*
X172150502Y-104191388D01*
X172156908Y-104250978D01*
X172156909Y-104250984D01*
X172207202Y-104385829D01*
X172207204Y-104385833D01*
X172293452Y-104501044D01*
X172293455Y-104501047D01*
X172408666Y-104587295D01*
X172408670Y-104587297D01*
X172543517Y-104637591D01*
X172567427Y-104640162D01*
X172596199Y-104651285D01*
X172626000Y-104659270D01*
X172631763Y-104665033D01*
X172639367Y-104667973D01*
X172658725Y-104691995D01*
X172680538Y-104713808D01*
X172682647Y-104721681D01*
X172687762Y-104728028D01*
X172700500Y-104788308D01*
X172700500Y-104987500D01*
X172680538Y-105062000D01*
X172626000Y-105116538D01*
X172551500Y-105136500D01*
X170801327Y-105136500D01*
X170726827Y-105116538D01*
X170672289Y-105062000D01*
X170652327Y-104987500D01*
X170672289Y-104913000D01*
X170726827Y-104858462D01*
X170754459Y-104846063D01*
X170847121Y-104815357D01*
X170996340Y-104723319D01*
X171120319Y-104599340D01*
X171212357Y-104450121D01*
X171267505Y-104283697D01*
X171267507Y-104283688D01*
X171277999Y-104180989D01*
X171278000Y-104180979D01*
X171278000Y-104131000D01*
X168828001Y-104131000D01*
X168828001Y-104180973D01*
X168838494Y-104283696D01*
X168893642Y-104450121D01*
X168985680Y-104599340D01*
X169109659Y-104723319D01*
X169258878Y-104815357D01*
X169351540Y-104846063D01*
X169415979Y-104888446D01*
X169450594Y-104957371D01*
X169446109Y-105034368D01*
X169403726Y-105098807D01*
X169334801Y-105133422D01*
X169304672Y-105136500D01*
X157662611Y-105136500D01*
X157588111Y-105116538D01*
X157557252Y-105092859D01*
X156816318Y-104351925D01*
X156180483Y-103716090D01*
X163575000Y-103716090D01*
X163577896Y-103758818D01*
X163623830Y-103943521D01*
X163708393Y-104114027D01*
X163827629Y-104262363D01*
X163827636Y-104262370D01*
X163975972Y-104381606D01*
X164146478Y-104466169D01*
X164331181Y-104512103D01*
X164373910Y-104515000D01*
X164825000Y-104515000D01*
X165325000Y-104515000D01*
X165776090Y-104515000D01*
X165818818Y-104512103D01*
X166003521Y-104466169D01*
X166174027Y-104381606D01*
X166322363Y-104262370D01*
X166322370Y-104262363D01*
X166441606Y-104114027D01*
X166526169Y-103943521D01*
X166572103Y-103758818D01*
X166575000Y-103716090D01*
X166575000Y-103515000D01*
X165325000Y-103515000D01*
X165325000Y-104515000D01*
X164825000Y-104515000D01*
X164825000Y-103515000D01*
X163575000Y-103515000D01*
X163575000Y-103716090D01*
X156180483Y-103716090D01*
X156074913Y-103610520D01*
X156074910Y-103610518D01*
X156074909Y-103610517D01*
X156035867Y-103587976D01*
X156035863Y-103587974D01*
X155983588Y-103557793D01*
X155903504Y-103536335D01*
X155895843Y-103533346D01*
X155871163Y-103515208D01*
X155844641Y-103499895D01*
X155840450Y-103492636D01*
X155833694Y-103487671D01*
X155821387Y-103459619D01*
X155806077Y-103433100D01*
X155804500Y-103421124D01*
X155802709Y-103417041D01*
X155803281Y-103411866D01*
X155801000Y-103394537D01*
X155801000Y-103147741D01*
X155800999Y-103147731D01*
X155791073Y-103079607D01*
X155762636Y-103021439D01*
X155747850Y-102945744D01*
X155762637Y-102890560D01*
X155791073Y-102832393D01*
X155801000Y-102764260D01*
X155801000Y-102497740D01*
X155800931Y-102497268D01*
X155791073Y-102429607D01*
X155784407Y-102415972D01*
X155762636Y-102371439D01*
X155747850Y-102295744D01*
X155762637Y-102240560D01*
X155791073Y-102182393D01*
X155801000Y-102114260D01*
X155801000Y-101847740D01*
X155800383Y-101843508D01*
X155791073Y-101779607D01*
X155762636Y-101721439D01*
X155747850Y-101645744D01*
X155762637Y-101590560D01*
X155791073Y-101532393D01*
X155796180Y-101497340D01*
X155800999Y-101464268D01*
X155801000Y-101464258D01*
X155801000Y-101197741D01*
X155800999Y-101197731D01*
X155791073Y-101129607D01*
X155786428Y-101120106D01*
X155762636Y-101071439D01*
X155747850Y-100995744D01*
X155762637Y-100940560D01*
X155791073Y-100882393D01*
X155801000Y-100814260D01*
X155801000Y-100547740D01*
X155800533Y-100544538D01*
X155791073Y-100479607D01*
X155780055Y-100457069D01*
X155762636Y-100421439D01*
X155747850Y-100345744D01*
X155762637Y-100290560D01*
X155791073Y-100232393D01*
X155800868Y-100165165D01*
X155800999Y-100164268D01*
X155801000Y-100164258D01*
X155801000Y-100041814D01*
X155820962Y-99967314D01*
X155859295Y-99923604D01*
X155878424Y-99908925D01*
X155878426Y-99908923D01*
X155974598Y-99783589D01*
X156035055Y-99637632D01*
X156035055Y-99637631D01*
X156042512Y-99581000D01*
X155496054Y-99581000D01*
X155485290Y-99580611D01*
X155483761Y-99580500D01*
X155483760Y-99580500D01*
X154142240Y-99580500D01*
X154142238Y-99580500D01*
X154140710Y-99580611D01*
X154140131Y-99580500D01*
X154136849Y-99580500D01*
X154136849Y-99579870D01*
X154135282Y-99579570D01*
X154129946Y-99581000D01*
X153583488Y-99581000D01*
X153590942Y-99637626D01*
X153590945Y-99637635D01*
X153651400Y-99783589D01*
X153747573Y-99908923D01*
X153747575Y-99908925D01*
X153766705Y-99923604D01*
X153813658Y-99984793D01*
X153825000Y-100041814D01*
X153825000Y-100164268D01*
X153834926Y-100232391D01*
X153834927Y-100232393D01*
X153863362Y-100290559D01*
X153863363Y-100290560D01*
X153878148Y-100366258D01*
X153863363Y-100421439D01*
X153861844Y-100424547D01*
X153834926Y-100479608D01*
X153825000Y-100547731D01*
X153825000Y-100814268D01*
X153834926Y-100882391D01*
X153834927Y-100882393D01*
X153863362Y-100940559D01*
X153863363Y-100940560D01*
X153878148Y-101016258D01*
X153863363Y-101071439D01*
X153859562Y-101079214D01*
X153834926Y-101129608D01*
X153825000Y-101197731D01*
X153825000Y-101464268D01*
X153834926Y-101532391D01*
X153834927Y-101532393D01*
X153863362Y-101590559D01*
X153863363Y-101590560D01*
X153878148Y-101666258D01*
X153863363Y-101721439D01*
X153863290Y-101721590D01*
X153834926Y-101779608D01*
X153825000Y-101847731D01*
X153825000Y-102114268D01*
X153834926Y-102182391D01*
X153834927Y-102182393D01*
X153863362Y-102240559D01*
X153863363Y-102240560D01*
X153878148Y-102316258D01*
X153863363Y-102371439D01*
X153859045Y-102380271D01*
X153834926Y-102429608D01*
X153825000Y-102497731D01*
X153825000Y-102764268D01*
X153834926Y-102832391D01*
X153834927Y-102832393D01*
X153863362Y-102890559D01*
X153863363Y-102890560D01*
X153878148Y-102966258D01*
X153863363Y-103021439D01*
X153859045Y-103030271D01*
X153834926Y-103079608D01*
X153825000Y-103147731D01*
X153825000Y-103414268D01*
X153834926Y-103482391D01*
X153834927Y-103482393D01*
X153863362Y-103540559D01*
X153863363Y-103540560D01*
X153878148Y-103616258D01*
X153863363Y-103671439D01*
X153859045Y-103680271D01*
X153834926Y-103729608D01*
X153825000Y-103797731D01*
X153825000Y-104064268D01*
X153834926Y-104132393D01*
X153834926Y-104132394D01*
X153886300Y-104237481D01*
X153969018Y-104320199D01*
X154074105Y-104371573D01*
X154142231Y-104381499D01*
X154142237Y-104381499D01*
X154142240Y-104381500D01*
X154142241Y-104381500D01*
X155483759Y-104381500D01*
X155483760Y-104381500D01*
X155483763Y-104381499D01*
X155483768Y-104381499D01*
X155498841Y-104379302D01*
X155551893Y-104371573D01*
X155557930Y-104368621D01*
X155633624Y-104353834D01*
X155706574Y-104378876D01*
X155728729Y-104397122D01*
X156763248Y-105431641D01*
X156801812Y-105498436D01*
X156801812Y-105575564D01*
X156763248Y-105642359D01*
X155788748Y-106616859D01*
X155721953Y-106655423D01*
X155683389Y-106660500D01*
X148334646Y-106660500D01*
X148260146Y-106640538D01*
X148205608Y-106586000D01*
X148185646Y-106511500D01*
X148203236Y-106441269D01*
X148206632Y-106434914D01*
X148244064Y-106344544D01*
X148282051Y-106252835D01*
X148320500Y-106059541D01*
X148320500Y-105862459D01*
X148282051Y-105669165D01*
X148206632Y-105487086D01*
X148097139Y-105323218D01*
X147957782Y-105183861D01*
X147882295Y-105133422D01*
X147787828Y-105070301D01*
X147789375Y-105067984D01*
X147742927Y-105024433D01*
X147720577Y-104950615D01*
X147720500Y-104945819D01*
X147720500Y-104480500D01*
X147740462Y-104406000D01*
X147795000Y-104351462D01*
X147869500Y-104331500D01*
X148232666Y-104331500D01*
X148298105Y-104346639D01*
X148349107Y-104371573D01*
X148370826Y-104374737D01*
X148417231Y-104381499D01*
X148417237Y-104381499D01*
X148417240Y-104381500D01*
X148417241Y-104381500D01*
X149758759Y-104381500D01*
X149758760Y-104381500D01*
X149758763Y-104381499D01*
X149758768Y-104381499D01*
X149826893Y-104371573D01*
X149826894Y-104371573D01*
X149931981Y-104320199D01*
X149931981Y-104320198D01*
X149931983Y-104320198D01*
X150014698Y-104237483D01*
X150036441Y-104193007D01*
X150066073Y-104132394D01*
X150066073Y-104132393D01*
X150075999Y-104064268D01*
X150076000Y-104064258D01*
X150076000Y-103797741D01*
X150075999Y-103797731D01*
X150066073Y-103729607D01*
X150050283Y-103697308D01*
X150037636Y-103671439D01*
X150022850Y-103595744D01*
X150037637Y-103540560D01*
X150066073Y-103482393D01*
X150075153Y-103420075D01*
X150075999Y-103414268D01*
X150076000Y-103414258D01*
X150076000Y-103147741D01*
X150075999Y-103147731D01*
X150066073Y-103079607D01*
X150037636Y-103021439D01*
X150022850Y-102945744D01*
X150037637Y-102890560D01*
X150066073Y-102832393D01*
X150076000Y-102764260D01*
X150076000Y-102497740D01*
X150075931Y-102497268D01*
X150066073Y-102429607D01*
X150059407Y-102415972D01*
X150037636Y-102371439D01*
X150022850Y-102295744D01*
X150037637Y-102240560D01*
X150066073Y-102182393D01*
X150076000Y-102114260D01*
X150076000Y-101847740D01*
X150075383Y-101843508D01*
X150066073Y-101779607D01*
X150037636Y-101721439D01*
X150022850Y-101645744D01*
X150037637Y-101590560D01*
X150066073Y-101532393D01*
X150071180Y-101497340D01*
X150075999Y-101464268D01*
X150076000Y-101464258D01*
X150076000Y-101197741D01*
X150075999Y-101197731D01*
X150066073Y-101129607D01*
X150061428Y-101120106D01*
X150037636Y-101071439D01*
X150022850Y-100995744D01*
X150037637Y-100940560D01*
X150066073Y-100882393D01*
X150076000Y-100814260D01*
X150076000Y-100547740D01*
X150075533Y-100544538D01*
X150066073Y-100479606D01*
X150063609Y-100471632D01*
X150060686Y-100394559D01*
X150096692Y-100326351D01*
X150100582Y-100322309D01*
X150907897Y-99514995D01*
X157524500Y-99514995D01*
X157524500Y-102415003D01*
X157533094Y-102499127D01*
X157535001Y-102517797D01*
X157590186Y-102684334D01*
X157682288Y-102833656D01*
X157806344Y-102957712D01*
X157955666Y-103049814D01*
X158122203Y-103104999D01*
X158224991Y-103115500D01*
X159325008Y-103115499D01*
X159427797Y-103104999D01*
X159594334Y-103049814D01*
X159743656Y-102957712D01*
X159867712Y-102833656D01*
X159959814Y-102684334D01*
X160014999Y-102517797D01*
X160025500Y-102415009D01*
X160025500Y-101514500D01*
X160045462Y-101440000D01*
X160100000Y-101385462D01*
X160174500Y-101365500D01*
X161999273Y-101365500D01*
X163694174Y-101365500D01*
X163768674Y-101385462D01*
X163823212Y-101440000D01*
X163837255Y-101472924D01*
X163871382Y-101590390D01*
X163948974Y-101721590D01*
X163951829Y-101726418D01*
X163951831Y-101726421D01*
X164063578Y-101838168D01*
X164063584Y-101838173D01*
X164072609Y-101843510D01*
X164126574Y-101898615D01*
X164145757Y-101973319D01*
X164125017Y-102047606D01*
X164069912Y-102101571D01*
X164062968Y-102105247D01*
X163975971Y-102148394D01*
X163827636Y-102267629D01*
X163827629Y-102267636D01*
X163708393Y-102415972D01*
X163623830Y-102586478D01*
X163577896Y-102771181D01*
X163575000Y-102813909D01*
X163575000Y-103015000D01*
X166575000Y-103015000D01*
X166575000Y-102813909D01*
X166572103Y-102771181D01*
X166526169Y-102586478D01*
X166441606Y-102415972D01*
X166322370Y-102267636D01*
X166322363Y-102267629D01*
X166174028Y-102148394D01*
X166087031Y-102105247D01*
X166029158Y-102054262D01*
X166004531Y-101981171D01*
X166019749Y-101905559D01*
X166070734Y-101847686D01*
X166077377Y-101843517D01*
X166086420Y-101838170D01*
X166198170Y-101726420D01*
X166278618Y-101590390D01*
X166312743Y-101472929D01*
X166352698Y-101406957D01*
X166420286Y-101369801D01*
X166455827Y-101365500D01*
X167412389Y-101365500D01*
X167486889Y-101385462D01*
X167517748Y-101409141D01*
X168410087Y-102301480D01*
X168410089Y-102301481D01*
X168410093Y-102301484D01*
X168501408Y-102354205D01*
X168501409Y-102354205D01*
X168501412Y-102354207D01*
X168603273Y-102381500D01*
X168996501Y-102381500D01*
X169071001Y-102401462D01*
X169125539Y-102456000D01*
X169130552Y-102466643D01*
X169134207Y-102473336D01*
X169220452Y-102588544D01*
X169220455Y-102588547D01*
X169335429Y-102674617D01*
X169383106Y-102735244D01*
X169394082Y-102811587D01*
X169365416Y-102883190D01*
X169304789Y-102930867D01*
X169293004Y-102935334D01*
X169258878Y-102946642D01*
X169109659Y-103038680D01*
X168985680Y-103162659D01*
X168893642Y-103311878D01*
X168838494Y-103478302D01*
X168838492Y-103478311D01*
X168828000Y-103581010D01*
X168828000Y-103631000D01*
X171277999Y-103631000D01*
X171277999Y-103581026D01*
X171267505Y-103478303D01*
X171212357Y-103311878D01*
X171120319Y-103162659D01*
X170996340Y-103038680D01*
X170847120Y-102946641D01*
X170812996Y-102935334D01*
X170782620Y-102915355D01*
X170751631Y-102896302D01*
X170750515Y-102894239D01*
X170748556Y-102892951D01*
X170732233Y-102860450D01*
X170714929Y-102828467D01*
X170714993Y-102826123D01*
X170713941Y-102824027D01*
X170716055Y-102787722D01*
X170717061Y-102751368D01*
X170718274Y-102749627D01*
X170718426Y-102747030D01*
X170757458Y-102685665D01*
X170768043Y-102675649D01*
X170770331Y-102674796D01*
X170885546Y-102588546D01*
X170947327Y-102506016D01*
X170956574Y-102497268D01*
X170979677Y-102484767D01*
X171000326Y-102468530D01*
X171015406Y-102465437D01*
X171024409Y-102460566D01*
X171037403Y-102460925D01*
X171058979Y-102456500D01*
X172064838Y-102456500D01*
X172139338Y-102476462D01*
X172193876Y-102531000D01*
X172204440Y-102553421D01*
X172207204Y-102560831D01*
X172207206Y-102560833D01*
X172207207Y-102560836D01*
X172293452Y-102676044D01*
X172293455Y-102676047D01*
X172408666Y-102762295D01*
X172408670Y-102762297D01*
X172543517Y-102812591D01*
X172603114Y-102818999D01*
X172603118Y-102818999D01*
X172603127Y-102819000D01*
X173598872Y-102818999D01*
X173658483Y-102812591D01*
X173788044Y-102764268D01*
X173793329Y-102762297D01*
X173793333Y-102762295D01*
X173853171Y-102717500D01*
X173908546Y-102676046D01*
X173968094Y-102596500D01*
X173994795Y-102560833D01*
X173994797Y-102560829D01*
X174025089Y-102479611D01*
X174045091Y-102425983D01*
X174051500Y-102366373D01*
X174051499Y-101745628D01*
X174045091Y-101686017D01*
X174019110Y-101616357D01*
X173994797Y-101551170D01*
X173994795Y-101551166D01*
X173908547Y-101435955D01*
X173908544Y-101435952D01*
X173793333Y-101349704D01*
X173793329Y-101349702D01*
X173658483Y-101299408D01*
X173634568Y-101296837D01*
X173562630Y-101269023D01*
X173514236Y-101208967D01*
X173501500Y-101148691D01*
X173501500Y-100714494D01*
X173521462Y-100639994D01*
X173576000Y-100585456D01*
X173634571Y-100566348D01*
X173683483Y-100561091D01*
X173785495Y-100523043D01*
X173818329Y-100510797D01*
X173818333Y-100510795D01*
X173876069Y-100467573D01*
X173933546Y-100424546D01*
X173997127Y-100339613D01*
X174019795Y-100309333D01*
X174019797Y-100309329D01*
X174059238Y-100203581D01*
X174070091Y-100174483D01*
X174074069Y-100137481D01*
X174076499Y-100114885D01*
X174076499Y-100114882D01*
X174076500Y-100114873D01*
X174076499Y-99519128D01*
X174070091Y-99459517D01*
X174052443Y-99412201D01*
X174019797Y-99324670D01*
X174019795Y-99324666D01*
X173933547Y-99209455D01*
X173933544Y-99209452D01*
X173818570Y-99123382D01*
X173770893Y-99062755D01*
X173759917Y-98986411D01*
X173788583Y-98914809D01*
X173849210Y-98867132D01*
X173860999Y-98862664D01*
X173895121Y-98851357D01*
X174044340Y-98759319D01*
X174168319Y-98635340D01*
X174260357Y-98486121D01*
X174315505Y-98319697D01*
X174315507Y-98319688D01*
X174325999Y-98216989D01*
X174326000Y-98216979D01*
X174326000Y-98167000D01*
X171876001Y-98167000D01*
X171876001Y-98216973D01*
X171886494Y-98319696D01*
X171941642Y-98486121D01*
X172033680Y-98635340D01*
X172157659Y-98759319D01*
X172306878Y-98851357D01*
X172341001Y-98862664D01*
X172405442Y-98905046D01*
X172440057Y-98973970D01*
X172435574Y-99050967D01*
X172393192Y-99115408D01*
X172383430Y-99123381D01*
X172268456Y-99209451D01*
X172268452Y-99209455D01*
X172182204Y-99324666D01*
X172182202Y-99324670D01*
X172131908Y-99459517D01*
X172125500Y-99519114D01*
X172125500Y-100114863D01*
X172125502Y-100114888D01*
X172131908Y-100174478D01*
X172131909Y-100174484D01*
X172182202Y-100309329D01*
X172182204Y-100309333D01*
X172268452Y-100424544D01*
X172268455Y-100424547D01*
X172383666Y-100510795D01*
X172383670Y-100510797D01*
X172518517Y-100561091D01*
X172567428Y-100566350D01*
X172639367Y-100594162D01*
X172687762Y-100654217D01*
X172700500Y-100714496D01*
X172700500Y-101148692D01*
X172680538Y-101223192D01*
X172626000Y-101277730D01*
X172567428Y-101296838D01*
X172543521Y-101299408D01*
X172543515Y-101299409D01*
X172408670Y-101349702D01*
X172408666Y-101349704D01*
X172293455Y-101435952D01*
X172293452Y-101435955D01*
X172207207Y-101551163D01*
X172207206Y-101551166D01*
X172207204Y-101551169D01*
X172204441Y-101558574D01*
X172159703Y-101621399D01*
X172089544Y-101653437D01*
X172064838Y-101655500D01*
X171137473Y-101655500D01*
X171062973Y-101635538D01*
X171008435Y-101581000D01*
X170997867Y-101558569D01*
X170995105Y-101551163D01*
X170971796Y-101488669D01*
X170971795Y-101488668D01*
X170971795Y-101488666D01*
X170885547Y-101373455D01*
X170885544Y-101373452D01*
X170770333Y-101287204D01*
X170770329Y-101287202D01*
X170635482Y-101236908D01*
X170575876Y-101230500D01*
X169530136Y-101230500D01*
X169530111Y-101230502D01*
X169470521Y-101236908D01*
X169470515Y-101236909D01*
X169335670Y-101287202D01*
X169335666Y-101287204D01*
X169220455Y-101373452D01*
X169220452Y-101373455D01*
X169134207Y-101488663D01*
X169129100Y-101498018D01*
X169127859Y-101497340D01*
X169125539Y-101506000D01*
X169106770Y-101524768D01*
X169091376Y-101546390D01*
X169079913Y-101551625D01*
X169071001Y-101560538D01*
X169045361Y-101567408D01*
X169021220Y-101578435D01*
X168996501Y-101580500D01*
X168883611Y-101580500D01*
X168809111Y-101560538D01*
X168778252Y-101536859D01*
X168336175Y-101094782D01*
X167885913Y-100644520D01*
X167885910Y-100644518D01*
X167885906Y-100644515D01*
X167794591Y-100591794D01*
X167794588Y-100591793D01*
X167767295Y-100584480D01*
X167692729Y-100564500D01*
X167692727Y-100564500D01*
X166455826Y-100564500D01*
X166381326Y-100544538D01*
X166326788Y-100490000D01*
X166312744Y-100457075D01*
X166278618Y-100339610D01*
X166198170Y-100203580D01*
X166086420Y-100091830D01*
X165950390Y-100011382D01*
X165858870Y-99984793D01*
X165798629Y-99967291D01*
X165798630Y-99967291D01*
X165788955Y-99966529D01*
X165763163Y-99964500D01*
X165763155Y-99964500D01*
X164386849Y-99964500D01*
X164386831Y-99964501D01*
X164351379Y-99967290D01*
X164351374Y-99967290D01*
X164351373Y-99967291D01*
X164199610Y-100011382D01*
X164063581Y-100091829D01*
X164063578Y-100091831D01*
X163951831Y-100203578D01*
X163951829Y-100203581D01*
X163904610Y-100283424D01*
X163871382Y-100339610D01*
X163855418Y-100394559D01*
X163837257Y-100457070D01*
X163797302Y-100523043D01*
X163729714Y-100560199D01*
X163694173Y-100564500D01*
X162601500Y-100564500D01*
X162527000Y-100544538D01*
X162472462Y-100490000D01*
X162452500Y-100415500D01*
X162452500Y-99033610D01*
X162472462Y-98959110D01*
X162496137Y-98928255D01*
X164538357Y-96886034D01*
X164605150Y-96847472D01*
X164673618Y-96847472D01*
X164673986Y-96845623D01*
X164681165Y-96847051D01*
X164874459Y-96885500D01*
X164874460Y-96885500D01*
X165071540Y-96885500D01*
X165071541Y-96885500D01*
X165264835Y-96847051D01*
X165446914Y-96771632D01*
X165610782Y-96662139D01*
X165750139Y-96522782D01*
X165859632Y-96358914D01*
X165935051Y-96176835D01*
X165973500Y-95983541D01*
X165973500Y-95786459D01*
X165935051Y-95593165D01*
X165859632Y-95411086D01*
X165750139Y-95247218D01*
X165610782Y-95107861D01*
X165509860Y-95040427D01*
X165446915Y-94998368D01*
X165446912Y-94998367D01*
X165264836Y-94922949D01*
X165264834Y-94922948D01*
X165109989Y-94892147D01*
X165071541Y-94884500D01*
X164874459Y-94884500D01*
X164842389Y-94890878D01*
X164681165Y-94922948D01*
X164681163Y-94922949D01*
X164499087Y-94998367D01*
X164499084Y-94998368D01*
X164335219Y-95107860D01*
X164335214Y-95107864D01*
X164195864Y-95247214D01*
X164195860Y-95247219D01*
X164086368Y-95411084D01*
X164086367Y-95411087D01*
X164010949Y-95593163D01*
X164010948Y-95593165D01*
X163978878Y-95754389D01*
X163972500Y-95786459D01*
X163972500Y-95983541D01*
X164003225Y-96138002D01*
X164012377Y-96184013D01*
X164009637Y-96184557D01*
X164011703Y-96248153D01*
X163975329Y-96316165D01*
X163971963Y-96319642D01*
X161731518Y-98560089D01*
X161731517Y-98560090D01*
X161678793Y-98651411D01*
X161671597Y-98678271D01*
X161671596Y-98678273D01*
X161651500Y-98753269D01*
X161651500Y-100415500D01*
X161631538Y-100490000D01*
X161577000Y-100544538D01*
X161502500Y-100564500D01*
X160174499Y-100564500D01*
X160099999Y-100544538D01*
X160045461Y-100490000D01*
X160025499Y-100415500D01*
X160025499Y-99514996D01*
X160025499Y-99514992D01*
X160014999Y-99412203D01*
X159959814Y-99245666D01*
X159867712Y-99096344D01*
X159743656Y-98972288D01*
X159594334Y-98880186D01*
X159507334Y-98851357D01*
X159427798Y-98825001D01*
X159410665Y-98823250D01*
X159325009Y-98814500D01*
X159325004Y-98814500D01*
X158224996Y-98814500D01*
X158122202Y-98825001D01*
X157955666Y-98880186D01*
X157806343Y-98972288D01*
X157682288Y-99096343D01*
X157590186Y-99245666D01*
X157535001Y-99412201D01*
X157533548Y-99426421D01*
X157525609Y-99504141D01*
X157524500Y-99514995D01*
X150907897Y-99514995D01*
X151241892Y-99181000D01*
X153583488Y-99181000D01*
X154129946Y-99181000D01*
X154140710Y-99181389D01*
X154142238Y-99181499D01*
X154142240Y-99181500D01*
X154142242Y-99181500D01*
X155483758Y-99181500D01*
X155483760Y-99181500D01*
X155483761Y-99181499D01*
X155485290Y-99181389D01*
X155496054Y-99181000D01*
X156042510Y-99181000D01*
X156056793Y-99164713D01*
X156074474Y-99152898D01*
X156088849Y-99137234D01*
X156105984Y-99131844D01*
X156120923Y-99121863D01*
X156130242Y-99119036D01*
X156185588Y-99104207D01*
X156276913Y-99051480D01*
X161539252Y-93789141D01*
X161606047Y-93750577D01*
X161644611Y-93745500D01*
X173153727Y-93745500D01*
X173255587Y-93718207D01*
X173346913Y-93665480D01*
X173421480Y-93590913D01*
X173474207Y-93499587D01*
X173501500Y-93397727D01*
X173501500Y-92728307D01*
X173521462Y-92653807D01*
X173576000Y-92599269D01*
X173634571Y-92580161D01*
X173658483Y-92577591D01*
X173752669Y-92542462D01*
X173793329Y-92527297D01*
X173793333Y-92527295D01*
X173850938Y-92484171D01*
X173908546Y-92441046D01*
X173961357Y-92370500D01*
X173994795Y-92325833D01*
X173994797Y-92325829D01*
X174015174Y-92271193D01*
X174045091Y-92190983D01*
X174047819Y-92165606D01*
X174051499Y-92131385D01*
X174051499Y-92131382D01*
X174051500Y-92131373D01*
X174051499Y-91510628D01*
X174045091Y-91451017D01*
X174017432Y-91376859D01*
X173994797Y-91316170D01*
X173994795Y-91316166D01*
X173908547Y-91200955D01*
X173908544Y-91200952D01*
X173793333Y-91114704D01*
X173793329Y-91114702D01*
X173658482Y-91064408D01*
X173598885Y-91058000D01*
X173598873Y-91058000D01*
X172966111Y-91058000D01*
X172947163Y-91052923D01*
X172927547Y-91052923D01*
X172910559Y-91043115D01*
X172891611Y-91038038D01*
X172860752Y-91014359D01*
X172859751Y-91013358D01*
X172821187Y-90946563D01*
X172821187Y-90869435D01*
X172859751Y-90802640D01*
X172926546Y-90764076D01*
X172965110Y-90758999D01*
X173598864Y-90758999D01*
X173598872Y-90758999D01*
X173658483Y-90752591D01*
X173764026Y-90713226D01*
X173793329Y-90702297D01*
X173793333Y-90702295D01*
X173850938Y-90659171D01*
X173908546Y-90616046D01*
X173964828Y-90540863D01*
X173994795Y-90500833D01*
X173994797Y-90500829D01*
X174042198Y-90373739D01*
X174045091Y-90365983D01*
X174051500Y-90306373D01*
X174051499Y-89685628D01*
X174045091Y-89626017D01*
X174018417Y-89554499D01*
X173994797Y-89491170D01*
X173994795Y-89491166D01*
X173908547Y-89375955D01*
X173908544Y-89375952D01*
X173793333Y-89289704D01*
X173793329Y-89289702D01*
X173658483Y-89239408D01*
X173634568Y-89236837D01*
X173562630Y-89209023D01*
X173514236Y-89148967D01*
X173501500Y-89088691D01*
X173501500Y-87949307D01*
X173521462Y-87874807D01*
X173576000Y-87820269D01*
X173634571Y-87801161D01*
X173658483Y-87798591D01*
X173725907Y-87773443D01*
X173793329Y-87748297D01*
X173793333Y-87748295D01*
X173859517Y-87698749D01*
X173908546Y-87662046D01*
X173994796Y-87546831D01*
X173995659Y-87544519D01*
X174037252Y-87433000D01*
X174045091Y-87411983D01*
X174050411Y-87362500D01*
X174051499Y-87352385D01*
X174051499Y-87352382D01*
X174051500Y-87352373D01*
X174051499Y-86731628D01*
X174045091Y-86672017D01*
X174030588Y-86633133D01*
X173994797Y-86537170D01*
X173994795Y-86537166D01*
X173908547Y-86421955D01*
X173908544Y-86421952D01*
X173793333Y-86335704D01*
X173793329Y-86335702D01*
X173658482Y-86285408D01*
X173598876Y-86279000D01*
X172603136Y-86279000D01*
X172603111Y-86279002D01*
X172543521Y-86285408D01*
X172543515Y-86285409D01*
X172408670Y-86335702D01*
X172408666Y-86335704D01*
X172293455Y-86421952D01*
X172293452Y-86421955D01*
X172207204Y-86537166D01*
X172207202Y-86537170D01*
X172156908Y-86672017D01*
X172150500Y-86731614D01*
X172150500Y-87352363D01*
X172150502Y-87352388D01*
X172156908Y-87411978D01*
X172156909Y-87411984D01*
X172207202Y-87546829D01*
X172207204Y-87546833D01*
X172293452Y-87662044D01*
X172293455Y-87662047D01*
X172408666Y-87748295D01*
X172408670Y-87748297D01*
X172543517Y-87798591D01*
X172567427Y-87801162D01*
X172639367Y-87828973D01*
X172687762Y-87889028D01*
X172700500Y-87949308D01*
X172700500Y-89088692D01*
X172680538Y-89163192D01*
X172626000Y-89217730D01*
X172567428Y-89236838D01*
X172543521Y-89239408D01*
X172543515Y-89239409D01*
X172408670Y-89289702D01*
X172408666Y-89289704D01*
X172293455Y-89375952D01*
X172293452Y-89375955D01*
X172207204Y-89491166D01*
X172207202Y-89491170D01*
X172156908Y-89626017D01*
X172150500Y-89685614D01*
X172150500Y-90306363D01*
X172150501Y-90306373D01*
X172156908Y-90365977D01*
X172158742Y-90373739D01*
X172156445Y-90450833D01*
X172115909Y-90516450D01*
X172047995Y-90553008D01*
X172013734Y-90557000D01*
X171648266Y-90557000D01*
X171573766Y-90537038D01*
X171519228Y-90482500D01*
X171499266Y-90408000D01*
X171503259Y-90373735D01*
X171505087Y-90365991D01*
X171505091Y-90365983D01*
X171511500Y-90306373D01*
X171511499Y-89685628D01*
X171505091Y-89626017D01*
X171478417Y-89554499D01*
X171454797Y-89491170D01*
X171454795Y-89491166D01*
X171368547Y-89375955D01*
X171368544Y-89375952D01*
X171253333Y-89289704D01*
X171253329Y-89289702D01*
X171118483Y-89239408D01*
X171094568Y-89236837D01*
X171022630Y-89209023D01*
X170974236Y-89148967D01*
X170961500Y-89088691D01*
X170961500Y-87949307D01*
X170981462Y-87874807D01*
X171036000Y-87820269D01*
X171094571Y-87801161D01*
X171118483Y-87798591D01*
X171185907Y-87773443D01*
X171253329Y-87748297D01*
X171253333Y-87748295D01*
X171319517Y-87698749D01*
X171368546Y-87662046D01*
X171454796Y-87546831D01*
X171455659Y-87544519D01*
X171497252Y-87433000D01*
X171505091Y-87411983D01*
X171510411Y-87362500D01*
X171511499Y-87352385D01*
X171511499Y-87352382D01*
X171511500Y-87352373D01*
X171511499Y-86731628D01*
X171505091Y-86672017D01*
X171490588Y-86633133D01*
X171454797Y-86537170D01*
X171454795Y-86537166D01*
X171368547Y-86421955D01*
X171368544Y-86421952D01*
X171253333Y-86335704D01*
X171253329Y-86335702D01*
X171118482Y-86285408D01*
X171058876Y-86279000D01*
X170063136Y-86279000D01*
X170063111Y-86279002D01*
X170003521Y-86285408D01*
X170003512Y-86285410D01*
X169923549Y-86315234D01*
X169916328Y-86315923D01*
X169910045Y-86319551D01*
X169878336Y-86319551D01*
X169846770Y-86322565D01*
X169840171Y-86319551D01*
X169832917Y-86319551D01*
X169805458Y-86303697D01*
X169776613Y-86290524D01*
X169772405Y-86284614D01*
X169766122Y-86280987D01*
X169750265Y-86253523D01*
X169731875Y-86227696D01*
X169731185Y-86220475D01*
X169727558Y-86214192D01*
X169727558Y-86182483D01*
X169724544Y-86150917D01*
X169727558Y-86144317D01*
X169727558Y-86137064D01*
X169743411Y-86109605D01*
X169756585Y-86080760D01*
X169766110Y-86070281D01*
X169833319Y-86003072D01*
X169900112Y-85964510D01*
X169977240Y-85964510D01*
X169990746Y-85968828D01*
X169996920Y-85971130D01*
X170003517Y-85973591D01*
X170016200Y-85974954D01*
X170063114Y-85979999D01*
X170063118Y-85979999D01*
X170063127Y-85980000D01*
X171058872Y-85979999D01*
X171118483Y-85973591D01*
X171220972Y-85935365D01*
X171253329Y-85923297D01*
X171253333Y-85923295D01*
X171318304Y-85874657D01*
X171368546Y-85837046D01*
X171454796Y-85721831D01*
X171457558Y-85714425D01*
X171502297Y-85651601D01*
X171572456Y-85619563D01*
X171597162Y-85617500D01*
X172064838Y-85617500D01*
X172139338Y-85637462D01*
X172193876Y-85692000D01*
X172204440Y-85714421D01*
X172207204Y-85721831D01*
X172207206Y-85721833D01*
X172207207Y-85721836D01*
X172293452Y-85837044D01*
X172293455Y-85837047D01*
X172408666Y-85923295D01*
X172408670Y-85923297D01*
X172543517Y-85973591D01*
X172603114Y-85979999D01*
X172603118Y-85979999D01*
X172603127Y-85980000D01*
X173598872Y-85979999D01*
X173658483Y-85973591D01*
X173760972Y-85935365D01*
X173793329Y-85923297D01*
X173793333Y-85923295D01*
X173858304Y-85874657D01*
X173908546Y-85837046D01*
X173953190Y-85777410D01*
X173994795Y-85721833D01*
X173994797Y-85721829D01*
X174020990Y-85651601D01*
X174045091Y-85586983D01*
X174051500Y-85527373D01*
X174051499Y-84906628D01*
X174045091Y-84847017D01*
X174012966Y-84760885D01*
X173994797Y-84712170D01*
X173994795Y-84712166D01*
X173908547Y-84596955D01*
X173908544Y-84596952D01*
X173793333Y-84510704D01*
X173793329Y-84510702D01*
X173658482Y-84460408D01*
X173598876Y-84454000D01*
X172603136Y-84454000D01*
X172603111Y-84454002D01*
X172543521Y-84460408D01*
X172543515Y-84460409D01*
X172408670Y-84510702D01*
X172408666Y-84510704D01*
X172293455Y-84596952D01*
X172293452Y-84596955D01*
X172207207Y-84712163D01*
X172207206Y-84712166D01*
X172207204Y-84712169D01*
X172204441Y-84719574D01*
X172159703Y-84782399D01*
X172089544Y-84814437D01*
X172064838Y-84816500D01*
X171597162Y-84816500D01*
X171522662Y-84796538D01*
X171468124Y-84742000D01*
X171457559Y-84719578D01*
X171454796Y-84712169D01*
X171438126Y-84689901D01*
X171368547Y-84596955D01*
X171368544Y-84596952D01*
X171253333Y-84510704D01*
X171253329Y-84510702D01*
X171118482Y-84460408D01*
X171058876Y-84454000D01*
X170063136Y-84454000D01*
X170063111Y-84454002D01*
X170003521Y-84460408D01*
X170003515Y-84460409D01*
X169868670Y-84510702D01*
X169868666Y-84510704D01*
X169753455Y-84596952D01*
X169753452Y-84596955D01*
X169667204Y-84712166D01*
X169667202Y-84712170D01*
X169616908Y-84847017D01*
X169610500Y-84906614D01*
X169610500Y-85031388D01*
X169590538Y-85105888D01*
X169566859Y-85136747D01*
X168334748Y-86368859D01*
X168267953Y-86407423D01*
X168229389Y-86412500D01*
X165749499Y-86412500D01*
X165674999Y-86392538D01*
X165620461Y-86338000D01*
X165600499Y-86263500D01*
X165600499Y-86081481D01*
X165595098Y-86047377D01*
X165585646Y-85987696D01*
X165528050Y-85874658D01*
X165438342Y-85784950D01*
X165423544Y-85777410D01*
X165325305Y-85727354D01*
X165309673Y-85724878D01*
X165231519Y-85712500D01*
X165231514Y-85712500D01*
X164868481Y-85712500D01*
X164774695Y-85727354D01*
X164774690Y-85727356D01*
X164670674Y-85780355D01*
X164595232Y-85796391D01*
X164521878Y-85772557D01*
X164474781Y-85723444D01*
X164467687Y-85711450D01*
X164467681Y-85711442D01*
X164351557Y-85595318D01*
X164351554Y-85595316D01*
X164210197Y-85511718D01*
X164052489Y-85465899D01*
X164050000Y-85465702D01*
X164050000Y-88160296D01*
X164052488Y-88160100D01*
X164210196Y-88114281D01*
X164210197Y-88114281D01*
X164351554Y-88030683D01*
X164351557Y-88030681D01*
X164395141Y-87987098D01*
X164412128Y-87977290D01*
X164426000Y-87963419D01*
X164444948Y-87958341D01*
X164461936Y-87948534D01*
X164481552Y-87948534D01*
X164500500Y-87943457D01*
X164519448Y-87948534D01*
X164539064Y-87948534D01*
X164556051Y-87958341D01*
X164575000Y-87963419D01*
X164588871Y-87977290D01*
X164605859Y-87987098D01*
X164615666Y-88004085D01*
X164629538Y-88017957D01*
X164634615Y-88036905D01*
X164644423Y-88053893D01*
X164649500Y-88092457D01*
X164649500Y-88188819D01*
X164629538Y-88263319D01*
X164581124Y-88311732D01*
X164582172Y-88313301D01*
X164412219Y-88426860D01*
X164412214Y-88426864D01*
X164272864Y-88566214D01*
X164272860Y-88566219D01*
X164163368Y-88730084D01*
X164163367Y-88730087D01*
X164087949Y-88912163D01*
X164087948Y-88912165D01*
X164055878Y-89073389D01*
X164051400Y-89095910D01*
X164049500Y-89105460D01*
X164049500Y-89302539D01*
X164087948Y-89495834D01*
X164087949Y-89495836D01*
X164163367Y-89677912D01*
X164163368Y-89677915D01*
X164236197Y-89786911D01*
X164272861Y-89841782D01*
X164412218Y-89981139D01*
X164501254Y-90040631D01*
X164576084Y-90090631D01*
X164576085Y-90090631D01*
X164576086Y-90090632D01*
X164758165Y-90166051D01*
X164951459Y-90204500D01*
X164951460Y-90204500D01*
X165148540Y-90204500D01*
X165148541Y-90204500D01*
X165341835Y-90166051D01*
X165523914Y-90090632D01*
X165687782Y-89981139D01*
X165827139Y-89841782D01*
X165936632Y-89677914D01*
X166012051Y-89495835D01*
X166050500Y-89302541D01*
X166050500Y-89105459D01*
X166012051Y-88912165D01*
X165936632Y-88730086D01*
X165827139Y-88566218D01*
X165687782Y-88426861D01*
X165612950Y-88376860D01*
X165517828Y-88313301D01*
X165518875Y-88311732D01*
X165499360Y-88292217D01*
X165472927Y-88267433D01*
X165472210Y-88265067D01*
X165470462Y-88263319D01*
X165461079Y-88228304D01*
X165450577Y-88193615D01*
X165450500Y-88188819D01*
X165450500Y-87890610D01*
X165470462Y-87816110D01*
X165494141Y-87785251D01*
X165528050Y-87751342D01*
X165585646Y-87638304D01*
X165600500Y-87544519D01*
X165600500Y-87362500D01*
X165620462Y-87288000D01*
X165675000Y-87233462D01*
X165749500Y-87213500D01*
X168509725Y-87213500D01*
X168509727Y-87213500D01*
X168611588Y-87186207D01*
X168702913Y-87133480D01*
X169401771Y-86434621D01*
X169468563Y-86396059D01*
X169545691Y-86396059D01*
X169612486Y-86434623D01*
X169651050Y-86501418D01*
X169651050Y-86578546D01*
X169646733Y-86592050D01*
X169616908Y-86672015D01*
X169610500Y-86731614D01*
X169610500Y-87352363D01*
X169610502Y-87352388D01*
X169616908Y-87411978D01*
X169616909Y-87411984D01*
X169667202Y-87546829D01*
X169667204Y-87546833D01*
X169753452Y-87662044D01*
X169753455Y-87662047D01*
X169868666Y-87748295D01*
X169868670Y-87748297D01*
X170003517Y-87798591D01*
X170027427Y-87801162D01*
X170099367Y-87828973D01*
X170147762Y-87889028D01*
X170160500Y-87949308D01*
X170160500Y-89088692D01*
X170140538Y-89163192D01*
X170086000Y-89217730D01*
X170027428Y-89236838D01*
X170003521Y-89239408D01*
X170003515Y-89239409D01*
X169868670Y-89289702D01*
X169868666Y-89289704D01*
X169753455Y-89375952D01*
X169753452Y-89375955D01*
X169667204Y-89491166D01*
X169667202Y-89491170D01*
X169616908Y-89626017D01*
X169610500Y-89685614D01*
X169610500Y-90306363D01*
X169610501Y-90306373D01*
X169616908Y-90365977D01*
X169618742Y-90373739D01*
X169616445Y-90450833D01*
X169575909Y-90516450D01*
X169507995Y-90553008D01*
X169473734Y-90557000D01*
X163321111Y-90557000D01*
X163246611Y-90537038D01*
X163215752Y-90513359D01*
X162994141Y-90291748D01*
X162955577Y-90224953D01*
X162950500Y-90186389D01*
X162950500Y-88092457D01*
X162970462Y-88017957D01*
X163025000Y-87963419D01*
X163099500Y-87943457D01*
X163174000Y-87963419D01*
X163204859Y-87987098D01*
X163248442Y-88030681D01*
X163248445Y-88030683D01*
X163389802Y-88114281D01*
X163547511Y-88160100D01*
X163549999Y-88160296D01*
X163550000Y-88160295D01*
X163550000Y-85465702D01*
X163549999Y-85465702D01*
X163547510Y-85465899D01*
X163389803Y-85511718D01*
X163389802Y-85511718D01*
X163248445Y-85595316D01*
X163248442Y-85595318D01*
X163132318Y-85711442D01*
X163132314Y-85711447D01*
X163125216Y-85723449D01*
X163070107Y-85777410D01*
X162995401Y-85796587D01*
X162929324Y-85780355D01*
X162825305Y-85727354D01*
X162809673Y-85724878D01*
X162731519Y-85712500D01*
X162731514Y-85712500D01*
X162368481Y-85712500D01*
X162274695Y-85727354D01*
X162274693Y-85727355D01*
X162161657Y-85784950D01*
X162071950Y-85874657D01*
X162057759Y-85902509D01*
X162006149Y-85959825D01*
X161932796Y-85983658D01*
X161857353Y-85967621D01*
X161800037Y-85916011D01*
X161792241Y-85902509D01*
X161778049Y-85874657D01*
X161688342Y-85784950D01*
X161575305Y-85727354D01*
X161559673Y-85724878D01*
X161481519Y-85712500D01*
X161481514Y-85712500D01*
X161118481Y-85712500D01*
X161024695Y-85727354D01*
X161024693Y-85727355D01*
X160911657Y-85784950D01*
X160821950Y-85874657D01*
X160807759Y-85902509D01*
X160756149Y-85959825D01*
X160682796Y-85983658D01*
X160607353Y-85967621D01*
X160550037Y-85916011D01*
X160542241Y-85902509D01*
X160528049Y-85874657D01*
X160438342Y-85784950D01*
X160325305Y-85727354D01*
X160309673Y-85724878D01*
X160231519Y-85712500D01*
X160231514Y-85712500D01*
X159868481Y-85712500D01*
X159774695Y-85727354D01*
X159774693Y-85727355D01*
X159661657Y-85784950D01*
X159571950Y-85874657D01*
X159557759Y-85902509D01*
X159506149Y-85959825D01*
X159432796Y-85983658D01*
X159357353Y-85967621D01*
X159300037Y-85916011D01*
X159292241Y-85902509D01*
X159278049Y-85874657D01*
X159188342Y-85784950D01*
X159075305Y-85727354D01*
X159059673Y-85724878D01*
X158981519Y-85712500D01*
X158981514Y-85712500D01*
X158618481Y-85712500D01*
X158524695Y-85727354D01*
X158524693Y-85727355D01*
X158411657Y-85784950D01*
X158321950Y-85874657D01*
X158264354Y-85987694D01*
X158264354Y-85987696D01*
X158249500Y-86081481D01*
X158249500Y-86081482D01*
X158249500Y-86081485D01*
X158249500Y-87544518D01*
X158264354Y-87638304D01*
X158321950Y-87751342D01*
X158411658Y-87841050D01*
X158524696Y-87898646D01*
X158618481Y-87913500D01*
X158981518Y-87913499D01*
X159075304Y-87898646D01*
X159188342Y-87841050D01*
X159278050Y-87751342D01*
X159292240Y-87723491D01*
X159343849Y-87666175D01*
X159417203Y-87642341D01*
X159492645Y-87658377D01*
X159549962Y-87709986D01*
X159557757Y-87723486D01*
X159571950Y-87751342D01*
X159661658Y-87841050D01*
X159774696Y-87898646D01*
X159868481Y-87913500D01*
X160231518Y-87913499D01*
X160325304Y-87898646D01*
X160438342Y-87841050D01*
X160528050Y-87751342D01*
X160542240Y-87723491D01*
X160593849Y-87666175D01*
X160667203Y-87642341D01*
X160742645Y-87658377D01*
X160793685Y-87701055D01*
X160801724Y-87711646D01*
X160821950Y-87751342D01*
X160863040Y-87792432D01*
X160869185Y-87800528D01*
X160880047Y-87827146D01*
X160894423Y-87852046D01*
X160896430Y-87867293D01*
X160898326Y-87871939D01*
X160897671Y-87876718D01*
X160899500Y-87890610D01*
X160899500Y-92103887D01*
X160879538Y-92178387D01*
X160855859Y-92209246D01*
X156055359Y-97009746D01*
X155988564Y-97048310D01*
X155911436Y-97048310D01*
X155844641Y-97009746D01*
X155806077Y-96942951D01*
X155801000Y-96904387D01*
X155801000Y-96647737D01*
X155800999Y-96647731D01*
X155791073Y-96579607D01*
X155762636Y-96521439D01*
X155747850Y-96445744D01*
X155762637Y-96390560D01*
X155791073Y-96332393D01*
X155798568Y-96280952D01*
X155800999Y-96264268D01*
X155801000Y-96264258D01*
X155801000Y-95997741D01*
X155800999Y-95997731D01*
X155791073Y-95929607D01*
X155789554Y-95926500D01*
X155762636Y-95871439D01*
X155747850Y-95795744D01*
X155762637Y-95740560D01*
X155791073Y-95682393D01*
X155801000Y-95614260D01*
X155801000Y-95347740D01*
X155791073Y-95279607D01*
X155791073Y-95279606D01*
X155791073Y-95279605D01*
X155739699Y-95174518D01*
X155656981Y-95091800D01*
X155551894Y-95040426D01*
X155483768Y-95030500D01*
X155483760Y-95030500D01*
X154142240Y-95030500D01*
X154142231Y-95030500D01*
X154074106Y-95040426D01*
X154074105Y-95040426D01*
X153969018Y-95091800D01*
X153886300Y-95174518D01*
X153834926Y-95279605D01*
X153834926Y-95279606D01*
X153825000Y-95347731D01*
X153825000Y-95614268D01*
X153834926Y-95682391D01*
X153834927Y-95682393D01*
X153863362Y-95740559D01*
X153863363Y-95740560D01*
X153878148Y-95816258D01*
X153863363Y-95871439D01*
X153862838Y-95872513D01*
X153834926Y-95929608D01*
X153825000Y-95997731D01*
X153825000Y-96264268D01*
X153834926Y-96332391D01*
X153834927Y-96332393D01*
X153863362Y-96390559D01*
X153863363Y-96390560D01*
X153878148Y-96466258D01*
X153863363Y-96521439D01*
X153862708Y-96522780D01*
X153834926Y-96579608D01*
X153825000Y-96647731D01*
X153825000Y-96914268D01*
X153834926Y-96982391D01*
X153834927Y-96982393D01*
X153863362Y-97040559D01*
X153863363Y-97040560D01*
X153878148Y-97116258D01*
X153863363Y-97171439D01*
X153859045Y-97180271D01*
X153834926Y-97229608D01*
X153825000Y-97297731D01*
X153825000Y-97564268D01*
X153834926Y-97632391D01*
X153834927Y-97632393D01*
X153863362Y-97690559D01*
X153863363Y-97690560D01*
X153878148Y-97766258D01*
X153863363Y-97821439D01*
X153859045Y-97830271D01*
X153834926Y-97879608D01*
X153825000Y-97947731D01*
X153825000Y-98214268D01*
X153834926Y-98282391D01*
X153834927Y-98282393D01*
X153863362Y-98340559D01*
X153863363Y-98340560D01*
X153878148Y-98416258D01*
X153863363Y-98471439D01*
X153861157Y-98475953D01*
X153834926Y-98529608D01*
X153825000Y-98597731D01*
X153825000Y-98720185D01*
X153805038Y-98794685D01*
X153766708Y-98838392D01*
X153747579Y-98853070D01*
X153747572Y-98853077D01*
X153651401Y-98978410D01*
X153590944Y-99124367D01*
X153590944Y-99124368D01*
X153583488Y-99181000D01*
X151241892Y-99181000D01*
X151530480Y-98892412D01*
X151583207Y-98801087D01*
X151610500Y-98699226D01*
X151610500Y-98593772D01*
X151610500Y-93725179D01*
X151630462Y-93650679D01*
X151678874Y-93602266D01*
X151677827Y-93600699D01*
X151692476Y-93590911D01*
X151847782Y-93487139D01*
X151987139Y-93347782D01*
X152096632Y-93183914D01*
X152172051Y-93001835D01*
X152210500Y-92808541D01*
X152210500Y-92611459D01*
X152172051Y-92418165D01*
X152096632Y-92236086D01*
X152066494Y-92190982D01*
X152026658Y-92131363D01*
X151987139Y-92072218D01*
X151847782Y-91932861D01*
X151765331Y-91877769D01*
X151677828Y-91819301D01*
X151679375Y-91816984D01*
X151632927Y-91773433D01*
X151610577Y-91699615D01*
X151610500Y-91694819D01*
X151610500Y-91079161D01*
X151630462Y-91004661D01*
X151685000Y-90950123D01*
X151707429Y-90939556D01*
X151714831Y-90936796D01*
X151830046Y-90850546D01*
X151873171Y-90792938D01*
X151916295Y-90735333D01*
X151916297Y-90735329D01*
X151963872Y-90607772D01*
X151966591Y-90600483D01*
X151971266Y-90557000D01*
X151972999Y-90540885D01*
X151972999Y-90540882D01*
X151973000Y-90540873D01*
X151972999Y-89545128D01*
X151966591Y-89485517D01*
X151930851Y-89389692D01*
X151916297Y-89350670D01*
X151916295Y-89350666D01*
X151830047Y-89235455D01*
X151830044Y-89235452D01*
X151714833Y-89149204D01*
X151714829Y-89149202D01*
X151579982Y-89098908D01*
X151520376Y-89092500D01*
X150899636Y-89092500D01*
X150899611Y-89092502D01*
X150840021Y-89098908D01*
X150840015Y-89098909D01*
X150705170Y-89149202D01*
X150705166Y-89149204D01*
X150589955Y-89235452D01*
X150589952Y-89235455D01*
X150503704Y-89350666D01*
X150503702Y-89350670D01*
X150453408Y-89485517D01*
X150450838Y-89509427D01*
X150423027Y-89581367D01*
X150362972Y-89629762D01*
X150302692Y-89642500D01*
X146150610Y-89642500D01*
X146076110Y-89622538D01*
X146045251Y-89598859D01*
X145174141Y-88727748D01*
X145135577Y-88660953D01*
X145130500Y-88622389D01*
X145130500Y-87890610D01*
X145150462Y-87816110D01*
X145174141Y-87785251D01*
X145208050Y-87751342D01*
X145265646Y-87638304D01*
X145280500Y-87544519D01*
X145280499Y-86738818D01*
X150172500Y-86738818D01*
X150182905Y-86840670D01*
X150237594Y-87005709D01*
X150237594Y-87005710D01*
X150328866Y-87153686D01*
X150451813Y-87276633D01*
X150599789Y-87367905D01*
X150764829Y-87422593D01*
X150764829Y-87422594D01*
X150866681Y-87432999D01*
X150866692Y-87433000D01*
X150910000Y-87433000D01*
X151410000Y-87433000D01*
X151453308Y-87433000D01*
X151453318Y-87432999D01*
X151555170Y-87422594D01*
X151555170Y-87422593D01*
X151720209Y-87367905D01*
X151720210Y-87367905D01*
X151868186Y-87276633D01*
X151991133Y-87153686D01*
X152082404Y-87005712D01*
X152093411Y-86972494D01*
X152135793Y-86908054D01*
X152204716Y-86873438D01*
X152281714Y-86877921D01*
X152346154Y-86920303D01*
X152354125Y-86930061D01*
X152438169Y-87042331D01*
X152551946Y-87127503D01*
X152556904Y-87130210D01*
X152612726Y-87183432D01*
X152634458Y-87257435D01*
X152634500Y-87260986D01*
X152634500Y-89006838D01*
X152614538Y-89081338D01*
X152560000Y-89135876D01*
X152537578Y-89146440D01*
X152530169Y-89149204D01*
X152530168Y-89149205D01*
X152530163Y-89149207D01*
X152414955Y-89235452D01*
X152414952Y-89235455D01*
X152328704Y-89350666D01*
X152328702Y-89350670D01*
X152278408Y-89485517D01*
X152272000Y-89545114D01*
X152272000Y-90540863D01*
X152272002Y-90540888D01*
X152278408Y-90600478D01*
X152278409Y-90600484D01*
X152328702Y-90735329D01*
X152328704Y-90735333D01*
X152414952Y-90850544D01*
X152414955Y-90850547D01*
X152530166Y-90936795D01*
X152530170Y-90936797D01*
X152665017Y-90987091D01*
X152724614Y-90993499D01*
X152724618Y-90993499D01*
X152724627Y-90993500D01*
X153345372Y-90993499D01*
X153404983Y-90987091D01*
X153504099Y-90950123D01*
X153539829Y-90936797D01*
X153539833Y-90936795D01*
X153597438Y-90893671D01*
X153655046Y-90850546D01*
X153698171Y-90792938D01*
X153741295Y-90735333D01*
X153741297Y-90735329D01*
X153788872Y-90607772D01*
X153791591Y-90600483D01*
X153796266Y-90557000D01*
X153797999Y-90540885D01*
X153797999Y-90540882D01*
X153798000Y-90540873D01*
X153797999Y-89545128D01*
X153791591Y-89485517D01*
X153755851Y-89389692D01*
X153741297Y-89350670D01*
X153741295Y-89350666D01*
X153655047Y-89235455D01*
X153655044Y-89235452D01*
X153539836Y-89149207D01*
X153539833Y-89149206D01*
X153539831Y-89149204D01*
X153532425Y-89146441D01*
X153469601Y-89101703D01*
X153437563Y-89031544D01*
X153435500Y-89006838D01*
X153435500Y-87260986D01*
X153455462Y-87186486D01*
X153510000Y-87131948D01*
X153513096Y-87130210D01*
X153518050Y-87127504D01*
X153518054Y-87127503D01*
X153631831Y-87042331D01*
X153717003Y-86928554D01*
X153766671Y-86795391D01*
X153773000Y-86736521D01*
X153772999Y-85729480D01*
X153766671Y-85670609D01*
X153717003Y-85537446D01*
X153631831Y-85423669D01*
X153518054Y-85338497D01*
X153496815Y-85330575D01*
X153384890Y-85288828D01*
X153326035Y-85282501D01*
X153326026Y-85282500D01*
X153326021Y-85282500D01*
X153326014Y-85282500D01*
X152743985Y-85282500D01*
X152714544Y-85285665D01*
X152685109Y-85288829D01*
X152685107Y-85288829D01*
X152685104Y-85288830D01*
X152551948Y-85338496D01*
X152551944Y-85338498D01*
X152438169Y-85423669D01*
X152438167Y-85423671D01*
X152354129Y-85535933D01*
X152293502Y-85583610D01*
X152217159Y-85594586D01*
X152145556Y-85565920D01*
X152097879Y-85505293D01*
X152093411Y-85493506D01*
X152082403Y-85460287D01*
X151991133Y-85312313D01*
X151868186Y-85189366D01*
X151720210Y-85098094D01*
X151555170Y-85043406D01*
X151555170Y-85043405D01*
X151453318Y-85033000D01*
X151410000Y-85033000D01*
X151410000Y-87433000D01*
X150910000Y-87433000D01*
X150910000Y-86483000D01*
X150172500Y-86483000D01*
X150172500Y-86738818D01*
X145280499Y-86738818D01*
X145280499Y-86081482D01*
X145265646Y-85987696D01*
X145208050Y-85874658D01*
X145118342Y-85784950D01*
X145103544Y-85777410D01*
X145005305Y-85727354D01*
X145004213Y-85727181D01*
X150172500Y-85727181D01*
X150172500Y-85983000D01*
X150910000Y-85983000D01*
X150910000Y-85033000D01*
X150866681Y-85033000D01*
X150764829Y-85043405D01*
X150764829Y-85043406D01*
X150599790Y-85098094D01*
X150599789Y-85098094D01*
X150451813Y-85189366D01*
X150328866Y-85312313D01*
X150237594Y-85460289D01*
X150237594Y-85460290D01*
X150182906Y-85625329D01*
X150182905Y-85625329D01*
X150172500Y-85727181D01*
X145004213Y-85727181D01*
X144989673Y-85724878D01*
X144911519Y-85712500D01*
X144911514Y-85712500D01*
X144548481Y-85712500D01*
X144454695Y-85727354D01*
X144454690Y-85727356D01*
X144350674Y-85780355D01*
X144275232Y-85796391D01*
X144201878Y-85772557D01*
X144154781Y-85723444D01*
X144147687Y-85711450D01*
X144147681Y-85711442D01*
X144031557Y-85595318D01*
X144031554Y-85595316D01*
X143890197Y-85511718D01*
X143732489Y-85465899D01*
X143730000Y-85465702D01*
X143730000Y-88160296D01*
X143732488Y-88160100D01*
X143890196Y-88114281D01*
X143890197Y-88114281D01*
X144031554Y-88030683D01*
X144031557Y-88030681D01*
X144075141Y-87987098D01*
X144141936Y-87948534D01*
X144219064Y-87948534D01*
X144285859Y-87987098D01*
X144324423Y-88053893D01*
X144329500Y-88092457D01*
X144329500Y-88902729D01*
X144356794Y-89004591D01*
X144409515Y-89095906D01*
X144409518Y-89095910D01*
X144409520Y-89095913D01*
X145602518Y-90288910D01*
X145602520Y-90288913D01*
X145677087Y-90363480D01*
X145722750Y-90389843D01*
X145733488Y-90396043D01*
X145733492Y-90396046D01*
X145764350Y-90413861D01*
X145768412Y-90416207D01*
X145870273Y-90443500D01*
X150302693Y-90443500D01*
X150377193Y-90463462D01*
X150431731Y-90518000D01*
X150450838Y-90576571D01*
X150452926Y-90595992D01*
X150453409Y-90600485D01*
X150503702Y-90735329D01*
X150503704Y-90735333D01*
X150589952Y-90850544D01*
X150589954Y-90850546D01*
X150705167Y-90936794D01*
X150705167Y-90936795D01*
X150705168Y-90936795D01*
X150705169Y-90936796D01*
X150712563Y-90939554D01*
X150775391Y-90984287D01*
X150807435Y-91054443D01*
X150809500Y-91079161D01*
X150809500Y-91694819D01*
X150789538Y-91769319D01*
X150741124Y-91817732D01*
X150742172Y-91819301D01*
X150572219Y-91932860D01*
X150572214Y-91932864D01*
X150432864Y-92072214D01*
X150432860Y-92072219D01*
X150323368Y-92236084D01*
X150323367Y-92236087D01*
X150247949Y-92418163D01*
X150247948Y-92418165D01*
X150220412Y-92556601D01*
X150209500Y-92611459D01*
X150209500Y-92808541D01*
X150214577Y-92834064D01*
X150247948Y-93001834D01*
X150247949Y-93001836D01*
X150323367Y-93183912D01*
X150323368Y-93183915D01*
X150396197Y-93292911D01*
X150432861Y-93347782D01*
X150572218Y-93487139D01*
X150727524Y-93590911D01*
X150742173Y-93600699D01*
X150740611Y-93603036D01*
X150786992Y-93646434D01*
X150809418Y-93720230D01*
X150809500Y-93725179D01*
X150809500Y-98418887D01*
X150789538Y-98493387D01*
X150765859Y-98524246D01*
X150330359Y-98959746D01*
X150263564Y-98998310D01*
X150186436Y-98998310D01*
X150119641Y-98959746D01*
X150081077Y-98892951D01*
X150076000Y-98854387D01*
X150076000Y-98597741D01*
X150075999Y-98597731D01*
X150066073Y-98529607D01*
X150051344Y-98499478D01*
X150037636Y-98471439D01*
X150022850Y-98395744D01*
X150037637Y-98340560D01*
X150066073Y-98282393D01*
X150071481Y-98245273D01*
X150075999Y-98214268D01*
X150076000Y-98214258D01*
X150076000Y-97947741D01*
X150075999Y-97947731D01*
X150066073Y-97879607D01*
X150057979Y-97863050D01*
X150037636Y-97821439D01*
X150022850Y-97745744D01*
X150037637Y-97690560D01*
X150066073Y-97632393D01*
X150076000Y-97564260D01*
X150076000Y-97297740D01*
X150073301Y-97279219D01*
X150066073Y-97229607D01*
X150057166Y-97211388D01*
X150037636Y-97171439D01*
X150022850Y-97095744D01*
X150037637Y-97040560D01*
X150066073Y-96982393D01*
X150076000Y-96914260D01*
X150076000Y-96647740D01*
X150066073Y-96579607D01*
X150037636Y-96521439D01*
X150022850Y-96445744D01*
X150037637Y-96390560D01*
X150066073Y-96332393D01*
X150073568Y-96280952D01*
X150075999Y-96264268D01*
X150076000Y-96264258D01*
X150076000Y-95997741D01*
X150075999Y-95997731D01*
X150066073Y-95929607D01*
X150064554Y-95926500D01*
X150037636Y-95871439D01*
X150022850Y-95795744D01*
X150037637Y-95740560D01*
X150066073Y-95682393D01*
X150076000Y-95614260D01*
X150076000Y-95347740D01*
X150066073Y-95279607D01*
X150066073Y-95279606D01*
X150066073Y-95279605D01*
X150014699Y-95174518D01*
X149931981Y-95091800D01*
X149826894Y-95040426D01*
X149758768Y-95030500D01*
X149758760Y-95030500D01*
X148417240Y-95030500D01*
X148417231Y-95030500D01*
X148349106Y-95040426D01*
X148349105Y-95040426D01*
X148244018Y-95091800D01*
X148161300Y-95174518D01*
X148109926Y-95279605D01*
X148109926Y-95279606D01*
X148100000Y-95347731D01*
X148100000Y-95604387D01*
X148080038Y-95678887D01*
X148025500Y-95733425D01*
X147951000Y-95753387D01*
X147876500Y-95733425D01*
X147845641Y-95709746D01*
X144013665Y-91877770D01*
X144013664Y-91877769D01*
X143937415Y-91801520D01*
X143937412Y-91801518D01*
X142674141Y-90538247D01*
X142635577Y-90471452D01*
X142630500Y-90432888D01*
X142630500Y-88092457D01*
X142650462Y-88017957D01*
X142705000Y-87963419D01*
X142779500Y-87943457D01*
X142854000Y-87963419D01*
X142884859Y-87987098D01*
X142928442Y-88030681D01*
X142928445Y-88030683D01*
X143069802Y-88114281D01*
X143227511Y-88160100D01*
X143229999Y-88160296D01*
X143230000Y-88160295D01*
X143230000Y-85465702D01*
X143229999Y-85465702D01*
X143227510Y-85465899D01*
X143069803Y-85511718D01*
X143069802Y-85511718D01*
X142928445Y-85595316D01*
X142928442Y-85595318D01*
X142812318Y-85711442D01*
X142812314Y-85711447D01*
X142805216Y-85723449D01*
X142750107Y-85777410D01*
X142675401Y-85796587D01*
X142609324Y-85780355D01*
X142505305Y-85727354D01*
X142489673Y-85724878D01*
X142411519Y-85712500D01*
X142411514Y-85712500D01*
X142048481Y-85712500D01*
X141954695Y-85727354D01*
X141954693Y-85727355D01*
X141841657Y-85784950D01*
X141751950Y-85874657D01*
X141737759Y-85902509D01*
X141686149Y-85959825D01*
X141612796Y-85983658D01*
X141537353Y-85967621D01*
X141480037Y-85916011D01*
X141472241Y-85902509D01*
X141458049Y-85874657D01*
X141368342Y-85784950D01*
X141255305Y-85727354D01*
X141239673Y-85724878D01*
X141161519Y-85712500D01*
X141161514Y-85712500D01*
X140798481Y-85712500D01*
X140704695Y-85727354D01*
X140704693Y-85727355D01*
X140591657Y-85784950D01*
X140501950Y-85874657D01*
X140487759Y-85902509D01*
X140436149Y-85959825D01*
X140362796Y-85983658D01*
X140287353Y-85967621D01*
X140230037Y-85916011D01*
X140222241Y-85902509D01*
X140208049Y-85874657D01*
X140118342Y-85784950D01*
X140005305Y-85727354D01*
X139989673Y-85724878D01*
X139911519Y-85712500D01*
X139911514Y-85712500D01*
X139548481Y-85712500D01*
X139454695Y-85727354D01*
X139454693Y-85727355D01*
X139341657Y-85784950D01*
X139251950Y-85874657D01*
X139237759Y-85902509D01*
X139186149Y-85959825D01*
X139112796Y-85983658D01*
X139037353Y-85967621D01*
X138980037Y-85916011D01*
X138972241Y-85902509D01*
X138958049Y-85874657D01*
X138868342Y-85784950D01*
X138755305Y-85727354D01*
X138739673Y-85724878D01*
X138661519Y-85712500D01*
X138661514Y-85712500D01*
X138298481Y-85712500D01*
X138204695Y-85727354D01*
X138204693Y-85727355D01*
X138091657Y-85784950D01*
X138001950Y-85874657D01*
X137944354Y-85987694D01*
X137944354Y-85987696D01*
X137929500Y-86081481D01*
X137929500Y-86081482D01*
X137929500Y-86081485D01*
X137929500Y-87544518D01*
X137944354Y-87638304D01*
X138001950Y-87751342D01*
X138091658Y-87841050D01*
X138204696Y-87898646D01*
X138298481Y-87913500D01*
X138661518Y-87913499D01*
X138755304Y-87898646D01*
X138868342Y-87841050D01*
X138958050Y-87751342D01*
X138972240Y-87723491D01*
X139023849Y-87666175D01*
X139097203Y-87642341D01*
X139172645Y-87658377D01*
X139229962Y-87709986D01*
X139237757Y-87723486D01*
X139251950Y-87751342D01*
X139341658Y-87841050D01*
X139454696Y-87898646D01*
X139548481Y-87913500D01*
X139911518Y-87913499D01*
X140005304Y-87898646D01*
X140118342Y-87841050D01*
X140208050Y-87751342D01*
X140222240Y-87723491D01*
X140273849Y-87666175D01*
X140347203Y-87642341D01*
X140422645Y-87658377D01*
X140473685Y-87701055D01*
X140481724Y-87711646D01*
X140501950Y-87751342D01*
X140543040Y-87792432D01*
X140549185Y-87800528D01*
X140560047Y-87827146D01*
X140574423Y-87852046D01*
X140576430Y-87867293D01*
X140578326Y-87871939D01*
X140577671Y-87876718D01*
X140579500Y-87890610D01*
X140579500Y-89932389D01*
X140559538Y-90006889D01*
X140535859Y-90037748D01*
X139857248Y-90716359D01*
X139790453Y-90754923D01*
X139751889Y-90760000D01*
X134068500Y-90760000D01*
X133994000Y-90740038D01*
X133939462Y-90685500D01*
X133919500Y-90611000D01*
X133919499Y-89986636D01*
X133919499Y-89986632D01*
X133919499Y-89986628D01*
X133913091Y-89927017D01*
X133881302Y-89841785D01*
X133862797Y-89792170D01*
X133862795Y-89792166D01*
X133776547Y-89676955D01*
X133776544Y-89676952D01*
X133661333Y-89590704D01*
X133661329Y-89590702D01*
X133526483Y-89540408D01*
X133502568Y-89537837D01*
X133430630Y-89510023D01*
X133382236Y-89449967D01*
X133369500Y-89389691D01*
X133369500Y-87949307D01*
X133389462Y-87874807D01*
X133444000Y-87820269D01*
X133502571Y-87801161D01*
X133526483Y-87798591D01*
X133593907Y-87773443D01*
X133661329Y-87748297D01*
X133661333Y-87748295D01*
X133727517Y-87698749D01*
X133776546Y-87662046D01*
X133862796Y-87546831D01*
X133863659Y-87544519D01*
X133905252Y-87433000D01*
X133913091Y-87411983D01*
X133918411Y-87362500D01*
X133919499Y-87352385D01*
X133919499Y-87352382D01*
X133919500Y-87352373D01*
X133919499Y-86731628D01*
X133913091Y-86672017D01*
X133898588Y-86633133D01*
X133862797Y-86537170D01*
X133862795Y-86537166D01*
X133776547Y-86421955D01*
X133776544Y-86421952D01*
X133661333Y-86335704D01*
X133661329Y-86335702D01*
X133526482Y-86285408D01*
X133466876Y-86279000D01*
X132471136Y-86279000D01*
X132471111Y-86279002D01*
X132411521Y-86285408D01*
X132411515Y-86285409D01*
X132276670Y-86335702D01*
X132276666Y-86335704D01*
X132161455Y-86421952D01*
X132161452Y-86421955D01*
X132075204Y-86537166D01*
X132075202Y-86537170D01*
X132024908Y-86672017D01*
X132018500Y-86731614D01*
X132018500Y-87352363D01*
X132018502Y-87352388D01*
X132024908Y-87411978D01*
X132024909Y-87411984D01*
X132075202Y-87546829D01*
X132075204Y-87546833D01*
X132161452Y-87662044D01*
X132161455Y-87662047D01*
X132276666Y-87748295D01*
X132276670Y-87748297D01*
X132411517Y-87798591D01*
X132435427Y-87801162D01*
X132507367Y-87828973D01*
X132555762Y-87889028D01*
X132568500Y-87949308D01*
X132568500Y-89389692D01*
X132548538Y-89464192D01*
X132494000Y-89518730D01*
X132435428Y-89537838D01*
X132411521Y-89540408D01*
X132411515Y-89540409D01*
X132276670Y-89590702D01*
X132276666Y-89590704D01*
X132161455Y-89676952D01*
X132161452Y-89676955D01*
X132075204Y-89792166D01*
X132075202Y-89792170D01*
X132024908Y-89927017D01*
X132018500Y-89986614D01*
X132018500Y-89986632D01*
X132018501Y-90611000D01*
X131998539Y-90685500D01*
X131944001Y-90740038D01*
X131869501Y-90760000D01*
X131020500Y-90760000D01*
X130946000Y-90740038D01*
X130891462Y-90685500D01*
X130871500Y-90611000D01*
X130871499Y-89986636D01*
X130871499Y-89986632D01*
X130871499Y-89986628D01*
X130865091Y-89927017D01*
X130833302Y-89841785D01*
X130814797Y-89792170D01*
X130814795Y-89792166D01*
X130728547Y-89676955D01*
X130728544Y-89676952D01*
X130613333Y-89590704D01*
X130613329Y-89590702D01*
X130478483Y-89540408D01*
X130454568Y-89537837D01*
X130382630Y-89510023D01*
X130334236Y-89449967D01*
X130321500Y-89389691D01*
X130321500Y-87949307D01*
X130341462Y-87874807D01*
X130396000Y-87820269D01*
X130454571Y-87801161D01*
X130478483Y-87798591D01*
X130545907Y-87773443D01*
X130613329Y-87748297D01*
X130613333Y-87748295D01*
X130679517Y-87698749D01*
X130728546Y-87662046D01*
X130814796Y-87546831D01*
X130815659Y-87544519D01*
X130857252Y-87433000D01*
X130865091Y-87411983D01*
X130870411Y-87362500D01*
X130871499Y-87352385D01*
X130871499Y-87352382D01*
X130871500Y-87352373D01*
X130871499Y-86731628D01*
X130865091Y-86672017D01*
X130850588Y-86633133D01*
X130814797Y-86537170D01*
X130814795Y-86537166D01*
X130728547Y-86421955D01*
X130728544Y-86421952D01*
X130613333Y-86335704D01*
X130613329Y-86335702D01*
X130478482Y-86285408D01*
X130418876Y-86279000D01*
X129423136Y-86279000D01*
X129423111Y-86279002D01*
X129363521Y-86285408D01*
X129363515Y-86285409D01*
X129228670Y-86335702D01*
X129228666Y-86335704D01*
X129113455Y-86421952D01*
X129113452Y-86421955D01*
X129027204Y-86537166D01*
X129027202Y-86537170D01*
X128976908Y-86672017D01*
X128970500Y-86731614D01*
X128970500Y-87352363D01*
X128970502Y-87352388D01*
X128976908Y-87411978D01*
X128976909Y-87411984D01*
X129027202Y-87546829D01*
X129027204Y-87546833D01*
X129113452Y-87662044D01*
X129113455Y-87662047D01*
X129228666Y-87748295D01*
X129228670Y-87748297D01*
X129363517Y-87798591D01*
X129387427Y-87801162D01*
X129459367Y-87828973D01*
X129507762Y-87889028D01*
X129520500Y-87949308D01*
X129520500Y-89389692D01*
X129500538Y-89464192D01*
X129446000Y-89518730D01*
X129387428Y-89537838D01*
X129363521Y-89540408D01*
X129363515Y-89540409D01*
X129228670Y-89590702D01*
X129228666Y-89590704D01*
X129113455Y-89676952D01*
X129113452Y-89676955D01*
X129027204Y-89792166D01*
X129027202Y-89792170D01*
X128976908Y-89927017D01*
X128970500Y-89986614D01*
X128970500Y-90607363D01*
X128970502Y-90607388D01*
X128976908Y-90666978D01*
X128976909Y-90666984D01*
X129027202Y-90801829D01*
X129027204Y-90801833D01*
X129113452Y-90917044D01*
X129113455Y-90917047D01*
X129228666Y-91003295D01*
X129228670Y-91003297D01*
X129363517Y-91053591D01*
X129423114Y-91059999D01*
X129423118Y-91059999D01*
X129423127Y-91060000D01*
X130056889Y-91059999D01*
X130075836Y-91065076D01*
X130095452Y-91065076D01*
X130112439Y-91074883D01*
X130131388Y-91079961D01*
X130145259Y-91093832D01*
X130162247Y-91103640D01*
X130172054Y-91120627D01*
X130185926Y-91134499D01*
X130191003Y-91153447D01*
X130200811Y-91170435D01*
X130200811Y-91190051D01*
X130205888Y-91208999D01*
X130200811Y-91227946D01*
X130200811Y-91247563D01*
X130191003Y-91264550D01*
X130185926Y-91283499D01*
X130162247Y-91314358D01*
X130161246Y-91315359D01*
X130094451Y-91353923D01*
X130055887Y-91359000D01*
X129423136Y-91359000D01*
X129423111Y-91359002D01*
X129363521Y-91365408D01*
X129363515Y-91365409D01*
X129228670Y-91415702D01*
X129228666Y-91415704D01*
X129113455Y-91501952D01*
X129113452Y-91501955D01*
X129027204Y-91617166D01*
X129027202Y-91617170D01*
X128976908Y-91752017D01*
X128970500Y-91811614D01*
X128970500Y-92432363D01*
X128970502Y-92432388D01*
X128976908Y-92491978D01*
X128976909Y-92491984D01*
X129027202Y-92626829D01*
X129027204Y-92626833D01*
X129113452Y-92742044D01*
X129113455Y-92742047D01*
X129228666Y-92828295D01*
X129228670Y-92828297D01*
X129363517Y-92878591D01*
X129387427Y-92881162D01*
X129459367Y-92908973D01*
X129507762Y-92969028D01*
X129520500Y-93029308D01*
X129520500Y-93397727D01*
X129547793Y-93499587D01*
X129547794Y-93499588D01*
X129600518Y-93590911D01*
X129675088Y-93665481D01*
X129705529Y-93683055D01*
X129766413Y-93718207D01*
X129868273Y-93745500D01*
X129973727Y-93745500D01*
X143917389Y-93745500D01*
X143991889Y-93765462D01*
X144022748Y-93789141D01*
X145024253Y-94790646D01*
X145062817Y-94857441D01*
X145062817Y-94934569D01*
X145024253Y-95001364D01*
X144957458Y-95039928D01*
X144880330Y-95039928D01*
X144844393Y-95025042D01*
X144807591Y-95003794D01*
X144807588Y-95003793D01*
X144780295Y-94996480D01*
X144705729Y-94976500D01*
X144705727Y-94976500D01*
X143020307Y-94976500D01*
X142945807Y-94956538D01*
X142891269Y-94902000D01*
X142872161Y-94843427D01*
X142869591Y-94819517D01*
X142830390Y-94714413D01*
X142819297Y-94684670D01*
X142819295Y-94684666D01*
X142733047Y-94569455D01*
X142733044Y-94569452D01*
X142617833Y-94483204D01*
X142617829Y-94483202D01*
X142482982Y-94432908D01*
X142423376Y-94426500D01*
X141802636Y-94426500D01*
X141802611Y-94426502D01*
X141743021Y-94432908D01*
X141743015Y-94432909D01*
X141608170Y-94483202D01*
X141608166Y-94483204D01*
X141492955Y-94569452D01*
X141492952Y-94569455D01*
X141406704Y-94684666D01*
X141406702Y-94684670D01*
X141356408Y-94819517D01*
X141350000Y-94879114D01*
X141350000Y-95874863D01*
X141350002Y-95874888D01*
X141356407Y-95934474D01*
X141356823Y-95936231D01*
X141356773Y-95937879D01*
X141357405Y-95943750D01*
X141356596Y-95943836D01*
X141356304Y-95953659D01*
X141360817Y-95970500D01*
X141355177Y-95991546D01*
X141354530Y-96013325D01*
X141345367Y-96028157D01*
X141340855Y-96045000D01*
X141325446Y-96060408D01*
X141313997Y-96078944D01*
X141298646Y-96087208D01*
X141286317Y-96099538D01*
X141265270Y-96105177D01*
X141246086Y-96115506D01*
X141211817Y-96119500D01*
X141189184Y-96119500D01*
X141114684Y-96099538D01*
X141060146Y-96045000D01*
X141040184Y-95970500D01*
X141044177Y-95936238D01*
X141044591Y-95934485D01*
X141050999Y-95874885D01*
X141050999Y-95874882D01*
X141051000Y-95874873D01*
X141050999Y-94879128D01*
X141044591Y-94819517D01*
X141001173Y-94703107D01*
X140994297Y-94684670D01*
X140994295Y-94684666D01*
X140908047Y-94569455D01*
X140908044Y-94569452D01*
X140792833Y-94483204D01*
X140792829Y-94483202D01*
X140657982Y-94432908D01*
X140598376Y-94426500D01*
X139977636Y-94426500D01*
X139977611Y-94426502D01*
X139918021Y-94432908D01*
X139918015Y-94432909D01*
X139783170Y-94483202D01*
X139783166Y-94483204D01*
X139667955Y-94569452D01*
X139667952Y-94569455D01*
X139581704Y-94684666D01*
X139581702Y-94684670D01*
X139531408Y-94819517D01*
X139528838Y-94843427D01*
X139501027Y-94915367D01*
X139440972Y-94963762D01*
X139380692Y-94976500D01*
X128819500Y-94976500D01*
X128745000Y-94956538D01*
X128690462Y-94902000D01*
X128670500Y-94827500D01*
X128670500Y-85766500D01*
X128690462Y-85692000D01*
X128745000Y-85637462D01*
X128819500Y-85617500D01*
X128884838Y-85617500D01*
X128959338Y-85637462D01*
X129013876Y-85692000D01*
X129024440Y-85714421D01*
X129027204Y-85721831D01*
X129027206Y-85721833D01*
X129027207Y-85721836D01*
X129113452Y-85837044D01*
X129113455Y-85837047D01*
X129228666Y-85923295D01*
X129228670Y-85923297D01*
X129363517Y-85973591D01*
X129423114Y-85979999D01*
X129423118Y-85979999D01*
X129423127Y-85980000D01*
X130418872Y-85979999D01*
X130478483Y-85973591D01*
X130580972Y-85935365D01*
X130613329Y-85923297D01*
X130613333Y-85923295D01*
X130678304Y-85874657D01*
X130728546Y-85837046D01*
X130814796Y-85721831D01*
X130817558Y-85714425D01*
X130862297Y-85651601D01*
X130932456Y-85619563D01*
X130957162Y-85617500D01*
X131932838Y-85617500D01*
X132007338Y-85637462D01*
X132061876Y-85692000D01*
X132072440Y-85714421D01*
X132075204Y-85721831D01*
X132075206Y-85721833D01*
X132075207Y-85721836D01*
X132161452Y-85837044D01*
X132161455Y-85837047D01*
X132276666Y-85923295D01*
X132276670Y-85923297D01*
X132411517Y-85973591D01*
X132471114Y-85979999D01*
X132471118Y-85979999D01*
X132471127Y-85980000D01*
X133466872Y-85979999D01*
X133526483Y-85973591D01*
X133628972Y-85935365D01*
X133661329Y-85923297D01*
X133661333Y-85923295D01*
X133726304Y-85874657D01*
X133776546Y-85837046D01*
X133862796Y-85721831D01*
X133865558Y-85714425D01*
X133910297Y-85651601D01*
X133980456Y-85619563D01*
X134005162Y-85617500D01*
X134070500Y-85617500D01*
X134145000Y-85637462D01*
X134199538Y-85692000D01*
X134219500Y-85766500D01*
X134219500Y-88952729D01*
X134246794Y-89054591D01*
X134299515Y-89145906D01*
X134299518Y-89145910D01*
X134299520Y-89145913D01*
X134628087Y-89474480D01*
X134628089Y-89474481D01*
X134628093Y-89474484D01*
X134719408Y-89527205D01*
X134719409Y-89527205D01*
X134719412Y-89527207D01*
X134821273Y-89554500D01*
X134926727Y-89554500D01*
X135128820Y-89554500D01*
X135203320Y-89574462D01*
X135251733Y-89622875D01*
X135253301Y-89621828D01*
X135319397Y-89720748D01*
X135366861Y-89791782D01*
X135506218Y-89931139D01*
X135589262Y-89986627D01*
X135670084Y-90040631D01*
X135670085Y-90040631D01*
X135670086Y-90040632D01*
X135852165Y-90116051D01*
X136045459Y-90154500D01*
X136045460Y-90154500D01*
X136242540Y-90154500D01*
X136242541Y-90154500D01*
X136435835Y-90116051D01*
X136617914Y-90040632D01*
X136781782Y-89931139D01*
X136921139Y-89791782D01*
X137030632Y-89627914D01*
X137106051Y-89445835D01*
X137144500Y-89252541D01*
X137144500Y-89055459D01*
X137106051Y-88862165D01*
X137030632Y-88680086D01*
X136921139Y-88516218D01*
X136781782Y-88376861D01*
X136726911Y-88340197D01*
X136617915Y-88267368D01*
X136617912Y-88267367D01*
X136435836Y-88191949D01*
X136435834Y-88191948D01*
X136275721Y-88160100D01*
X136242541Y-88153500D01*
X136045459Y-88153500D01*
X136013389Y-88159878D01*
X135852165Y-88191948D01*
X135852163Y-88191949D01*
X135670087Y-88267367D01*
X135670084Y-88267368D01*
X135506219Y-88376860D01*
X135506214Y-88376864D01*
X135366864Y-88516214D01*
X135366861Y-88516217D01*
X135366861Y-88516218D01*
X135295920Y-88622389D01*
X135293389Y-88626177D01*
X135235400Y-88677030D01*
X135159754Y-88692077D01*
X135086719Y-88667285D01*
X135035866Y-88609296D01*
X135020500Y-88543396D01*
X135020500Y-85164273D01*
X135020499Y-85164271D01*
X134993207Y-85062413D01*
X134940480Y-84971087D01*
X134865913Y-84896520D01*
X134865911Y-84896518D01*
X134805029Y-84861368D01*
X134774587Y-84843793D01*
X134672727Y-84816500D01*
X134005162Y-84816500D01*
X133930662Y-84796538D01*
X133876124Y-84742000D01*
X133865559Y-84719578D01*
X133862796Y-84712169D01*
X133846126Y-84689901D01*
X133776547Y-84596955D01*
X133776544Y-84596952D01*
X133661333Y-84510704D01*
X133661329Y-84510702D01*
X133526482Y-84460408D01*
X133466876Y-84454000D01*
X132471136Y-84454000D01*
X132471111Y-84454002D01*
X132411521Y-84460408D01*
X132411515Y-84460409D01*
X132276670Y-84510702D01*
X132276666Y-84510704D01*
X132161455Y-84596952D01*
X132161452Y-84596955D01*
X132075207Y-84712163D01*
X132075206Y-84712166D01*
X132075204Y-84712169D01*
X132072441Y-84719574D01*
X132027703Y-84782399D01*
X131957544Y-84814437D01*
X131932838Y-84816500D01*
X130957162Y-84816500D01*
X130882662Y-84796538D01*
X130828124Y-84742000D01*
X130817559Y-84719578D01*
X130814796Y-84712169D01*
X130798126Y-84689901D01*
X130728547Y-84596955D01*
X130728544Y-84596952D01*
X130613333Y-84510704D01*
X130613329Y-84510702D01*
X130478482Y-84460408D01*
X130418876Y-84454000D01*
X129423136Y-84454000D01*
X129423111Y-84454002D01*
X129363521Y-84460408D01*
X129363515Y-84460409D01*
X129228670Y-84510702D01*
X129228666Y-84510704D01*
X129113455Y-84596952D01*
X129113452Y-84596955D01*
X129027207Y-84712163D01*
X129027206Y-84712166D01*
X129027204Y-84712169D01*
X129024441Y-84719574D01*
X128979703Y-84782399D01*
X128909544Y-84814437D01*
X128884838Y-84816500D01*
X128322727Y-84816500D01*
X128217273Y-84816500D01*
X128115413Y-84843793D01*
X128115411Y-84843793D01*
X128115411Y-84843794D01*
X128024088Y-84896518D01*
X127949518Y-84971088D01*
X127896794Y-85062411D01*
X127896793Y-85062413D01*
X127885144Y-85105888D01*
X127869500Y-85164271D01*
X123182500Y-85164271D01*
X123182500Y-81929500D01*
X123202462Y-81855000D01*
X123257000Y-81800462D01*
X123331500Y-81780500D01*
X136085861Y-81780500D01*
X136160361Y-81800462D01*
G37*
%TD.AperFunction*%
%TA.AperFunction,Conductor*%
G36*
X134535075Y-112333993D02*
G01*
X134600901Y-112448007D01*
X134693993Y-112541099D01*
X134808007Y-112606925D01*
X134871590Y-112623962D01*
X134274693Y-113220859D01*
X134207898Y-113259423D01*
X134169334Y-113264500D01*
X133245491Y-113264500D01*
X133170991Y-113244538D01*
X133116453Y-113190000D01*
X133096491Y-113115500D01*
X133116453Y-113041000D01*
X133157907Y-112994959D01*
X133177928Y-112980414D01*
X133300414Y-112857928D01*
X133402232Y-112717788D01*
X133462841Y-112598833D01*
X133514446Y-112541522D01*
X133587799Y-112517687D01*
X133663242Y-112533722D01*
X133720559Y-112585331D01*
X133737305Y-112620438D01*
X133749907Y-112659223D01*
X133846378Y-112848555D01*
X133885728Y-112902716D01*
X133885729Y-112902716D01*
X134518037Y-112270408D01*
X134535075Y-112333993D01*
G37*
%TD.AperFunction*%
%TA.AperFunction,Conductor*%
G36*
X136116269Y-112902716D02*
G01*
X136116270Y-112902716D01*
X136155620Y-112848557D01*
X136155622Y-112848555D01*
X136252091Y-112659224D01*
X136264693Y-112620441D01*
X136306699Y-112555756D01*
X136375421Y-112520739D01*
X136452443Y-112524775D01*
X136517128Y-112566781D01*
X136539161Y-112598839D01*
X136599769Y-112717790D01*
X136701583Y-112857924D01*
X136701586Y-112857928D01*
X136824072Y-112980414D01*
X136844091Y-112994959D01*
X136892627Y-113054896D01*
X136904693Y-113131074D01*
X136877053Y-113203080D01*
X136817113Y-113251618D01*
X136756509Y-113264500D01*
X135832665Y-113264500D01*
X135758165Y-113244538D01*
X135727306Y-113220859D01*
X135130409Y-112623962D01*
X135193993Y-112606925D01*
X135308007Y-112541099D01*
X135401099Y-112448007D01*
X135466925Y-112333993D01*
X135483962Y-112270409D01*
X136116269Y-112902716D01*
G37*
%TD.AperFunction*%
%TA.AperFunction,Conductor*%
G36*
X139615075Y-112333993D02*
G01*
X139680901Y-112448007D01*
X139773993Y-112541099D01*
X139888007Y-112606925D01*
X139951590Y-112623962D01*
X139354693Y-113220859D01*
X139287898Y-113259423D01*
X139249334Y-113264500D01*
X138325491Y-113264500D01*
X138250991Y-113244538D01*
X138196453Y-113190000D01*
X138176491Y-113115500D01*
X138196453Y-113041000D01*
X138237907Y-112994959D01*
X138257928Y-112980414D01*
X138380414Y-112857928D01*
X138482232Y-112717788D01*
X138542841Y-112598833D01*
X138594446Y-112541522D01*
X138667799Y-112517687D01*
X138743242Y-112533722D01*
X138800559Y-112585331D01*
X138817305Y-112620438D01*
X138829907Y-112659223D01*
X138926378Y-112848555D01*
X138965728Y-112902716D01*
X138965729Y-112902716D01*
X139598037Y-112270408D01*
X139615075Y-112333993D01*
G37*
%TD.AperFunction*%
%TA.AperFunction,Conductor*%
G36*
X141196269Y-112902716D02*
G01*
X141196270Y-112902716D01*
X141235620Y-112848557D01*
X141235622Y-112848555D01*
X141332091Y-112659224D01*
X141344693Y-112620441D01*
X141386699Y-112555756D01*
X141455421Y-112520739D01*
X141532443Y-112524775D01*
X141597128Y-112566781D01*
X141619161Y-112598839D01*
X141679769Y-112717790D01*
X141781583Y-112857924D01*
X141781586Y-112857928D01*
X141904072Y-112980414D01*
X141924091Y-112994959D01*
X141972627Y-113054896D01*
X141984693Y-113131074D01*
X141957053Y-113203080D01*
X141897113Y-113251618D01*
X141836509Y-113264500D01*
X140912665Y-113264500D01*
X140838165Y-113244538D01*
X140807306Y-113220859D01*
X140210409Y-112623962D01*
X140273993Y-112606925D01*
X140388007Y-112541099D01*
X140481099Y-112448007D01*
X140546925Y-112333993D01*
X140563962Y-112270409D01*
X141196269Y-112902716D01*
G37*
%TD.AperFunction*%
%TA.AperFunction,Conductor*%
G36*
X152315075Y-112333993D02*
G01*
X152380901Y-112448007D01*
X152473993Y-112541099D01*
X152588007Y-112606925D01*
X152651590Y-112623962D01*
X152054693Y-113220859D01*
X151987898Y-113259423D01*
X151949334Y-113264500D01*
X151025491Y-113264500D01*
X150950991Y-113244538D01*
X150896453Y-113190000D01*
X150876491Y-113115500D01*
X150896453Y-113041000D01*
X150937907Y-112994959D01*
X150957928Y-112980414D01*
X151080414Y-112857928D01*
X151182232Y-112717788D01*
X151242841Y-112598833D01*
X151294446Y-112541522D01*
X151367799Y-112517687D01*
X151443242Y-112533722D01*
X151500559Y-112585331D01*
X151517305Y-112620438D01*
X151529907Y-112659223D01*
X151626378Y-112848555D01*
X151665728Y-112902716D01*
X151665729Y-112902716D01*
X152298037Y-112270408D01*
X152315075Y-112333993D01*
G37*
%TD.AperFunction*%
%TD*%
M02*
