%TF.GenerationSoftware,KiCad,Pcbnew,9.0.5*%
%TF.CreationDate,2026-03-18T16:26:27+01:00*%
%TF.ProjectId,Projet_Tschema,50726f6a-6574-45f5-9473-6368656d612e,rev?*%
%TF.SameCoordinates,Original*%
%TF.FileFunction,Copper,L2,Bot*%
%TF.FilePolarity,Positive*%
%FSLAX46Y46*%
G04 Gerber Fmt 4.6, Leading zero omitted, Abs format (unit mm)*
G04 Created by KiCad (PCBNEW 9.0.5) date 2026-03-18 16:26:27*
%MOMM*%
%LPD*%
G01*
G04 APERTURE LIST*
%TA.AperFunction,ComponentPad*%
%ADD10R,1.700000X1.700000*%
%TD*%
%TA.AperFunction,ComponentPad*%
%ADD11C,1.500000*%
%TD*%
%TA.AperFunction,ComponentPad*%
%ADD12C,1.700000*%
%TD*%
%TA.AperFunction,ViaPad*%
%ADD13C,1.500000*%
%TD*%
%TA.AperFunction,Conductor*%
%ADD14C,0.300000*%
%TD*%
G04 APERTURE END LIST*
D10*
%TO.P,J5,1,Pin_1*%
%TO.N,/Vin*%
X193294000Y-103886000D03*
%TD*%
D11*
%TO.P,Y1,1,1*%
%TO.N,Net-(U1-XTAL2)*%
X135509000Y-101717000D03*
%TO.P,Y1,2,2*%
%TO.N,Net-(U1-XTAL1)*%
X135509000Y-97917000D03*
%TD*%
D10*
%TO.P,J4,1,Pin_1*%
%TO.N,GND*%
X180340000Y-103886000D03*
%TD*%
%TO.P,J2,1,Pin_1*%
%TO.N,GND*%
X185928000Y-110744000D03*
D12*
%TO.P,J2,2,Pin_2*%
%TO.N,/Vin*%
X188468000Y-110744000D03*
%TD*%
D10*
%TO.P,J3,1,Pin_1*%
%TO.N,/5V*%
X180340000Y-85090000D03*
%TD*%
%TO.P,J1,1,3V3*%
%TO.N,unconnected-(J1-3V3-Pad1)*%
X175641000Y-109601000D03*
D12*
%TO.P,J1,2,5V*%
%TO.N,/5V*%
X175641000Y-112141000D03*
%TO.P,J1,3,SDA1*%
%TO.N,/P_SDA*%
X173101000Y-109601000D03*
%TO.P,J1,4,5V*%
%TO.N,/5V*%
X173101000Y-112141000D03*
%TO.P,J1,5,SCL1*%
%TO.N,/P_SCL*%
X170561000Y-109601000D03*
%TO.P,J1,6,GND*%
%TO.N,GND*%
X170561000Y-112141000D03*
%TO.P,J1,7,GPIO7*%
%TO.N,unconnected-(J1-GPIO7-Pad7)*%
X168021000Y-109601000D03*
%TO.P,J1,8,TXD*%
%TO.N,unconnected-(J1-TXD-Pad8)*%
X168021000Y-112141000D03*
%TO.P,J1,9,GND*%
%TO.N,GND*%
X165481000Y-109601000D03*
%TO.P,J1,10,RXD*%
%TO.N,unconnected-(J1-RXD-Pad10)*%
X165481000Y-112141000D03*
%TO.P,J1,11,GPIO0*%
%TO.N,unconnected-(J1-GPIO0-Pad11)*%
X162941000Y-109601000D03*
%TO.P,J1,12,GPIO1*%
%TO.N,unconnected-(J1-GPIO1-Pad12)*%
X162941000Y-112141000D03*
%TO.P,J1,13,GPIO2*%
%TO.N,unconnected-(J1-GPIO2-Pad13)*%
X160401000Y-109601000D03*
%TO.P,J1,14,GND*%
%TO.N,GND*%
X160401000Y-112141000D03*
%TO.P,J1,15,GPIO3*%
%TO.N,unconnected-(J1-GPIO3-Pad15)*%
X157861000Y-109601000D03*
%TO.P,J1,16,GPIO4*%
%TO.N,unconnected-(J1-GPIO4-Pad16)*%
X157861000Y-112141000D03*
%TO.P,J1,17,3V3*%
%TO.N,unconnected-(J1-3V3-Pad17)*%
X155321000Y-109601000D03*
%TO.P,J1,18,GPIO5*%
%TO.N,/P24*%
X155321000Y-112141000D03*
%TO.P,J1,19,MOSI*%
%TO.N,unconnected-(J1-MOSI-Pad19)*%
X152781000Y-109601000D03*
%TO.P,J1,20,GND*%
%TO.N,GND*%
X152781000Y-112141000D03*
%TO.P,J1,21,MISO*%
%TO.N,unconnected-(J1-MISO-Pad21)*%
X150241000Y-109601000D03*
%TO.P,J1,22,GPIO6*%
%TO.N,unconnected-(J1-GPIO6-Pad22)*%
X150241000Y-112141000D03*
%TO.P,J1,23,SCLK*%
%TO.N,unconnected-(J1-SCLK-Pad23)*%
X147701000Y-109601000D03*
%TO.P,J1,24,CE0*%
%TO.N,unconnected-(J1-CE0-Pad24)*%
X147701000Y-112141000D03*
%TO.P,J1,25,GND*%
%TO.N,GND*%
X145161000Y-109601000D03*
%TO.P,J1,26,CE1*%
%TO.N,unconnected-(J1-CE1-Pad26)*%
X145161000Y-112141000D03*
%TO.P,J1,27,SDA0*%
%TO.N,/&lt;NO NET&gt;*%
X142621000Y-109601000D03*
%TO.P,J1,28,SCL0*%
%TO.N,unconnected-(J1-SCL0-Pad28)*%
X142621000Y-112141000D03*
%TO.P,J1,29,GPIO21*%
%TO.N,unconnected-(J1-GPIO21-Pad29)*%
X140081000Y-109601000D03*
%TO.P,J1,30,GND*%
%TO.N,GND*%
X140081000Y-112141000D03*
%TO.P,J1,31,GPIO22*%
%TO.N,unconnected-(J1-GPIO22-Pad31)*%
X137541000Y-109601000D03*
%TO.P,J1,32,GPIO26*%
%TO.N,unconnected-(J1-GPIO26-Pad32)*%
X137541000Y-112141000D03*
%TO.P,J1,33,GPIO23*%
%TO.N,unconnected-(J1-GPIO23-Pad33)*%
X135001000Y-109601000D03*
%TO.P,J1,34,GND*%
%TO.N,GND*%
X135001000Y-112141000D03*
%TO.P,J1,35,GPIO24*%
%TO.N,unconnected-(J1-GPIO24-Pad35)*%
X132461000Y-109601000D03*
%TO.P,J1,36,GPIO27*%
%TO.N,unconnected-(J1-GPIO27-Pad36)*%
X132461000Y-112141000D03*
%TO.P,J1,37,GPIO25*%
%TO.N,unconnected-(J1-GPIO25-Pad37)*%
X129921000Y-109601000D03*
%TO.P,J1,38,GPIO28*%
%TO.N,unconnected-(J1-GPIO28-Pad38)*%
X129921000Y-112141000D03*
%TO.P,J1,39,GND*%
%TO.N,GND*%
X127381000Y-109601000D03*
%TO.P,J1,40,GPIO29*%
%TO.N,unconnected-(J1-GPIO29-Pad40)*%
X127381000Y-112141000D03*
%TD*%
D10*
%TO.P,J6,1,Pin_1*%
%TO.N,GND*%
X193548000Y-85090000D03*
%TD*%
D13*
%TO.N,/P_SCL*%
X170561000Y-107061000D03*
%TO.N,GND*%
X127381000Y-106045000D03*
X147320000Y-92710000D03*
X144145000Y-97790000D03*
%TO.N,Net-(U1-I2C{slash}~{SPI})*%
X132461000Y-96901000D03*
%TO.N,/3V3*%
X151210000Y-92710000D03*
X165050000Y-89204000D03*
X136144000Y-89154000D03*
X164973000Y-95885000D03*
%TO.N,GND*%
X138049000Y-104013000D03*
%TO.N,/5V*%
X175641000Y-89154000D03*
%TO.N,/P_SCL*%
X145478500Y-104203500D03*
%TO.N,/P_SDA*%
X173101000Y-106934000D03*
X147320000Y-105961000D03*
%TO.N,Net-(U1-I2C{slash}~{SPI})*%
X144145000Y-100457000D03*
%TD*%
D14*
%TO.N,/P_SDA*%
X172128000Y-105961000D02*
X147320000Y-105961000D01*
X173101000Y-106934000D02*
X172128000Y-105961000D01*
%TO.N,/P_SCL*%
X146685000Y-107061000D02*
X145478500Y-105854500D01*
X145478500Y-105854500D02*
X145478500Y-104203500D01*
X170561000Y-107061000D02*
X146685000Y-107061000D01*
%TO.N,GND*%
X127381000Y-104394000D02*
X127762000Y-104013000D01*
X127381000Y-106045000D02*
X127381000Y-104394000D01*
X127762000Y-104013000D02*
X138049000Y-104013000D01*
%TO.N,/3V3*%
X147654000Y-89154000D02*
X136144000Y-89154000D01*
X151210000Y-92710000D02*
X147654000Y-89154000D01*
%TO.N,/5V*%
X175641000Y-85979000D02*
X176530000Y-85090000D01*
X175641000Y-89154000D02*
X175641000Y-85979000D01*
X176530000Y-85090000D02*
X180340000Y-85090000D01*
%TO.N,/3V3*%
X136144000Y-89154000D02*
X136398000Y-88900000D01*
%TO.N,GND*%
X147320000Y-94615000D02*
X147320000Y-92710000D01*
X144145000Y-97790000D02*
X147320000Y-94615000D01*
%TO.N,/3V3*%
X165050000Y-89204000D02*
X165050000Y-92710000D01*
X165050000Y-92710000D02*
X165050000Y-95808000D01*
X151210000Y-92710000D02*
X165050000Y-92710000D01*
%TO.N,Net-(U1-I2C{slash}~{SPI})*%
X135382000Y-99822000D02*
X143510000Y-99822000D01*
X143510000Y-99822000D02*
X144145000Y-100457000D01*
X132461000Y-96901000D02*
X135382000Y-99822000D01*
%TO.N,/3V3*%
X165050000Y-95808000D02*
X164973000Y-95885000D01*
%TO.N,/Vin*%
X193294000Y-105918000D02*
X193294000Y-103886000D01*
X188468000Y-110744000D02*
X193294000Y-105918000D01*
%TD*%
%TA.AperFunction,Conductor*%
%TO.N,GND*%
G36*
X196759000Y-81800462D02*
G01*
X196813538Y-81855000D01*
X196833500Y-81929500D01*
X196833500Y-114146500D01*
X196813538Y-114221000D01*
X196759000Y-114275538D01*
X196684500Y-114295500D01*
X123331500Y-114295500D01*
X123257000Y-114275538D01*
X123202462Y-114221000D01*
X123182500Y-114146500D01*
X123182500Y-109494757D01*
X126031000Y-109494757D01*
X126031000Y-109707242D01*
X126064242Y-109917128D01*
X126129906Y-110119220D01*
X126226378Y-110308555D01*
X126265728Y-110362716D01*
X126265729Y-110362716D01*
X126898037Y-109730408D01*
X126915075Y-109793993D01*
X126980901Y-109908007D01*
X127073993Y-110001099D01*
X127188007Y-110066925D01*
X127251590Y-110083962D01*
X126619282Y-110716270D01*
X126673444Y-110755621D01*
X126673444Y-110755622D01*
X126862773Y-110852091D01*
X126901559Y-110864693D01*
X126966244Y-110906700D01*
X127001260Y-110975422D01*
X126997224Y-111052444D01*
X126955217Y-111117129D01*
X126923161Y-111139161D01*
X126804206Y-111199771D01*
X126664075Y-111301583D01*
X126541583Y-111424075D01*
X126439771Y-111564206D01*
X126361130Y-111718549D01*
X126361125Y-111718561D01*
X126307597Y-111883299D01*
X126296845Y-111951190D01*
X126280500Y-112054389D01*
X126280500Y-112227611D01*
X126292137Y-112301086D01*
X126307597Y-112398700D01*
X126338742Y-112494553D01*
X126361127Y-112563445D01*
X126409929Y-112659224D01*
X126439771Y-112717793D01*
X126541583Y-112857924D01*
X126541586Y-112857928D01*
X126664072Y-112980414D01*
X126664075Y-112980416D01*
X126799676Y-113078937D01*
X126804212Y-113082232D01*
X126958555Y-113160873D01*
X127123299Y-113214402D01*
X127294389Y-113241500D01*
X127294393Y-113241500D01*
X127467607Y-113241500D01*
X127467611Y-113241500D01*
X127638701Y-113214402D01*
X127803445Y-113160873D01*
X127957788Y-113082232D01*
X128097928Y-112980414D01*
X128220414Y-112857928D01*
X128322232Y-112717788D01*
X128400873Y-112563445D01*
X128454402Y-112398701D01*
X128481500Y-112227611D01*
X128481500Y-112054389D01*
X128820500Y-112054389D01*
X128820500Y-112227611D01*
X128832137Y-112301086D01*
X128847597Y-112398700D01*
X128878742Y-112494553D01*
X128901127Y-112563445D01*
X128949929Y-112659224D01*
X128979771Y-112717793D01*
X129081583Y-112857924D01*
X129081586Y-112857928D01*
X129204072Y-112980414D01*
X129204075Y-112980416D01*
X129339676Y-113078937D01*
X129344212Y-113082232D01*
X129498555Y-113160873D01*
X129663299Y-113214402D01*
X129834389Y-113241500D01*
X129834393Y-113241500D01*
X130007607Y-113241500D01*
X130007611Y-113241500D01*
X130178701Y-113214402D01*
X130343445Y-113160873D01*
X130497788Y-113082232D01*
X130637928Y-112980414D01*
X130760414Y-112857928D01*
X130862232Y-112717788D01*
X130940873Y-112563445D01*
X130994402Y-112398701D01*
X131021500Y-112227611D01*
X131021500Y-112054389D01*
X131360500Y-112054389D01*
X131360500Y-112227611D01*
X131372137Y-112301086D01*
X131387597Y-112398700D01*
X131418742Y-112494553D01*
X131441127Y-112563445D01*
X131489929Y-112659224D01*
X131519771Y-112717793D01*
X131621583Y-112857924D01*
X131621586Y-112857928D01*
X131744072Y-112980414D01*
X131744075Y-112980416D01*
X131879676Y-113078937D01*
X131884212Y-113082232D01*
X132038555Y-113160873D01*
X132203299Y-113214402D01*
X132374389Y-113241500D01*
X132374393Y-113241500D01*
X132547607Y-113241500D01*
X132547611Y-113241500D01*
X132718701Y-113214402D01*
X132883445Y-113160873D01*
X133037788Y-113082232D01*
X133177928Y-112980414D01*
X133300414Y-112857928D01*
X133402232Y-112717788D01*
X133462841Y-112598833D01*
X133514446Y-112541522D01*
X133587799Y-112517687D01*
X133663242Y-112533722D01*
X133720559Y-112585331D01*
X133737305Y-112620438D01*
X133749907Y-112659223D01*
X133846378Y-112848555D01*
X133885728Y-112902716D01*
X133885729Y-112902716D01*
X134518037Y-112270408D01*
X134535075Y-112333993D01*
X134600901Y-112448007D01*
X134693993Y-112541099D01*
X134808007Y-112606925D01*
X134871590Y-112623962D01*
X134239282Y-113256270D01*
X134293444Y-113295621D01*
X134293444Y-113295622D01*
X134482779Y-113392093D01*
X134684871Y-113457757D01*
X134894758Y-113491000D01*
X135107242Y-113491000D01*
X135317128Y-113457757D01*
X135519220Y-113392093D01*
X135708555Y-113295622D01*
X135708557Y-113295620D01*
X135762716Y-113256270D01*
X135762716Y-113256269D01*
X135130409Y-112623962D01*
X135193993Y-112606925D01*
X135308007Y-112541099D01*
X135401099Y-112448007D01*
X135466925Y-112333993D01*
X135483962Y-112270409D01*
X136116269Y-112902716D01*
X136116270Y-112902716D01*
X136155620Y-112848557D01*
X136155622Y-112848555D01*
X136252091Y-112659224D01*
X136264693Y-112620441D01*
X136306699Y-112555756D01*
X136375421Y-112520739D01*
X136452443Y-112524775D01*
X136517128Y-112566781D01*
X136539161Y-112598839D01*
X136599769Y-112717790D01*
X136701583Y-112857924D01*
X136701586Y-112857928D01*
X136824072Y-112980414D01*
X136824075Y-112980416D01*
X136959676Y-113078937D01*
X136964212Y-113082232D01*
X137118555Y-113160873D01*
X137283299Y-113214402D01*
X137454389Y-113241500D01*
X137454393Y-113241500D01*
X137627607Y-113241500D01*
X137627611Y-113241500D01*
X137798701Y-113214402D01*
X137963445Y-113160873D01*
X138117788Y-113082232D01*
X138257928Y-112980414D01*
X138380414Y-112857928D01*
X138482232Y-112717788D01*
X138542841Y-112598833D01*
X138594446Y-112541522D01*
X138667799Y-112517687D01*
X138743242Y-112533722D01*
X138800559Y-112585331D01*
X138817305Y-112620438D01*
X138829907Y-112659223D01*
X138926378Y-112848555D01*
X138965728Y-112902716D01*
X138965729Y-112902716D01*
X139598037Y-112270408D01*
X139615075Y-112333993D01*
X139680901Y-112448007D01*
X139773993Y-112541099D01*
X139888007Y-112606925D01*
X139951590Y-112623962D01*
X139319282Y-113256270D01*
X139373444Y-113295621D01*
X139373444Y-113295622D01*
X139562779Y-113392093D01*
X139764871Y-113457757D01*
X139974758Y-113491000D01*
X140187242Y-113491000D01*
X140397128Y-113457757D01*
X140599220Y-113392093D01*
X140788555Y-113295622D01*
X140788557Y-113295620D01*
X140842716Y-113256270D01*
X140842716Y-113256269D01*
X140210409Y-112623962D01*
X140273993Y-112606925D01*
X140388007Y-112541099D01*
X140481099Y-112448007D01*
X140546925Y-112333993D01*
X140563962Y-112270409D01*
X141196269Y-112902716D01*
X141196270Y-112902716D01*
X141235620Y-112848557D01*
X141235622Y-112848555D01*
X141332091Y-112659224D01*
X141344693Y-112620441D01*
X141386699Y-112555756D01*
X141455421Y-112520739D01*
X141532443Y-112524775D01*
X141597128Y-112566781D01*
X141619161Y-112598839D01*
X141679769Y-112717790D01*
X141781583Y-112857924D01*
X141781586Y-112857928D01*
X141904072Y-112980414D01*
X141904075Y-112980416D01*
X142039676Y-113078937D01*
X142044212Y-113082232D01*
X142198555Y-113160873D01*
X142363299Y-113214402D01*
X142534389Y-113241500D01*
X142534393Y-113241500D01*
X142707607Y-113241500D01*
X142707611Y-113241500D01*
X142878701Y-113214402D01*
X143043445Y-113160873D01*
X143197788Y-113082232D01*
X143337928Y-112980414D01*
X143460414Y-112857928D01*
X143562232Y-112717788D01*
X143640873Y-112563445D01*
X143694402Y-112398701D01*
X143721500Y-112227611D01*
X143721500Y-112054389D01*
X143694402Y-111883299D01*
X143640873Y-111718555D01*
X143562232Y-111564212D01*
X143460414Y-111424072D01*
X143337928Y-111301586D01*
X143258668Y-111244000D01*
X143197793Y-111199771D01*
X143197790Y-111199769D01*
X143197788Y-111199768D01*
X143043445Y-111121127D01*
X142995821Y-111105653D01*
X142878700Y-111067597D01*
X142781086Y-111052137D01*
X142707611Y-111040500D01*
X142534389Y-111040500D01*
X142468050Y-111051007D01*
X142363299Y-111067597D01*
X142210859Y-111117129D01*
X142198555Y-111121127D01*
X142198549Y-111121129D01*
X142198549Y-111121130D01*
X142044206Y-111199771D01*
X141904075Y-111301583D01*
X141781583Y-111424075D01*
X141679771Y-111564206D01*
X141679768Y-111564212D01*
X141619162Y-111683160D01*
X141619161Y-111683161D01*
X141567552Y-111740478D01*
X141494199Y-111764312D01*
X141418756Y-111748276D01*
X141361439Y-111696667D01*
X141344693Y-111661559D01*
X141332091Y-111622773D01*
X141235621Y-111433444D01*
X141196270Y-111379282D01*
X140563962Y-112011589D01*
X140546925Y-111948007D01*
X140481099Y-111833993D01*
X140388007Y-111740901D01*
X140273993Y-111675075D01*
X140210407Y-111658037D01*
X140842716Y-111025729D01*
X140842716Y-111025728D01*
X140788555Y-110986378D01*
X140788555Y-110986377D01*
X140599223Y-110889907D01*
X140560438Y-110877305D01*
X140495753Y-110835297D01*
X140460739Y-110766575D01*
X140464776Y-110689553D01*
X140506784Y-110624868D01*
X140538827Y-110602844D01*
X140657788Y-110542232D01*
X140797928Y-110440414D01*
X140920414Y-110317928D01*
X141022232Y-110177788D01*
X141100873Y-110023445D01*
X141154402Y-109858701D01*
X141181500Y-109687611D01*
X141181500Y-109514389D01*
X141520500Y-109514389D01*
X141520500Y-109687611D01*
X141526284Y-109724127D01*
X141547597Y-109858700D01*
X141566582Y-109917128D01*
X141601127Y-110023445D01*
X141676605Y-110171579D01*
X141679771Y-110177793D01*
X141781583Y-110317924D01*
X141781586Y-110317928D01*
X141904072Y-110440414D01*
X141904075Y-110440416D01*
X142044203Y-110542226D01*
X142044212Y-110542232D01*
X142198555Y-110620873D01*
X142363299Y-110674402D01*
X142534389Y-110701500D01*
X142534393Y-110701500D01*
X142707607Y-110701500D01*
X142707611Y-110701500D01*
X142878701Y-110674402D01*
X143043445Y-110620873D01*
X143197788Y-110542232D01*
X143337928Y-110440414D01*
X143460414Y-110317928D01*
X143562232Y-110177788D01*
X143622841Y-110058833D01*
X143674446Y-110001522D01*
X143747799Y-109977687D01*
X143823242Y-109993722D01*
X143880559Y-110045331D01*
X143897305Y-110080438D01*
X143909907Y-110119223D01*
X144006378Y-110308555D01*
X144045728Y-110362716D01*
X144045729Y-110362716D01*
X144678037Y-109730408D01*
X144695075Y-109793993D01*
X144760901Y-109908007D01*
X144853993Y-110001099D01*
X144968007Y-110066925D01*
X145031590Y-110083962D01*
X144399282Y-110716270D01*
X144453444Y-110755621D01*
X144453444Y-110755622D01*
X144642773Y-110852091D01*
X144681559Y-110864693D01*
X144746244Y-110906700D01*
X144781260Y-110975422D01*
X144777224Y-111052444D01*
X144735217Y-111117129D01*
X144703161Y-111139161D01*
X144584206Y-111199771D01*
X144444075Y-111301583D01*
X144321583Y-111424075D01*
X144219771Y-111564206D01*
X144141130Y-111718549D01*
X144141125Y-111718561D01*
X144087597Y-111883299D01*
X144076845Y-111951190D01*
X144060500Y-112054389D01*
X144060500Y-112227611D01*
X144072137Y-112301086D01*
X144087597Y-112398700D01*
X144118742Y-112494553D01*
X144141127Y-112563445D01*
X144189929Y-112659224D01*
X144219771Y-112717793D01*
X144321583Y-112857924D01*
X144321586Y-112857928D01*
X144444072Y-112980414D01*
X144444075Y-112980416D01*
X144579676Y-113078937D01*
X144584212Y-113082232D01*
X144738555Y-113160873D01*
X144903299Y-113214402D01*
X145074389Y-113241500D01*
X145074393Y-113241500D01*
X145247607Y-113241500D01*
X145247611Y-113241500D01*
X145418701Y-113214402D01*
X145583445Y-113160873D01*
X145737788Y-113082232D01*
X145877928Y-112980414D01*
X146000414Y-112857928D01*
X146102232Y-112717788D01*
X146180873Y-112563445D01*
X146234402Y-112398701D01*
X146261500Y-112227611D01*
X146261500Y-112054389D01*
X146600500Y-112054389D01*
X146600500Y-112227611D01*
X146612137Y-112301086D01*
X146627597Y-112398700D01*
X146658742Y-112494553D01*
X146681127Y-112563445D01*
X146729929Y-112659224D01*
X146759771Y-112717793D01*
X146861583Y-112857924D01*
X146861586Y-112857928D01*
X146984072Y-112980414D01*
X146984075Y-112980416D01*
X147119676Y-113078937D01*
X147124212Y-113082232D01*
X147278555Y-113160873D01*
X147443299Y-113214402D01*
X147614389Y-113241500D01*
X147614393Y-113241500D01*
X147787607Y-113241500D01*
X147787611Y-113241500D01*
X147958701Y-113214402D01*
X148123445Y-113160873D01*
X148277788Y-113082232D01*
X148417928Y-112980414D01*
X148540414Y-112857928D01*
X148642232Y-112717788D01*
X148720873Y-112563445D01*
X148774402Y-112398701D01*
X148801500Y-112227611D01*
X148801500Y-112054389D01*
X149140500Y-112054389D01*
X149140500Y-112227611D01*
X149152137Y-112301086D01*
X149167597Y-112398700D01*
X149198742Y-112494553D01*
X149221127Y-112563445D01*
X149269929Y-112659224D01*
X149299771Y-112717793D01*
X149401583Y-112857924D01*
X149401586Y-112857928D01*
X149524072Y-112980414D01*
X149524075Y-112980416D01*
X149659676Y-113078937D01*
X149664212Y-113082232D01*
X149818555Y-113160873D01*
X149983299Y-113214402D01*
X150154389Y-113241500D01*
X150154393Y-113241500D01*
X150327607Y-113241500D01*
X150327611Y-113241500D01*
X150498701Y-113214402D01*
X150663445Y-113160873D01*
X150817788Y-113082232D01*
X150957928Y-112980414D01*
X151080414Y-112857928D01*
X151182232Y-112717788D01*
X151242841Y-112598833D01*
X151294446Y-112541522D01*
X151367799Y-112517687D01*
X151443242Y-112533722D01*
X151500559Y-112585331D01*
X151517305Y-112620438D01*
X151529907Y-112659223D01*
X151626378Y-112848555D01*
X151665728Y-112902716D01*
X151665729Y-112902716D01*
X152298037Y-112270408D01*
X152315075Y-112333993D01*
X152380901Y-112448007D01*
X152473993Y-112541099D01*
X152588007Y-112606925D01*
X152651590Y-112623962D01*
X152019282Y-113256270D01*
X152073444Y-113295621D01*
X152073444Y-113295622D01*
X152262779Y-113392093D01*
X152464871Y-113457757D01*
X152674758Y-113491000D01*
X152887242Y-113491000D01*
X153097128Y-113457757D01*
X153299220Y-113392093D01*
X153488555Y-113295622D01*
X153488557Y-113295620D01*
X153542716Y-113256270D01*
X153542716Y-113256269D01*
X152910409Y-112623962D01*
X152973993Y-112606925D01*
X153088007Y-112541099D01*
X153181099Y-112448007D01*
X153246925Y-112333993D01*
X153263962Y-112270409D01*
X153896269Y-112902716D01*
X153896270Y-112902716D01*
X153935620Y-112848557D01*
X153935622Y-112848555D01*
X154032091Y-112659224D01*
X154044693Y-112620441D01*
X154086699Y-112555756D01*
X154155421Y-112520739D01*
X154232443Y-112524775D01*
X154297128Y-112566781D01*
X154319161Y-112598839D01*
X154379769Y-112717790D01*
X154481583Y-112857924D01*
X154481586Y-112857928D01*
X154604072Y-112980414D01*
X154604075Y-112980416D01*
X154739676Y-113078937D01*
X154744212Y-113082232D01*
X154898555Y-113160873D01*
X155063299Y-113214402D01*
X155234389Y-113241500D01*
X155234393Y-113241500D01*
X155407607Y-113241500D01*
X155407611Y-113241500D01*
X155578701Y-113214402D01*
X155743445Y-113160873D01*
X155897788Y-113082232D01*
X156037928Y-112980414D01*
X156160414Y-112857928D01*
X156262232Y-112717788D01*
X156340873Y-112563445D01*
X156394402Y-112398701D01*
X156421500Y-112227611D01*
X156421500Y-112054389D01*
X156760500Y-112054389D01*
X156760500Y-112227611D01*
X156772137Y-112301086D01*
X156787597Y-112398700D01*
X156818742Y-112494553D01*
X156841127Y-112563445D01*
X156889929Y-112659224D01*
X156919771Y-112717793D01*
X157021583Y-112857924D01*
X157021586Y-112857928D01*
X157144072Y-112980414D01*
X157144075Y-112980416D01*
X157279676Y-113078937D01*
X157284212Y-113082232D01*
X157438555Y-113160873D01*
X157603299Y-113214402D01*
X157774389Y-113241500D01*
X157774393Y-113241500D01*
X157947607Y-113241500D01*
X157947611Y-113241500D01*
X158118701Y-113214402D01*
X158283445Y-113160873D01*
X158437788Y-113082232D01*
X158577928Y-112980414D01*
X158700414Y-112857928D01*
X158802232Y-112717788D01*
X158862841Y-112598833D01*
X158914446Y-112541522D01*
X158987799Y-112517687D01*
X159063242Y-112533722D01*
X159120559Y-112585331D01*
X159137305Y-112620438D01*
X159149907Y-112659223D01*
X159246378Y-112848555D01*
X159285728Y-112902716D01*
X159285729Y-112902716D01*
X159918037Y-112270408D01*
X159935075Y-112333993D01*
X160000901Y-112448007D01*
X160093993Y-112541099D01*
X160208007Y-112606925D01*
X160271590Y-112623962D01*
X159639281Y-113256270D01*
X159693444Y-113295621D01*
X159693444Y-113295622D01*
X159882779Y-113392093D01*
X160084871Y-113457757D01*
X160294758Y-113491000D01*
X160507242Y-113491000D01*
X160717128Y-113457757D01*
X160919220Y-113392093D01*
X161108555Y-113295622D01*
X161108557Y-113295620D01*
X161162716Y-113256270D01*
X161162716Y-113256269D01*
X160530409Y-112623962D01*
X160593993Y-112606925D01*
X160708007Y-112541099D01*
X160801099Y-112448007D01*
X160866925Y-112333993D01*
X160883962Y-112270409D01*
X161516269Y-112902716D01*
X161516270Y-112902716D01*
X161555620Y-112848557D01*
X161555622Y-112848555D01*
X161652091Y-112659224D01*
X161664693Y-112620441D01*
X161706699Y-112555756D01*
X161775421Y-112520739D01*
X161852443Y-112524775D01*
X161917128Y-112566781D01*
X161939161Y-112598839D01*
X161999769Y-112717790D01*
X162101583Y-112857924D01*
X162101586Y-112857928D01*
X162224072Y-112980414D01*
X162224075Y-112980416D01*
X162359676Y-113078937D01*
X162364212Y-113082232D01*
X162518555Y-113160873D01*
X162683299Y-113214402D01*
X162854389Y-113241500D01*
X162854393Y-113241500D01*
X163027607Y-113241500D01*
X163027611Y-113241500D01*
X163198701Y-113214402D01*
X163363445Y-113160873D01*
X163517788Y-113082232D01*
X163657928Y-112980414D01*
X163780414Y-112857928D01*
X163882232Y-112717788D01*
X163960873Y-112563445D01*
X164014402Y-112398701D01*
X164041500Y-112227611D01*
X164041500Y-112054389D01*
X164014402Y-111883299D01*
X163960873Y-111718555D01*
X163882232Y-111564212D01*
X163780414Y-111424072D01*
X163657928Y-111301586D01*
X163578668Y-111244000D01*
X163517793Y-111199771D01*
X163517790Y-111199769D01*
X163517788Y-111199768D01*
X163363445Y-111121127D01*
X163315821Y-111105653D01*
X163198700Y-111067597D01*
X163101086Y-111052137D01*
X163027611Y-111040500D01*
X162854389Y-111040500D01*
X162788050Y-111051007D01*
X162683299Y-111067597D01*
X162530859Y-111117129D01*
X162518555Y-111121127D01*
X162518549Y-111121129D01*
X162518549Y-111121130D01*
X162364206Y-111199771D01*
X162224075Y-111301583D01*
X162101583Y-111424075D01*
X161999771Y-111564206D01*
X161999768Y-111564212D01*
X161939162Y-111683160D01*
X161939161Y-111683161D01*
X161887552Y-111740478D01*
X161814199Y-111764312D01*
X161738756Y-111748276D01*
X161681439Y-111696667D01*
X161664693Y-111661559D01*
X161652091Y-111622773D01*
X161555621Y-111433444D01*
X161516270Y-111379282D01*
X160883962Y-112011589D01*
X160866925Y-111948007D01*
X160801099Y-111833993D01*
X160708007Y-111740901D01*
X160593993Y-111675075D01*
X160530407Y-111658037D01*
X161162716Y-111025729D01*
X161162716Y-111025728D01*
X161108555Y-110986378D01*
X161108555Y-110986377D01*
X160919223Y-110889907D01*
X160880438Y-110877305D01*
X160815753Y-110835297D01*
X160780739Y-110766575D01*
X160784776Y-110689553D01*
X160826784Y-110624868D01*
X160858827Y-110602844D01*
X160977788Y-110542232D01*
X161117928Y-110440414D01*
X161240414Y-110317928D01*
X161342232Y-110177788D01*
X161420873Y-110023445D01*
X161474402Y-109858701D01*
X161501500Y-109687611D01*
X161501500Y-109514389D01*
X161840500Y-109514389D01*
X161840500Y-109687611D01*
X161846284Y-109724127D01*
X161867597Y-109858700D01*
X161886582Y-109917128D01*
X161921127Y-110023445D01*
X161996605Y-110171579D01*
X161999771Y-110177793D01*
X162101583Y-110317924D01*
X162101586Y-110317928D01*
X162224072Y-110440414D01*
X162224075Y-110440416D01*
X162364203Y-110542226D01*
X162364212Y-110542232D01*
X162518555Y-110620873D01*
X162683299Y-110674402D01*
X162854389Y-110701500D01*
X162854393Y-110701500D01*
X163027607Y-110701500D01*
X163027611Y-110701500D01*
X163198701Y-110674402D01*
X163363445Y-110620873D01*
X163517788Y-110542232D01*
X163657928Y-110440414D01*
X163780414Y-110317928D01*
X163882232Y-110177788D01*
X163942841Y-110058833D01*
X163994446Y-110001522D01*
X164067799Y-109977687D01*
X164143242Y-109993722D01*
X164200559Y-110045331D01*
X164217305Y-110080438D01*
X164229907Y-110119223D01*
X164326378Y-110308555D01*
X164365728Y-110362716D01*
X164365729Y-110362716D01*
X164998037Y-109730408D01*
X165015075Y-109793993D01*
X165080901Y-109908007D01*
X165173993Y-110001099D01*
X165288007Y-110066925D01*
X165351590Y-110083962D01*
X164719282Y-110716270D01*
X164773444Y-110755621D01*
X164773444Y-110755622D01*
X164962773Y-110852091D01*
X165001559Y-110864693D01*
X165066244Y-110906700D01*
X165101260Y-110975422D01*
X165097224Y-111052444D01*
X165055217Y-111117129D01*
X165023161Y-111139161D01*
X164904206Y-111199771D01*
X164764075Y-111301583D01*
X164641583Y-111424075D01*
X164539771Y-111564206D01*
X164461130Y-111718549D01*
X164461125Y-111718561D01*
X164407597Y-111883299D01*
X164396845Y-111951190D01*
X164380500Y-112054389D01*
X164380500Y-112227611D01*
X164392137Y-112301086D01*
X164407597Y-112398700D01*
X164438742Y-112494553D01*
X164461127Y-112563445D01*
X164509929Y-112659224D01*
X164539771Y-112717793D01*
X164641583Y-112857924D01*
X164641586Y-112857928D01*
X164764072Y-112980414D01*
X164764075Y-112980416D01*
X164899676Y-113078937D01*
X164904212Y-113082232D01*
X165058555Y-113160873D01*
X165223299Y-113214402D01*
X165394389Y-113241500D01*
X165394393Y-113241500D01*
X165567607Y-113241500D01*
X165567611Y-113241500D01*
X165738701Y-113214402D01*
X165903445Y-113160873D01*
X166057788Y-113082232D01*
X166197928Y-112980414D01*
X166320414Y-112857928D01*
X166422232Y-112717788D01*
X166500873Y-112563445D01*
X166554402Y-112398701D01*
X166581500Y-112227611D01*
X166581500Y-112054389D01*
X166920500Y-112054389D01*
X166920500Y-112227611D01*
X166932137Y-112301086D01*
X166947597Y-112398700D01*
X166978742Y-112494553D01*
X167001127Y-112563445D01*
X167049929Y-112659224D01*
X167079771Y-112717793D01*
X167181583Y-112857924D01*
X167181586Y-112857928D01*
X167304072Y-112980414D01*
X167304075Y-112980416D01*
X167439676Y-113078937D01*
X167444212Y-113082232D01*
X167598555Y-113160873D01*
X167763299Y-113214402D01*
X167934389Y-113241500D01*
X167934393Y-113241500D01*
X168107607Y-113241500D01*
X168107611Y-113241500D01*
X168278701Y-113214402D01*
X168443445Y-113160873D01*
X168597788Y-113082232D01*
X168737928Y-112980414D01*
X168860414Y-112857928D01*
X168962232Y-112717788D01*
X169022841Y-112598833D01*
X169074446Y-112541522D01*
X169147799Y-112517687D01*
X169223242Y-112533722D01*
X169280559Y-112585331D01*
X169297305Y-112620438D01*
X169309907Y-112659223D01*
X169406378Y-112848555D01*
X169445728Y-112902716D01*
X169445729Y-112902716D01*
X170078037Y-112270408D01*
X170095075Y-112333993D01*
X170160901Y-112448007D01*
X170253993Y-112541099D01*
X170368007Y-112606925D01*
X170431590Y-112623962D01*
X169799281Y-113256270D01*
X169853444Y-113295621D01*
X169853444Y-113295622D01*
X170042779Y-113392093D01*
X170244871Y-113457757D01*
X170454758Y-113491000D01*
X170667242Y-113491000D01*
X170877128Y-113457757D01*
X171079220Y-113392093D01*
X171268555Y-113295622D01*
X171268557Y-113295620D01*
X171322716Y-113256270D01*
X171322716Y-113256269D01*
X170690409Y-112623962D01*
X170753993Y-112606925D01*
X170868007Y-112541099D01*
X170961099Y-112448007D01*
X171026925Y-112333993D01*
X171043962Y-112270409D01*
X171676269Y-112902716D01*
X171676270Y-112902716D01*
X171715620Y-112848557D01*
X171715622Y-112848555D01*
X171812091Y-112659224D01*
X171824693Y-112620441D01*
X171866699Y-112555756D01*
X171935421Y-112520739D01*
X172012443Y-112524775D01*
X172077128Y-112566781D01*
X172099161Y-112598839D01*
X172159769Y-112717790D01*
X172261583Y-112857924D01*
X172261586Y-112857928D01*
X172384072Y-112980414D01*
X172384075Y-112980416D01*
X172519676Y-113078937D01*
X172524212Y-113082232D01*
X172678555Y-113160873D01*
X172843299Y-113214402D01*
X173014389Y-113241500D01*
X173014393Y-113241500D01*
X173187607Y-113241500D01*
X173187611Y-113241500D01*
X173358701Y-113214402D01*
X173523445Y-113160873D01*
X173677788Y-113082232D01*
X173817928Y-112980414D01*
X173940414Y-112857928D01*
X174042232Y-112717788D01*
X174120873Y-112563445D01*
X174174402Y-112398701D01*
X174201500Y-112227611D01*
X174201500Y-112054389D01*
X174540500Y-112054389D01*
X174540500Y-112227611D01*
X174552137Y-112301086D01*
X174567597Y-112398700D01*
X174598742Y-112494553D01*
X174621127Y-112563445D01*
X174669929Y-112659224D01*
X174699771Y-112717793D01*
X174801583Y-112857924D01*
X174801586Y-112857928D01*
X174924072Y-112980414D01*
X174924075Y-112980416D01*
X175059676Y-113078937D01*
X175064212Y-113082232D01*
X175218555Y-113160873D01*
X175383299Y-113214402D01*
X175554389Y-113241500D01*
X175554393Y-113241500D01*
X175727607Y-113241500D01*
X175727611Y-113241500D01*
X175898701Y-113214402D01*
X176063445Y-113160873D01*
X176217788Y-113082232D01*
X176357928Y-112980414D01*
X176480414Y-112857928D01*
X176582232Y-112717788D01*
X176660873Y-112563445D01*
X176714402Y-112398701D01*
X176741500Y-112227611D01*
X176741500Y-112054389D01*
X176714402Y-111883299D01*
X176660873Y-111718555D01*
X176582232Y-111564212D01*
X176480414Y-111424072D01*
X176357928Y-111301586D01*
X176278668Y-111244000D01*
X176217793Y-111199771D01*
X176217790Y-111199769D01*
X176217788Y-111199768D01*
X176063445Y-111121127D01*
X175898701Y-111067598D01*
X175727611Y-111040500D01*
X175554389Y-111040500D01*
X175488050Y-111051007D01*
X175383299Y-111067597D01*
X175230859Y-111117129D01*
X175218555Y-111121127D01*
X175218549Y-111121129D01*
X175218549Y-111121130D01*
X175064206Y-111199771D01*
X174924075Y-111301583D01*
X174801583Y-111424075D01*
X174699771Y-111564206D01*
X174621130Y-111718549D01*
X174621125Y-111718561D01*
X174567597Y-111883299D01*
X174556845Y-111951190D01*
X174540500Y-112054389D01*
X174201500Y-112054389D01*
X174174402Y-111883299D01*
X174120873Y-111718555D01*
X174042232Y-111564212D01*
X173940414Y-111424072D01*
X173817928Y-111301586D01*
X173738668Y-111244000D01*
X173677793Y-111199771D01*
X173677790Y-111199769D01*
X173677788Y-111199768D01*
X173523445Y-111121127D01*
X173475821Y-111105653D01*
X173358700Y-111067597D01*
X173261086Y-111052137D01*
X173187611Y-111040500D01*
X173014389Y-111040500D01*
X172948050Y-111051007D01*
X172843299Y-111067597D01*
X172690859Y-111117129D01*
X172678555Y-111121127D01*
X172678549Y-111121129D01*
X172678549Y-111121130D01*
X172524206Y-111199771D01*
X172384075Y-111301583D01*
X172261583Y-111424075D01*
X172159771Y-111564206D01*
X172159768Y-111564212D01*
X172099162Y-111683160D01*
X172099161Y-111683161D01*
X172047552Y-111740478D01*
X171974199Y-111764312D01*
X171898756Y-111748276D01*
X171841439Y-111696667D01*
X171824693Y-111661559D01*
X171812091Y-111622773D01*
X171715621Y-111433444D01*
X171676270Y-111379282D01*
X171043962Y-112011589D01*
X171026925Y-111948007D01*
X170961099Y-111833993D01*
X170868007Y-111740901D01*
X170753993Y-111675075D01*
X170690407Y-111658037D01*
X171322716Y-111025729D01*
X171322716Y-111025728D01*
X171268555Y-110986378D01*
X171268555Y-110986377D01*
X171079223Y-110889907D01*
X171040438Y-110877305D01*
X170975753Y-110835297D01*
X170940739Y-110766575D01*
X170944776Y-110689553D01*
X170986784Y-110624868D01*
X171018827Y-110602844D01*
X171137788Y-110542232D01*
X171277928Y-110440414D01*
X171400414Y-110317928D01*
X171502232Y-110177788D01*
X171580873Y-110023445D01*
X171634402Y-109858701D01*
X171661500Y-109687611D01*
X171661500Y-109514389D01*
X172000500Y-109514389D01*
X172000500Y-109687611D01*
X172006284Y-109724127D01*
X172027597Y-109858700D01*
X172046582Y-109917128D01*
X172081127Y-110023445D01*
X172156605Y-110171579D01*
X172159771Y-110177793D01*
X172261583Y-110317924D01*
X172261586Y-110317928D01*
X172384072Y-110440414D01*
X172384075Y-110440416D01*
X172524203Y-110542226D01*
X172524212Y-110542232D01*
X172678555Y-110620873D01*
X172843299Y-110674402D01*
X173014389Y-110701500D01*
X173014393Y-110701500D01*
X173187607Y-110701500D01*
X173187611Y-110701500D01*
X173358701Y-110674402D01*
X173523445Y-110620873D01*
X173677788Y-110542232D01*
X173817928Y-110440414D01*
X173940414Y-110317928D01*
X174042232Y-110177788D01*
X174120873Y-110023445D01*
X174174402Y-109858701D01*
X174201500Y-109687611D01*
X174201500Y-109514389D01*
X174174402Y-109343299D01*
X174120873Y-109178555D01*
X174042232Y-109024212D01*
X173940414Y-108884072D01*
X173817928Y-108761586D01*
X173817924Y-108761583D01*
X173769392Y-108726322D01*
X174540500Y-108726322D01*
X174540500Y-110475677D01*
X174555033Y-110548739D01*
X174603232Y-110620874D01*
X174610399Y-110631601D01*
X174693260Y-110686966D01*
X174766326Y-110701500D01*
X174766330Y-110701500D01*
X176515670Y-110701500D01*
X176515674Y-110701500D01*
X176588740Y-110686966D01*
X176671601Y-110631601D01*
X176726966Y-110548740D01*
X176741500Y-110475674D01*
X176741500Y-109846177D01*
X184578000Y-109846177D01*
X184578000Y-110494000D01*
X185494988Y-110494000D01*
X185462075Y-110551007D01*
X185428000Y-110678174D01*
X185428000Y-110809826D01*
X185462075Y-110936993D01*
X185494988Y-110994000D01*
X184578000Y-110994000D01*
X184578000Y-111641822D01*
X184578001Y-111641842D01*
X184584401Y-111701377D01*
X184634645Y-111836084D01*
X184634650Y-111836094D01*
X184720809Y-111951187D01*
X184720812Y-111951190D01*
X184835905Y-112037349D01*
X184835915Y-112037354D01*
X184970623Y-112087598D01*
X184970621Y-112087598D01*
X185030157Y-112093998D01*
X185030177Y-112094000D01*
X185678000Y-112094000D01*
X185678000Y-111177012D01*
X185735007Y-111209925D01*
X185862174Y-111244000D01*
X185993826Y-111244000D01*
X186120993Y-111209925D01*
X186178000Y-111177012D01*
X186178000Y-112094000D01*
X186825823Y-112094000D01*
X186825842Y-112093998D01*
X186885377Y-112087598D01*
X187020084Y-112037354D01*
X187020094Y-112037349D01*
X187135187Y-111951190D01*
X187135190Y-111951187D01*
X187221349Y-111836094D01*
X187221354Y-111836084D01*
X187271598Y-111701377D01*
X187277998Y-111641842D01*
X187278000Y-111641822D01*
X187278000Y-111436963D01*
X187297962Y-111362463D01*
X187352500Y-111307925D01*
X187427000Y-111287963D01*
X187501500Y-111307925D01*
X187547542Y-111349381D01*
X187628586Y-111460928D01*
X187751072Y-111583414D01*
X187751075Y-111583416D01*
X187888361Y-111683161D01*
X187891212Y-111685232D01*
X188045555Y-111763873D01*
X188210299Y-111817402D01*
X188381389Y-111844500D01*
X188381393Y-111844500D01*
X188554607Y-111844500D01*
X188554611Y-111844500D01*
X188725701Y-111817402D01*
X188890445Y-111763873D01*
X189044788Y-111685232D01*
X189184928Y-111583414D01*
X189307414Y-111460928D01*
X189409232Y-111320788D01*
X189487873Y-111166445D01*
X189541402Y-111001701D01*
X189568500Y-110830611D01*
X189568500Y-110657389D01*
X189541402Y-110486299D01*
X189508476Y-110384966D01*
X189504440Y-110307947D01*
X189539455Y-110239225D01*
X189544806Y-110233585D01*
X193527645Y-106250745D01*
X193527650Y-106250742D01*
X193539911Y-106238480D01*
X193539913Y-106238480D01*
X193614480Y-106163913D01*
X193618552Y-106156861D01*
X193625625Y-106144609D01*
X193667207Y-106072587D01*
X193670703Y-106059541D01*
X193694501Y-105970727D01*
X193694501Y-105865273D01*
X193694501Y-105856145D01*
X193694500Y-105856127D01*
X193694500Y-105135500D01*
X193714462Y-105061000D01*
X193769000Y-105006462D01*
X193843500Y-104986500D01*
X194168670Y-104986500D01*
X194168674Y-104986500D01*
X194241740Y-104971966D01*
X194324601Y-104916601D01*
X194379966Y-104833740D01*
X194394500Y-104760674D01*
X194394500Y-103011326D01*
X194379966Y-102938260D01*
X194324601Y-102855399D01*
X194241740Y-102800034D01*
X194241739Y-102800033D01*
X194168677Y-102785500D01*
X194168674Y-102785500D01*
X192419326Y-102785500D01*
X192419322Y-102785500D01*
X192346260Y-102800033D01*
X192263399Y-102855398D01*
X192263398Y-102855399D01*
X192208033Y-102938260D01*
X192193500Y-103011322D01*
X192193500Y-104760677D01*
X192208033Y-104833739D01*
X192208034Y-104833740D01*
X192263399Y-104916601D01*
X192346260Y-104971966D01*
X192419326Y-104986500D01*
X192744500Y-104986500D01*
X192819000Y-105006462D01*
X192873538Y-105061000D01*
X192893500Y-105135500D01*
X192893500Y-105690388D01*
X192873538Y-105764888D01*
X192849859Y-105795747D01*
X188978432Y-109667173D01*
X188911637Y-109705737D01*
X188834509Y-109705737D01*
X188827030Y-109703522D01*
X188819226Y-109700986D01*
X188725701Y-109670598D01*
X188725697Y-109670597D01*
X188725696Y-109670597D01*
X188683396Y-109663897D01*
X188554611Y-109643500D01*
X188381389Y-109643500D01*
X188315037Y-109654009D01*
X188210299Y-109670597D01*
X188045561Y-109724125D01*
X188045555Y-109724127D01*
X188045549Y-109724129D01*
X188045549Y-109724130D01*
X187891206Y-109802771D01*
X187751075Y-109904583D01*
X187628588Y-110027070D01*
X187628583Y-110027076D01*
X187547543Y-110138617D01*
X187487603Y-110187155D01*
X187411424Y-110199220D01*
X187339419Y-110171579D01*
X187290881Y-110111639D01*
X187278000Y-110051036D01*
X187278000Y-109846177D01*
X187277998Y-109846157D01*
X187271598Y-109786622D01*
X187221354Y-109651915D01*
X187221349Y-109651905D01*
X187135190Y-109536812D01*
X187135187Y-109536809D01*
X187020094Y-109450650D01*
X187020084Y-109450645D01*
X186885376Y-109400401D01*
X186885378Y-109400401D01*
X186825842Y-109394001D01*
X186825823Y-109394000D01*
X186178000Y-109394000D01*
X186178000Y-110310988D01*
X186120993Y-110278075D01*
X185993826Y-110244000D01*
X185862174Y-110244000D01*
X185735007Y-110278075D01*
X185678000Y-110310988D01*
X185678000Y-109394000D01*
X185030177Y-109394000D01*
X185030157Y-109394001D01*
X184970622Y-109400401D01*
X184835915Y-109450645D01*
X184835905Y-109450650D01*
X184720812Y-109536809D01*
X184720809Y-109536812D01*
X184634650Y-109651905D01*
X184634645Y-109651915D01*
X184584401Y-109786622D01*
X184578001Y-109846157D01*
X184578000Y-109846177D01*
X176741500Y-109846177D01*
X176741500Y-108726326D01*
X176726966Y-108653260D01*
X176671601Y-108570399D01*
X176607543Y-108527597D01*
X176588739Y-108515033D01*
X176515677Y-108500500D01*
X176515674Y-108500500D01*
X174766326Y-108500500D01*
X174766322Y-108500500D01*
X174693260Y-108515033D01*
X174610399Y-108570398D01*
X174610398Y-108570399D01*
X174555033Y-108653260D01*
X174540500Y-108726322D01*
X173769392Y-108726322D01*
X173677793Y-108659771D01*
X173677790Y-108659769D01*
X173677788Y-108659768D01*
X173523445Y-108581127D01*
X173475821Y-108565653D01*
X173358700Y-108527597D01*
X173261086Y-108512137D01*
X173187611Y-108500500D01*
X173014389Y-108500500D01*
X172948037Y-108511009D01*
X172843299Y-108527597D01*
X172678561Y-108581125D01*
X172678555Y-108581127D01*
X172678549Y-108581129D01*
X172678549Y-108581130D01*
X172524206Y-108659771D01*
X172384075Y-108761583D01*
X172261583Y-108884075D01*
X172159771Y-109024206D01*
X172081130Y-109178549D01*
X172081125Y-109178561D01*
X172027597Y-109343299D01*
X172017349Y-109408007D01*
X172000500Y-109514389D01*
X171661500Y-109514389D01*
X171634402Y-109343299D01*
X171580873Y-109178555D01*
X171502232Y-109024212D01*
X171400414Y-108884072D01*
X171277928Y-108761586D01*
X171277924Y-108761583D01*
X171137793Y-108659771D01*
X171137790Y-108659769D01*
X171137788Y-108659768D01*
X170983445Y-108581127D01*
X170935821Y-108565653D01*
X170818700Y-108527597D01*
X170721086Y-108512137D01*
X170647611Y-108500500D01*
X170474389Y-108500500D01*
X170408037Y-108511009D01*
X170303299Y-108527597D01*
X170138561Y-108581125D01*
X170138555Y-108581127D01*
X170138549Y-108581129D01*
X170138549Y-108581130D01*
X169984206Y-108659771D01*
X169844075Y-108761583D01*
X169721583Y-108884075D01*
X169619771Y-109024206D01*
X169541130Y-109178549D01*
X169541125Y-109178561D01*
X169487597Y-109343299D01*
X169477349Y-109408007D01*
X169460500Y-109514389D01*
X169460500Y-109687611D01*
X169466284Y-109724127D01*
X169487597Y-109858700D01*
X169506582Y-109917128D01*
X169541127Y-110023445D01*
X169616605Y-110171579D01*
X169619771Y-110177793D01*
X169721583Y-110317924D01*
X169721586Y-110317928D01*
X169844072Y-110440414D01*
X169844075Y-110440416D01*
X169984208Y-110542230D01*
X169984212Y-110542232D01*
X170103161Y-110602839D01*
X170160478Y-110654446D01*
X170184312Y-110727799D01*
X170168276Y-110803242D01*
X170116668Y-110860560D01*
X170081562Y-110877305D01*
X170042774Y-110889908D01*
X169853444Y-110986378D01*
X169799282Y-111025728D01*
X169799282Y-111025729D01*
X170431590Y-111658037D01*
X170368007Y-111675075D01*
X170253993Y-111740901D01*
X170160901Y-111833993D01*
X170095075Y-111948007D01*
X170078037Y-112011590D01*
X169445728Y-111379282D01*
X169406378Y-111433444D01*
X169309908Y-111622774D01*
X169297305Y-111661562D01*
X169255297Y-111726246D01*
X169186575Y-111761260D01*
X169109552Y-111757223D01*
X169044868Y-111715215D01*
X169022839Y-111683161D01*
X168962232Y-111564212D01*
X168962230Y-111564208D01*
X168860416Y-111424075D01*
X168860414Y-111424072D01*
X168737928Y-111301586D01*
X168658668Y-111244000D01*
X168597793Y-111199771D01*
X168597790Y-111199769D01*
X168597788Y-111199768D01*
X168443445Y-111121127D01*
X168395821Y-111105653D01*
X168278700Y-111067597D01*
X168181086Y-111052137D01*
X168107611Y-111040500D01*
X167934389Y-111040500D01*
X167868050Y-111051007D01*
X167763299Y-111067597D01*
X167610859Y-111117129D01*
X167598555Y-111121127D01*
X167598549Y-111121129D01*
X167598549Y-111121130D01*
X167444206Y-111199771D01*
X167304075Y-111301583D01*
X167181583Y-111424075D01*
X167079771Y-111564206D01*
X167001130Y-111718549D01*
X167001125Y-111718561D01*
X166947597Y-111883299D01*
X166936845Y-111951190D01*
X166920500Y-112054389D01*
X166581500Y-112054389D01*
X166554402Y-111883299D01*
X166500873Y-111718555D01*
X166422232Y-111564212D01*
X166320414Y-111424072D01*
X166197928Y-111301586D01*
X166071768Y-111209925D01*
X166057790Y-111199769D01*
X165938839Y-111139161D01*
X165881521Y-111087552D01*
X165857687Y-111014199D01*
X165873723Y-110938757D01*
X165925332Y-110881439D01*
X165960441Y-110864693D01*
X165999224Y-110852091D01*
X166188555Y-110755622D01*
X166188557Y-110755620D01*
X166242716Y-110716270D01*
X166242716Y-110716269D01*
X165610409Y-110083962D01*
X165673993Y-110066925D01*
X165788007Y-110001099D01*
X165881099Y-109908007D01*
X165946925Y-109793993D01*
X165963962Y-109730409D01*
X166596269Y-110362716D01*
X166596270Y-110362716D01*
X166635620Y-110308557D01*
X166635622Y-110308555D01*
X166732091Y-110119224D01*
X166744693Y-110080441D01*
X166786699Y-110015756D01*
X166855421Y-109980739D01*
X166932443Y-109984775D01*
X166997128Y-110026781D01*
X167019161Y-110058839D01*
X167079769Y-110177790D01*
X167181583Y-110317924D01*
X167181586Y-110317928D01*
X167304072Y-110440414D01*
X167304075Y-110440416D01*
X167444203Y-110542226D01*
X167444212Y-110542232D01*
X167598555Y-110620873D01*
X167763299Y-110674402D01*
X167934389Y-110701500D01*
X167934393Y-110701500D01*
X168107607Y-110701500D01*
X168107611Y-110701500D01*
X168278701Y-110674402D01*
X168443445Y-110620873D01*
X168597788Y-110542232D01*
X168737928Y-110440414D01*
X168860414Y-110317928D01*
X168962232Y-110177788D01*
X169040873Y-110023445D01*
X169094402Y-109858701D01*
X169121500Y-109687611D01*
X169121500Y-109514389D01*
X169094402Y-109343299D01*
X169040873Y-109178555D01*
X168962232Y-109024212D01*
X168860414Y-108884072D01*
X168737928Y-108761586D01*
X168737924Y-108761583D01*
X168597793Y-108659771D01*
X168597790Y-108659769D01*
X168597788Y-108659768D01*
X168443445Y-108581127D01*
X168395821Y-108565653D01*
X168278700Y-108527597D01*
X168181086Y-108512137D01*
X168107611Y-108500500D01*
X167934389Y-108500500D01*
X167868037Y-108511009D01*
X167763299Y-108527597D01*
X167598561Y-108581125D01*
X167598555Y-108581127D01*
X167598549Y-108581129D01*
X167598549Y-108581130D01*
X167444206Y-108659771D01*
X167304075Y-108761583D01*
X167181583Y-108884075D01*
X167079771Y-109024206D01*
X167079768Y-109024212D01*
X167019162Y-109143160D01*
X167019161Y-109143161D01*
X166967552Y-109200478D01*
X166894199Y-109224312D01*
X166818756Y-109208276D01*
X166761439Y-109156667D01*
X166744693Y-109121559D01*
X166732091Y-109082773D01*
X166635621Y-108893444D01*
X166596270Y-108839282D01*
X165963962Y-109471589D01*
X165946925Y-109408007D01*
X165881099Y-109293993D01*
X165788007Y-109200901D01*
X165673993Y-109135075D01*
X165610407Y-109118037D01*
X166242716Y-108485729D01*
X166242716Y-108485728D01*
X166188555Y-108446378D01*
X166188555Y-108446377D01*
X165999220Y-108349906D01*
X165797128Y-108284242D01*
X165587242Y-108251000D01*
X165374758Y-108251000D01*
X165164871Y-108284242D01*
X164962779Y-108349906D01*
X164773444Y-108446378D01*
X164719282Y-108485728D01*
X164719282Y-108485729D01*
X165351590Y-109118037D01*
X165288007Y-109135075D01*
X165173993Y-109200901D01*
X165080901Y-109293993D01*
X165015075Y-109408007D01*
X164998037Y-109471590D01*
X164365729Y-108839282D01*
X164365728Y-108839282D01*
X164326378Y-108893444D01*
X164229908Y-109082774D01*
X164217305Y-109121562D01*
X164175297Y-109186246D01*
X164106575Y-109221260D01*
X164029552Y-109217223D01*
X163964868Y-109175215D01*
X163942839Y-109143161D01*
X163882232Y-109024212D01*
X163882230Y-109024208D01*
X163780416Y-108884075D01*
X163780414Y-108884072D01*
X163657928Y-108761586D01*
X163609402Y-108726330D01*
X163522319Y-108663060D01*
X163522317Y-108663058D01*
X163517795Y-108659772D01*
X163517789Y-108659769D01*
X163517788Y-108659768D01*
X163363445Y-108581127D01*
X163315821Y-108565653D01*
X163198700Y-108527597D01*
X163101086Y-108512137D01*
X163027611Y-108500500D01*
X162854389Y-108500500D01*
X162788037Y-108511009D01*
X162683299Y-108527597D01*
X162518561Y-108581125D01*
X162518555Y-108581127D01*
X162518549Y-108581129D01*
X162518549Y-108581130D01*
X162364206Y-108659771D01*
X162224075Y-108761583D01*
X162101583Y-108884075D01*
X161999771Y-109024206D01*
X161921130Y-109178549D01*
X161921125Y-109178561D01*
X161867597Y-109343299D01*
X161857349Y-109408007D01*
X161840500Y-109514389D01*
X161501500Y-109514389D01*
X161474402Y-109343299D01*
X161420873Y-109178555D01*
X161342232Y-109024212D01*
X161240414Y-108884072D01*
X161117928Y-108761586D01*
X161117924Y-108761583D01*
X160977793Y-108659771D01*
X160977790Y-108659769D01*
X160977788Y-108659768D01*
X160823445Y-108581127D01*
X160775821Y-108565653D01*
X160658700Y-108527597D01*
X160561086Y-108512137D01*
X160487611Y-108500500D01*
X160314389Y-108500500D01*
X160248037Y-108511009D01*
X160143299Y-108527597D01*
X159978561Y-108581125D01*
X159978555Y-108581127D01*
X159978549Y-108581129D01*
X159978549Y-108581130D01*
X159824206Y-108659771D01*
X159684075Y-108761583D01*
X159561583Y-108884075D01*
X159459771Y-109024206D01*
X159381130Y-109178549D01*
X159381125Y-109178561D01*
X159327597Y-109343299D01*
X159317349Y-109408007D01*
X159300500Y-109514389D01*
X159300500Y-109687611D01*
X159306284Y-109724127D01*
X159327597Y-109858700D01*
X159346582Y-109917128D01*
X159381127Y-110023445D01*
X159456605Y-110171579D01*
X159459771Y-110177793D01*
X159561583Y-110317924D01*
X159561586Y-110317928D01*
X159684072Y-110440414D01*
X159684075Y-110440416D01*
X159824208Y-110542230D01*
X159824212Y-110542232D01*
X159943161Y-110602839D01*
X160000478Y-110654446D01*
X160024312Y-110727799D01*
X160008276Y-110803242D01*
X159956668Y-110860560D01*
X159921562Y-110877305D01*
X159882774Y-110889908D01*
X159693444Y-110986378D01*
X159639282Y-111025728D01*
X159639282Y-111025729D01*
X160271590Y-111658037D01*
X160208007Y-111675075D01*
X160093993Y-111740901D01*
X160000901Y-111833993D01*
X159935075Y-111948007D01*
X159918037Y-112011590D01*
X159285728Y-111379282D01*
X159246378Y-111433444D01*
X159149908Y-111622774D01*
X159137305Y-111661562D01*
X159095297Y-111726246D01*
X159026575Y-111761260D01*
X158949552Y-111757223D01*
X158884868Y-111715215D01*
X158862839Y-111683161D01*
X158802232Y-111564212D01*
X158802230Y-111564208D01*
X158700416Y-111424075D01*
X158700414Y-111424072D01*
X158577928Y-111301586D01*
X158498668Y-111244000D01*
X158437793Y-111199771D01*
X158437790Y-111199769D01*
X158437788Y-111199768D01*
X158283445Y-111121127D01*
X158235821Y-111105653D01*
X158118700Y-111067597D01*
X158021086Y-111052137D01*
X157947611Y-111040500D01*
X157774389Y-111040500D01*
X157708050Y-111051007D01*
X157603299Y-111067597D01*
X157450859Y-111117129D01*
X157438555Y-111121127D01*
X157438549Y-111121129D01*
X157438549Y-111121130D01*
X157284206Y-111199771D01*
X157144075Y-111301583D01*
X157021583Y-111424075D01*
X156919771Y-111564206D01*
X156841130Y-111718549D01*
X156841125Y-111718561D01*
X156787597Y-111883299D01*
X156776845Y-111951190D01*
X156760500Y-112054389D01*
X156421500Y-112054389D01*
X156394402Y-111883299D01*
X156340873Y-111718555D01*
X156262232Y-111564212D01*
X156160414Y-111424072D01*
X156037928Y-111301586D01*
X155958668Y-111244000D01*
X155897793Y-111199771D01*
X155897790Y-111199769D01*
X155897788Y-111199768D01*
X155743445Y-111121127D01*
X155695821Y-111105653D01*
X155578700Y-111067597D01*
X155481086Y-111052137D01*
X155407611Y-111040500D01*
X155234389Y-111040500D01*
X155168050Y-111051007D01*
X155063299Y-111067597D01*
X154910859Y-111117129D01*
X154898555Y-111121127D01*
X154898549Y-111121129D01*
X154898549Y-111121130D01*
X154744206Y-111199771D01*
X154604075Y-111301583D01*
X154481583Y-111424075D01*
X154379771Y-111564206D01*
X154379768Y-111564212D01*
X154319162Y-111683160D01*
X154319161Y-111683161D01*
X154267552Y-111740478D01*
X154194199Y-111764312D01*
X154118756Y-111748276D01*
X154061439Y-111696667D01*
X154044693Y-111661559D01*
X154032091Y-111622773D01*
X153935621Y-111433444D01*
X153896270Y-111379282D01*
X153263962Y-112011589D01*
X153246925Y-111948007D01*
X153181099Y-111833993D01*
X153088007Y-111740901D01*
X152973993Y-111675075D01*
X152910407Y-111658037D01*
X153542716Y-111025729D01*
X153542716Y-111025728D01*
X153488555Y-110986378D01*
X153488555Y-110986377D01*
X153299223Y-110889907D01*
X153260438Y-110877305D01*
X153195753Y-110835297D01*
X153160739Y-110766575D01*
X153164776Y-110689553D01*
X153206784Y-110624868D01*
X153238827Y-110602844D01*
X153357788Y-110542232D01*
X153497928Y-110440414D01*
X153620414Y-110317928D01*
X153722232Y-110177788D01*
X153800873Y-110023445D01*
X153854402Y-109858701D01*
X153881500Y-109687611D01*
X153881500Y-109514389D01*
X154220500Y-109514389D01*
X154220500Y-109687611D01*
X154226284Y-109724127D01*
X154247597Y-109858700D01*
X154266582Y-109917128D01*
X154301127Y-110023445D01*
X154376605Y-110171579D01*
X154379771Y-110177793D01*
X154481583Y-110317924D01*
X154481586Y-110317928D01*
X154604072Y-110440414D01*
X154604075Y-110440416D01*
X154744203Y-110542226D01*
X154744212Y-110542232D01*
X154898555Y-110620873D01*
X155063299Y-110674402D01*
X155234389Y-110701500D01*
X155234393Y-110701500D01*
X155407607Y-110701500D01*
X155407611Y-110701500D01*
X155578701Y-110674402D01*
X155743445Y-110620873D01*
X155897788Y-110542232D01*
X156037928Y-110440414D01*
X156160414Y-110317928D01*
X156262232Y-110177788D01*
X156340873Y-110023445D01*
X156394402Y-109858701D01*
X156421500Y-109687611D01*
X156421500Y-109514389D01*
X156760500Y-109514389D01*
X156760500Y-109687611D01*
X156766284Y-109724127D01*
X156787597Y-109858700D01*
X156806582Y-109917128D01*
X156841127Y-110023445D01*
X156916605Y-110171579D01*
X156919771Y-110177793D01*
X157021583Y-110317924D01*
X157021586Y-110317928D01*
X157144072Y-110440414D01*
X157144075Y-110440416D01*
X157284203Y-110542226D01*
X157284212Y-110542232D01*
X157438555Y-110620873D01*
X157603299Y-110674402D01*
X157774389Y-110701500D01*
X157774393Y-110701500D01*
X157947607Y-110701500D01*
X157947611Y-110701500D01*
X158118701Y-110674402D01*
X158283445Y-110620873D01*
X158437788Y-110542232D01*
X158577928Y-110440414D01*
X158700414Y-110317928D01*
X158802232Y-110177788D01*
X158880873Y-110023445D01*
X158934402Y-109858701D01*
X158961500Y-109687611D01*
X158961500Y-109514389D01*
X158934402Y-109343299D01*
X158880873Y-109178555D01*
X158802232Y-109024212D01*
X158700414Y-108884072D01*
X158577928Y-108761586D01*
X158577924Y-108761583D01*
X158437793Y-108659771D01*
X158437790Y-108659769D01*
X158437788Y-108659768D01*
X158283445Y-108581127D01*
X158235821Y-108565653D01*
X158118700Y-108527597D01*
X158021086Y-108512137D01*
X157947611Y-108500500D01*
X157774389Y-108500500D01*
X157708037Y-108511009D01*
X157603299Y-108527597D01*
X157438561Y-108581125D01*
X157438555Y-108581127D01*
X157438549Y-108581129D01*
X157438549Y-108581130D01*
X157284206Y-108659771D01*
X157144075Y-108761583D01*
X157021583Y-108884075D01*
X156919771Y-109024206D01*
X156841130Y-109178549D01*
X156841125Y-109178561D01*
X156787597Y-109343299D01*
X156777349Y-109408007D01*
X156760500Y-109514389D01*
X156421500Y-109514389D01*
X156394402Y-109343299D01*
X156340873Y-109178555D01*
X156262232Y-109024212D01*
X156160414Y-108884072D01*
X156037928Y-108761586D01*
X156037924Y-108761583D01*
X155897793Y-108659771D01*
X155897790Y-108659769D01*
X155897788Y-108659768D01*
X155743445Y-108581127D01*
X155695821Y-108565653D01*
X155578700Y-108527597D01*
X155481086Y-108512137D01*
X155407611Y-108500500D01*
X155234389Y-108500500D01*
X155168037Y-108511009D01*
X155063299Y-108527597D01*
X154898561Y-108581125D01*
X154898555Y-108581127D01*
X154898549Y-108581129D01*
X154898549Y-108581130D01*
X154744206Y-108659771D01*
X154604075Y-108761583D01*
X154481583Y-108884075D01*
X154379771Y-109024206D01*
X154301130Y-109178549D01*
X154301125Y-109178561D01*
X154247597Y-109343299D01*
X154237349Y-109408007D01*
X154220500Y-109514389D01*
X153881500Y-109514389D01*
X153854402Y-109343299D01*
X153800873Y-109178555D01*
X153722232Y-109024212D01*
X153620414Y-108884072D01*
X153497928Y-108761586D01*
X153497924Y-108761583D01*
X153357793Y-108659771D01*
X153357790Y-108659769D01*
X153357788Y-108659768D01*
X153203445Y-108581127D01*
X153155821Y-108565653D01*
X153038700Y-108527597D01*
X152941086Y-108512137D01*
X152867611Y-108500500D01*
X152694389Y-108500500D01*
X152628037Y-108511009D01*
X152523299Y-108527597D01*
X152358561Y-108581125D01*
X152358555Y-108581127D01*
X152358549Y-108581129D01*
X152358549Y-108581130D01*
X152204206Y-108659771D01*
X152064075Y-108761583D01*
X151941583Y-108884075D01*
X151839771Y-109024206D01*
X151761130Y-109178549D01*
X151761125Y-109178561D01*
X151707597Y-109343299D01*
X151697349Y-109408007D01*
X151680500Y-109514389D01*
X151680500Y-109687611D01*
X151686284Y-109724127D01*
X151707597Y-109858700D01*
X151726582Y-109917128D01*
X151761127Y-110023445D01*
X151836605Y-110171579D01*
X151839771Y-110177793D01*
X151941583Y-110317924D01*
X151941586Y-110317928D01*
X152064072Y-110440414D01*
X152064075Y-110440416D01*
X152204208Y-110542230D01*
X152204212Y-110542232D01*
X152323161Y-110602839D01*
X152380478Y-110654446D01*
X152404312Y-110727799D01*
X152388276Y-110803242D01*
X152336668Y-110860560D01*
X152301562Y-110877305D01*
X152262774Y-110889908D01*
X152073444Y-110986378D01*
X152019282Y-111025728D01*
X152019282Y-111025729D01*
X152651590Y-111658037D01*
X152588007Y-111675075D01*
X152473993Y-111740901D01*
X152380901Y-111833993D01*
X152315075Y-111948007D01*
X152298037Y-112011590D01*
X151665728Y-111379282D01*
X151626378Y-111433444D01*
X151529908Y-111622774D01*
X151517305Y-111661562D01*
X151475297Y-111726246D01*
X151406575Y-111761260D01*
X151329552Y-111757223D01*
X151264868Y-111715215D01*
X151242839Y-111683161D01*
X151182232Y-111564212D01*
X151182230Y-111564208D01*
X151080416Y-111424075D01*
X151080414Y-111424072D01*
X150957928Y-111301586D01*
X150878668Y-111244000D01*
X150817793Y-111199771D01*
X150817790Y-111199769D01*
X150817788Y-111199768D01*
X150663445Y-111121127D01*
X150615821Y-111105653D01*
X150498700Y-111067597D01*
X150401086Y-111052137D01*
X150327611Y-111040500D01*
X150154389Y-111040500D01*
X150088050Y-111051007D01*
X149983299Y-111067597D01*
X149830859Y-111117129D01*
X149818555Y-111121127D01*
X149818549Y-111121129D01*
X149818549Y-111121130D01*
X149664206Y-111199771D01*
X149524075Y-111301583D01*
X149401583Y-111424075D01*
X149299771Y-111564206D01*
X149221130Y-111718549D01*
X149221125Y-111718561D01*
X149167597Y-111883299D01*
X149156845Y-111951190D01*
X149140500Y-112054389D01*
X148801500Y-112054389D01*
X148774402Y-111883299D01*
X148720873Y-111718555D01*
X148642232Y-111564212D01*
X148540414Y-111424072D01*
X148417928Y-111301586D01*
X148338668Y-111244000D01*
X148277793Y-111199771D01*
X148277790Y-111199769D01*
X148277788Y-111199768D01*
X148123445Y-111121127D01*
X148075821Y-111105653D01*
X147958700Y-111067597D01*
X147861086Y-111052137D01*
X147787611Y-111040500D01*
X147614389Y-111040500D01*
X147548050Y-111051007D01*
X147443299Y-111067597D01*
X147290859Y-111117129D01*
X147278555Y-111121127D01*
X147278549Y-111121129D01*
X147278549Y-111121130D01*
X147124206Y-111199771D01*
X146984075Y-111301583D01*
X146861583Y-111424075D01*
X146759771Y-111564206D01*
X146681130Y-111718549D01*
X146681125Y-111718561D01*
X146627597Y-111883299D01*
X146616845Y-111951190D01*
X146600500Y-112054389D01*
X146261500Y-112054389D01*
X146234402Y-111883299D01*
X146180873Y-111718555D01*
X146102232Y-111564212D01*
X146000414Y-111424072D01*
X145877928Y-111301586D01*
X145751768Y-111209925D01*
X145737790Y-111199769D01*
X145618839Y-111139161D01*
X145561521Y-111087552D01*
X145537687Y-111014199D01*
X145553723Y-110938757D01*
X145605332Y-110881439D01*
X145640441Y-110864693D01*
X145679224Y-110852091D01*
X145868555Y-110755622D01*
X145868557Y-110755620D01*
X145922716Y-110716270D01*
X145922716Y-110716269D01*
X145290409Y-110083962D01*
X145353993Y-110066925D01*
X145468007Y-110001099D01*
X145561099Y-109908007D01*
X145626925Y-109793993D01*
X145643962Y-109730409D01*
X146276269Y-110362716D01*
X146276270Y-110362716D01*
X146315620Y-110308557D01*
X146315622Y-110308555D01*
X146412091Y-110119224D01*
X146424693Y-110080441D01*
X146466699Y-110015756D01*
X146535421Y-109980739D01*
X146612443Y-109984775D01*
X146677128Y-110026781D01*
X146699161Y-110058839D01*
X146759769Y-110177790D01*
X146861583Y-110317924D01*
X146861586Y-110317928D01*
X146984072Y-110440414D01*
X146984075Y-110440416D01*
X147124203Y-110542226D01*
X147124212Y-110542232D01*
X147278555Y-110620873D01*
X147443299Y-110674402D01*
X147614389Y-110701500D01*
X147614393Y-110701500D01*
X147787607Y-110701500D01*
X147787611Y-110701500D01*
X147958701Y-110674402D01*
X148123445Y-110620873D01*
X148277788Y-110542232D01*
X148417928Y-110440414D01*
X148540414Y-110317928D01*
X148642232Y-110177788D01*
X148720873Y-110023445D01*
X148774402Y-109858701D01*
X148801500Y-109687611D01*
X148801500Y-109514389D01*
X149140500Y-109514389D01*
X149140500Y-109687611D01*
X149146284Y-109724127D01*
X149167597Y-109858700D01*
X149186582Y-109917128D01*
X149221127Y-110023445D01*
X149296605Y-110171579D01*
X149299771Y-110177793D01*
X149401583Y-110317924D01*
X149401586Y-110317928D01*
X149524072Y-110440414D01*
X149524075Y-110440416D01*
X149664203Y-110542226D01*
X149664212Y-110542232D01*
X149818555Y-110620873D01*
X149983299Y-110674402D01*
X150154389Y-110701500D01*
X150154393Y-110701500D01*
X150327607Y-110701500D01*
X150327611Y-110701500D01*
X150498701Y-110674402D01*
X150663445Y-110620873D01*
X150817788Y-110542232D01*
X150957928Y-110440414D01*
X151080414Y-110317928D01*
X151182232Y-110177788D01*
X151260873Y-110023445D01*
X151314402Y-109858701D01*
X151341500Y-109687611D01*
X151341500Y-109514389D01*
X151314402Y-109343299D01*
X151260873Y-109178555D01*
X151182232Y-109024212D01*
X151080414Y-108884072D01*
X150957928Y-108761586D01*
X150957924Y-108761583D01*
X150817793Y-108659771D01*
X150817790Y-108659769D01*
X150817788Y-108659768D01*
X150663445Y-108581127D01*
X150615821Y-108565653D01*
X150498700Y-108527597D01*
X150401086Y-108512137D01*
X150327611Y-108500500D01*
X150154389Y-108500500D01*
X150088037Y-108511009D01*
X149983299Y-108527597D01*
X149818561Y-108581125D01*
X149818555Y-108581127D01*
X149818549Y-108581129D01*
X149818549Y-108581130D01*
X149664206Y-108659771D01*
X149524075Y-108761583D01*
X149401583Y-108884075D01*
X149299771Y-109024206D01*
X149221130Y-109178549D01*
X149221125Y-109178561D01*
X149167597Y-109343299D01*
X149157349Y-109408007D01*
X149140500Y-109514389D01*
X148801500Y-109514389D01*
X148774402Y-109343299D01*
X148720873Y-109178555D01*
X148642232Y-109024212D01*
X148540414Y-108884072D01*
X148417928Y-108761586D01*
X148417924Y-108761583D01*
X148277793Y-108659771D01*
X148277790Y-108659769D01*
X148277788Y-108659768D01*
X148123445Y-108581127D01*
X148075821Y-108565653D01*
X147958700Y-108527597D01*
X147861086Y-108512137D01*
X147787611Y-108500500D01*
X147614389Y-108500500D01*
X147548037Y-108511009D01*
X147443299Y-108527597D01*
X147278561Y-108581125D01*
X147278555Y-108581127D01*
X147278549Y-108581129D01*
X147278549Y-108581130D01*
X147124206Y-108659771D01*
X146984075Y-108761583D01*
X146861583Y-108884075D01*
X146759771Y-109024206D01*
X146759768Y-109024212D01*
X146699162Y-109143160D01*
X146699161Y-109143161D01*
X146647552Y-109200478D01*
X146574199Y-109224312D01*
X146498756Y-109208276D01*
X146441439Y-109156667D01*
X146424693Y-109121559D01*
X146412091Y-109082773D01*
X146315621Y-108893444D01*
X146276270Y-108839282D01*
X145643962Y-109471589D01*
X145626925Y-109408007D01*
X145561099Y-109293993D01*
X145468007Y-109200901D01*
X145353993Y-109135075D01*
X145290407Y-109118037D01*
X145922716Y-108485729D01*
X145922716Y-108485728D01*
X145868555Y-108446378D01*
X145868555Y-108446377D01*
X145679220Y-108349906D01*
X145477128Y-108284242D01*
X145267242Y-108251000D01*
X145054758Y-108251000D01*
X144844871Y-108284242D01*
X144642779Y-108349906D01*
X144453444Y-108446378D01*
X144399282Y-108485728D01*
X144399282Y-108485729D01*
X145031590Y-109118037D01*
X144968007Y-109135075D01*
X144853993Y-109200901D01*
X144760901Y-109293993D01*
X144695075Y-109408007D01*
X144678037Y-109471590D01*
X144045728Y-108839282D01*
X144006378Y-108893444D01*
X143909908Y-109082774D01*
X143897305Y-109121562D01*
X143855297Y-109186246D01*
X143786575Y-109221260D01*
X143709552Y-109217223D01*
X143644868Y-109175215D01*
X143622839Y-109143161D01*
X143562232Y-109024212D01*
X143562230Y-109024208D01*
X143460416Y-108884075D01*
X143460414Y-108884072D01*
X143337928Y-108761586D01*
X143289402Y-108726330D01*
X143202319Y-108663060D01*
X143202317Y-108663058D01*
X143197795Y-108659772D01*
X143197789Y-108659769D01*
X143197788Y-108659768D01*
X143043445Y-108581127D01*
X142995821Y-108565653D01*
X142878700Y-108527597D01*
X142781086Y-108512137D01*
X142707611Y-108500500D01*
X142534389Y-108500500D01*
X142468037Y-108511009D01*
X142363299Y-108527597D01*
X142198561Y-108581125D01*
X142198555Y-108581127D01*
X142198549Y-108581129D01*
X142198549Y-108581130D01*
X142044206Y-108659771D01*
X141904075Y-108761583D01*
X141781583Y-108884075D01*
X141679771Y-109024206D01*
X141601130Y-109178549D01*
X141601125Y-109178561D01*
X141547597Y-109343299D01*
X141537349Y-109408007D01*
X141520500Y-109514389D01*
X141181500Y-109514389D01*
X141154402Y-109343299D01*
X141100873Y-109178555D01*
X141022232Y-109024212D01*
X140920414Y-108884072D01*
X140797928Y-108761586D01*
X140797924Y-108761583D01*
X140657793Y-108659771D01*
X140657790Y-108659769D01*
X140657788Y-108659768D01*
X140503445Y-108581127D01*
X140455821Y-108565653D01*
X140338700Y-108527597D01*
X140241086Y-108512137D01*
X140167611Y-108500500D01*
X139994389Y-108500500D01*
X139928037Y-108511009D01*
X139823299Y-108527597D01*
X139658561Y-108581125D01*
X139658555Y-108581127D01*
X139658549Y-108581129D01*
X139658549Y-108581130D01*
X139504206Y-108659771D01*
X139364075Y-108761583D01*
X139241583Y-108884075D01*
X139139771Y-109024206D01*
X139061130Y-109178549D01*
X139061125Y-109178561D01*
X139007597Y-109343299D01*
X138997349Y-109408007D01*
X138980500Y-109514389D01*
X138980500Y-109687611D01*
X138986284Y-109724127D01*
X139007597Y-109858700D01*
X139026582Y-109917128D01*
X139061127Y-110023445D01*
X139136605Y-110171579D01*
X139139771Y-110177793D01*
X139241583Y-110317924D01*
X139241586Y-110317928D01*
X139364072Y-110440414D01*
X139364075Y-110440416D01*
X139504208Y-110542230D01*
X139504212Y-110542232D01*
X139623161Y-110602839D01*
X139680478Y-110654446D01*
X139704312Y-110727799D01*
X139688276Y-110803242D01*
X139636668Y-110860560D01*
X139601562Y-110877305D01*
X139562774Y-110889908D01*
X139373444Y-110986378D01*
X139319282Y-111025728D01*
X139319282Y-111025729D01*
X139951590Y-111658037D01*
X139888007Y-111675075D01*
X139773993Y-111740901D01*
X139680901Y-111833993D01*
X139615075Y-111948007D01*
X139598037Y-112011590D01*
X138965729Y-111379282D01*
X138965728Y-111379282D01*
X138926378Y-111433444D01*
X138829908Y-111622774D01*
X138817305Y-111661562D01*
X138775297Y-111726246D01*
X138706575Y-111761260D01*
X138629552Y-111757223D01*
X138564868Y-111715215D01*
X138542839Y-111683161D01*
X138482232Y-111564212D01*
X138482230Y-111564208D01*
X138380416Y-111424075D01*
X138380414Y-111424072D01*
X138257928Y-111301586D01*
X138178668Y-111244000D01*
X138117793Y-111199771D01*
X138117790Y-111199769D01*
X138117788Y-111199768D01*
X137963445Y-111121127D01*
X137915821Y-111105653D01*
X137798700Y-111067597D01*
X137701086Y-111052137D01*
X137627611Y-111040500D01*
X137454389Y-111040500D01*
X137388050Y-111051007D01*
X137283299Y-111067597D01*
X137130859Y-111117129D01*
X137118555Y-111121127D01*
X137118549Y-111121129D01*
X137118549Y-111121130D01*
X136964206Y-111199771D01*
X136824075Y-111301583D01*
X136701583Y-111424075D01*
X136599771Y-111564206D01*
X136599768Y-111564212D01*
X136539162Y-111683160D01*
X136539161Y-111683161D01*
X136487552Y-111740478D01*
X136414199Y-111764312D01*
X136338756Y-111748276D01*
X136281439Y-111696667D01*
X136264693Y-111661559D01*
X136252091Y-111622773D01*
X136155621Y-111433444D01*
X136116270Y-111379282D01*
X135483962Y-112011589D01*
X135466925Y-111948007D01*
X135401099Y-111833993D01*
X135308007Y-111740901D01*
X135193993Y-111675075D01*
X135130407Y-111658037D01*
X135762716Y-111025729D01*
X135762716Y-111025728D01*
X135708555Y-110986378D01*
X135708555Y-110986377D01*
X135519223Y-110889907D01*
X135480438Y-110877305D01*
X135415753Y-110835297D01*
X135380739Y-110766575D01*
X135384776Y-110689553D01*
X135426784Y-110624868D01*
X135458827Y-110602844D01*
X135577788Y-110542232D01*
X135717928Y-110440414D01*
X135840414Y-110317928D01*
X135942232Y-110177788D01*
X136020873Y-110023445D01*
X136074402Y-109858701D01*
X136101500Y-109687611D01*
X136101500Y-109514389D01*
X136440500Y-109514389D01*
X136440500Y-109687611D01*
X136446284Y-109724127D01*
X136467597Y-109858700D01*
X136486582Y-109917128D01*
X136521127Y-110023445D01*
X136596605Y-110171579D01*
X136599771Y-110177793D01*
X136701583Y-110317924D01*
X136701586Y-110317928D01*
X136824072Y-110440414D01*
X136824075Y-110440416D01*
X136964203Y-110542226D01*
X136964212Y-110542232D01*
X137118555Y-110620873D01*
X137283299Y-110674402D01*
X137454389Y-110701500D01*
X137454393Y-110701500D01*
X137627607Y-110701500D01*
X137627611Y-110701500D01*
X137798701Y-110674402D01*
X137963445Y-110620873D01*
X138117788Y-110542232D01*
X138257928Y-110440414D01*
X138380414Y-110317928D01*
X138482232Y-110177788D01*
X138560873Y-110023445D01*
X138614402Y-109858701D01*
X138641500Y-109687611D01*
X138641500Y-109514389D01*
X138614402Y-109343299D01*
X138560873Y-109178555D01*
X138482232Y-109024212D01*
X138380414Y-108884072D01*
X138257928Y-108761586D01*
X138257924Y-108761583D01*
X138117793Y-108659771D01*
X138117790Y-108659769D01*
X138117788Y-108659768D01*
X137963445Y-108581127D01*
X137915821Y-108565653D01*
X137798700Y-108527597D01*
X137701086Y-108512137D01*
X137627611Y-108500500D01*
X137454389Y-108500500D01*
X137388037Y-108511009D01*
X137283299Y-108527597D01*
X137118561Y-108581125D01*
X137118555Y-108581127D01*
X137118549Y-108581129D01*
X137118549Y-108581130D01*
X136964206Y-108659771D01*
X136824075Y-108761583D01*
X136701583Y-108884075D01*
X136599771Y-109024206D01*
X136521130Y-109178549D01*
X136521125Y-109178561D01*
X136467597Y-109343299D01*
X136457349Y-109408007D01*
X136440500Y-109514389D01*
X136101500Y-109514389D01*
X136074402Y-109343299D01*
X136020873Y-109178555D01*
X135942232Y-109024212D01*
X135840414Y-108884072D01*
X135717928Y-108761586D01*
X135717924Y-108761583D01*
X135577793Y-108659771D01*
X135577790Y-108659769D01*
X135577788Y-108659768D01*
X135423445Y-108581127D01*
X135375821Y-108565653D01*
X135258700Y-108527597D01*
X135161086Y-108512137D01*
X135087611Y-108500500D01*
X134914389Y-108500500D01*
X134848037Y-108511009D01*
X134743299Y-108527597D01*
X134578561Y-108581125D01*
X134578555Y-108581127D01*
X134578549Y-108581129D01*
X134578549Y-108581130D01*
X134424206Y-108659771D01*
X134284075Y-108761583D01*
X134161583Y-108884075D01*
X134059771Y-109024206D01*
X133981130Y-109178549D01*
X133981125Y-109178561D01*
X133927597Y-109343299D01*
X133917349Y-109408007D01*
X133900500Y-109514389D01*
X133900500Y-109687611D01*
X133906284Y-109724127D01*
X133927597Y-109858700D01*
X133946582Y-109917128D01*
X133981127Y-110023445D01*
X134056605Y-110171579D01*
X134059771Y-110177793D01*
X134161583Y-110317924D01*
X134161586Y-110317928D01*
X134284072Y-110440414D01*
X134284075Y-110440416D01*
X134424208Y-110542230D01*
X134424212Y-110542232D01*
X134543161Y-110602839D01*
X134600478Y-110654446D01*
X134624312Y-110727799D01*
X134608276Y-110803242D01*
X134556668Y-110860560D01*
X134521562Y-110877305D01*
X134482774Y-110889908D01*
X134293444Y-110986378D01*
X134239282Y-111025728D01*
X134239282Y-111025729D01*
X134871590Y-111658037D01*
X134808007Y-111675075D01*
X134693993Y-111740901D01*
X134600901Y-111833993D01*
X134535075Y-111948007D01*
X134518037Y-112011590D01*
X133885729Y-111379282D01*
X133885728Y-111379282D01*
X133846378Y-111433444D01*
X133749908Y-111622774D01*
X133737305Y-111661562D01*
X133695297Y-111726246D01*
X133626575Y-111761260D01*
X133549552Y-111757223D01*
X133484868Y-111715215D01*
X133462839Y-111683161D01*
X133402232Y-111564212D01*
X133402230Y-111564208D01*
X133300416Y-111424075D01*
X133300414Y-111424072D01*
X133177928Y-111301586D01*
X133098668Y-111244000D01*
X133037793Y-111199771D01*
X133037790Y-111199769D01*
X133037788Y-111199768D01*
X132883445Y-111121127D01*
X132835821Y-111105653D01*
X132718700Y-111067597D01*
X132621086Y-111052137D01*
X132547611Y-111040500D01*
X132374389Y-111040500D01*
X132308050Y-111051007D01*
X132203299Y-111067597D01*
X132050859Y-111117129D01*
X132038555Y-111121127D01*
X132038549Y-111121129D01*
X132038549Y-111121130D01*
X131884206Y-111199771D01*
X131744075Y-111301583D01*
X131621583Y-111424075D01*
X131519771Y-111564206D01*
X131441130Y-111718549D01*
X131441125Y-111718561D01*
X131387597Y-111883299D01*
X131376845Y-111951190D01*
X131360500Y-112054389D01*
X131021500Y-112054389D01*
X130994402Y-111883299D01*
X130940873Y-111718555D01*
X130862232Y-111564212D01*
X130760414Y-111424072D01*
X130637928Y-111301586D01*
X130558668Y-111244000D01*
X130497793Y-111199771D01*
X130497790Y-111199769D01*
X130497788Y-111199768D01*
X130343445Y-111121127D01*
X130295821Y-111105653D01*
X130178700Y-111067597D01*
X130081086Y-111052137D01*
X130007611Y-111040500D01*
X129834389Y-111040500D01*
X129768050Y-111051007D01*
X129663299Y-111067597D01*
X129510859Y-111117129D01*
X129498555Y-111121127D01*
X129498549Y-111121129D01*
X129498549Y-111121130D01*
X129344206Y-111199771D01*
X129204075Y-111301583D01*
X129081583Y-111424075D01*
X128979771Y-111564206D01*
X128901130Y-111718549D01*
X128901125Y-111718561D01*
X128847597Y-111883299D01*
X128836845Y-111951190D01*
X128820500Y-112054389D01*
X128481500Y-112054389D01*
X128454402Y-111883299D01*
X128400873Y-111718555D01*
X128322232Y-111564212D01*
X128220414Y-111424072D01*
X128097928Y-111301586D01*
X127971768Y-111209925D01*
X127957790Y-111199769D01*
X127838839Y-111139161D01*
X127781521Y-111087552D01*
X127757687Y-111014199D01*
X127773723Y-110938757D01*
X127825332Y-110881439D01*
X127860441Y-110864693D01*
X127899224Y-110852091D01*
X128088555Y-110755622D01*
X128088557Y-110755620D01*
X128142716Y-110716270D01*
X128142716Y-110716269D01*
X127510409Y-110083962D01*
X127573993Y-110066925D01*
X127688007Y-110001099D01*
X127781099Y-109908007D01*
X127846925Y-109793993D01*
X127863962Y-109730409D01*
X128496269Y-110362716D01*
X128496270Y-110362716D01*
X128535620Y-110308557D01*
X128535622Y-110308555D01*
X128632091Y-110119224D01*
X128644693Y-110080441D01*
X128686699Y-110015756D01*
X128755421Y-109980739D01*
X128832443Y-109984775D01*
X128897128Y-110026781D01*
X128919161Y-110058839D01*
X128979769Y-110177790D01*
X129081583Y-110317924D01*
X129081586Y-110317928D01*
X129204072Y-110440414D01*
X129204075Y-110440416D01*
X129344203Y-110542226D01*
X129344212Y-110542232D01*
X129498555Y-110620873D01*
X129663299Y-110674402D01*
X129834389Y-110701500D01*
X129834393Y-110701500D01*
X130007607Y-110701500D01*
X130007611Y-110701500D01*
X130178701Y-110674402D01*
X130343445Y-110620873D01*
X130497788Y-110542232D01*
X130637928Y-110440414D01*
X130760414Y-110317928D01*
X130862232Y-110177788D01*
X130940873Y-110023445D01*
X130994402Y-109858701D01*
X131021500Y-109687611D01*
X131021500Y-109514389D01*
X131360500Y-109514389D01*
X131360500Y-109687611D01*
X131366284Y-109724127D01*
X131387597Y-109858700D01*
X131406582Y-109917128D01*
X131441127Y-110023445D01*
X131516605Y-110171579D01*
X131519771Y-110177793D01*
X131621583Y-110317924D01*
X131621586Y-110317928D01*
X131744072Y-110440414D01*
X131744075Y-110440416D01*
X131884203Y-110542226D01*
X131884212Y-110542232D01*
X132038555Y-110620873D01*
X132203299Y-110674402D01*
X132374389Y-110701500D01*
X132374393Y-110701500D01*
X132547607Y-110701500D01*
X132547611Y-110701500D01*
X132718701Y-110674402D01*
X132883445Y-110620873D01*
X133037788Y-110542232D01*
X133177928Y-110440414D01*
X133300414Y-110317928D01*
X133402232Y-110177788D01*
X133480873Y-110023445D01*
X133534402Y-109858701D01*
X133561500Y-109687611D01*
X133561500Y-109514389D01*
X133534402Y-109343299D01*
X133480873Y-109178555D01*
X133402232Y-109024212D01*
X133300414Y-108884072D01*
X133177928Y-108761586D01*
X133177924Y-108761583D01*
X133037793Y-108659771D01*
X133037790Y-108659769D01*
X133037788Y-108659768D01*
X132883445Y-108581127D01*
X132835821Y-108565653D01*
X132718700Y-108527597D01*
X132621086Y-108512137D01*
X132547611Y-108500500D01*
X132374389Y-108500500D01*
X132308037Y-108511009D01*
X132203299Y-108527597D01*
X132038561Y-108581125D01*
X132038555Y-108581127D01*
X132038549Y-108581129D01*
X132038549Y-108581130D01*
X131884206Y-108659771D01*
X131744075Y-108761583D01*
X131621583Y-108884075D01*
X131519771Y-109024206D01*
X131441130Y-109178549D01*
X131441125Y-109178561D01*
X131387597Y-109343299D01*
X131377349Y-109408007D01*
X131360500Y-109514389D01*
X131021500Y-109514389D01*
X130994402Y-109343299D01*
X130940873Y-109178555D01*
X130862232Y-109024212D01*
X130760414Y-108884072D01*
X130637928Y-108761586D01*
X130637924Y-108761583D01*
X130497793Y-108659771D01*
X130497790Y-108659769D01*
X130497788Y-108659768D01*
X130343445Y-108581127D01*
X130295821Y-108565653D01*
X130178700Y-108527597D01*
X130081086Y-108512137D01*
X130007611Y-108500500D01*
X129834389Y-108500500D01*
X129768037Y-108511009D01*
X129663299Y-108527597D01*
X129498561Y-108581125D01*
X129498555Y-108581127D01*
X129498549Y-108581129D01*
X129498549Y-108581130D01*
X129344206Y-108659771D01*
X129204075Y-108761583D01*
X129081583Y-108884075D01*
X128979771Y-109024206D01*
X128979768Y-109024212D01*
X128919162Y-109143160D01*
X128919161Y-109143161D01*
X128867552Y-109200478D01*
X128794199Y-109224312D01*
X128718756Y-109208276D01*
X128661439Y-109156667D01*
X128644693Y-109121559D01*
X128632091Y-109082773D01*
X128535621Y-108893444D01*
X128496270Y-108839282D01*
X127863962Y-109471589D01*
X127846925Y-109408007D01*
X127781099Y-109293993D01*
X127688007Y-109200901D01*
X127573993Y-109135075D01*
X127510407Y-109118037D01*
X128142716Y-108485729D01*
X128142716Y-108485728D01*
X128088555Y-108446378D01*
X128088555Y-108446377D01*
X127899220Y-108349906D01*
X127697128Y-108284242D01*
X127487242Y-108251000D01*
X127274758Y-108251000D01*
X127064871Y-108284242D01*
X126862779Y-108349906D01*
X126673444Y-108446378D01*
X126619282Y-108485728D01*
X126619282Y-108485729D01*
X127251590Y-109118037D01*
X127188007Y-109135075D01*
X127073993Y-109200901D01*
X126980901Y-109293993D01*
X126915075Y-109408007D01*
X126898037Y-109471590D01*
X126265729Y-108839282D01*
X126265728Y-108839282D01*
X126226378Y-108893444D01*
X126129906Y-109082779D01*
X126064242Y-109284871D01*
X126031000Y-109494757D01*
X123182500Y-109494757D01*
X123182500Y-104104960D01*
X144478000Y-104104960D01*
X144478000Y-104302039D01*
X144516448Y-104495334D01*
X144516449Y-104495336D01*
X144591867Y-104677412D01*
X144591868Y-104677415D01*
X144662967Y-104783822D01*
X144701361Y-104841282D01*
X144840718Y-104980639D01*
X145004586Y-105090132D01*
X145010673Y-105094199D01*
X145009111Y-105096536D01*
X145055492Y-105139934D01*
X145077918Y-105213730D01*
X145078000Y-105218679D01*
X145078000Y-105907229D01*
X145085785Y-105936282D01*
X145103489Y-106002357D01*
X145105294Y-106009091D01*
X145158015Y-106100406D01*
X145158018Y-106100410D01*
X145158020Y-106100413D01*
X146364518Y-107306910D01*
X146364520Y-107306913D01*
X146439087Y-107381480D01*
X146492670Y-107412416D01*
X146502929Y-107418339D01*
X146530409Y-107434205D01*
X146530410Y-107434205D01*
X146530413Y-107434207D01*
X146632273Y-107461501D01*
X146632276Y-107461501D01*
X146746856Y-107461501D01*
X146746872Y-107461500D01*
X169545820Y-107461500D01*
X169620320Y-107481462D01*
X169668733Y-107529875D01*
X169670301Y-107528828D01*
X169699001Y-107571780D01*
X169783861Y-107698782D01*
X169923218Y-107838139D01*
X170009888Y-107896050D01*
X170087084Y-107947631D01*
X170087085Y-107947631D01*
X170087086Y-107947632D01*
X170269165Y-108023051D01*
X170462459Y-108061500D01*
X170462460Y-108061500D01*
X170659540Y-108061500D01*
X170659541Y-108061500D01*
X170852835Y-108023051D01*
X171034914Y-107947632D01*
X171198782Y-107838139D01*
X171338139Y-107698782D01*
X171447632Y-107534914D01*
X171523051Y-107352835D01*
X171561500Y-107159541D01*
X171561500Y-106962459D01*
X171523051Y-106769165D01*
X171470765Y-106642934D01*
X171447632Y-106587085D01*
X171444236Y-106580731D01*
X171426726Y-106505617D01*
X171449119Y-106431811D01*
X171505415Y-106379090D01*
X171575646Y-106361500D01*
X171900389Y-106361500D01*
X171919337Y-106366577D01*
X171938953Y-106366577D01*
X171955940Y-106376384D01*
X171974889Y-106381462D01*
X172005748Y-106405141D01*
X172099963Y-106499356D01*
X172138527Y-106566151D01*
X172138527Y-106634619D01*
X172140377Y-106634987D01*
X172100500Y-106835460D01*
X172100500Y-107032539D01*
X172138948Y-107225834D01*
X172138949Y-107225836D01*
X172214367Y-107407912D01*
X172214368Y-107407915D01*
X172263511Y-107481462D01*
X172323861Y-107571782D01*
X172463218Y-107711139D01*
X172572215Y-107783968D01*
X172627084Y-107820631D01*
X172627085Y-107820631D01*
X172627086Y-107820632D01*
X172809165Y-107896051D01*
X173002459Y-107934500D01*
X173002460Y-107934500D01*
X173199540Y-107934500D01*
X173199541Y-107934500D01*
X173392835Y-107896051D01*
X173574914Y-107820632D01*
X173738782Y-107711139D01*
X173878139Y-107571782D01*
X173987632Y-107407914D01*
X174063051Y-107225835D01*
X174101500Y-107032541D01*
X174101500Y-106835459D01*
X174063051Y-106642165D01*
X173987632Y-106460086D01*
X173878139Y-106296218D01*
X173738782Y-106156861D01*
X173654291Y-106100406D01*
X173574915Y-106047368D01*
X173574912Y-106047367D01*
X173392836Y-105971949D01*
X173392834Y-105971948D01*
X173237989Y-105941147D01*
X173199541Y-105933500D01*
X173002459Y-105933500D01*
X172809165Y-105971949D01*
X172809164Y-105971949D01*
X172801987Y-105973377D01*
X172801444Y-105970648D01*
X172737778Y-105972688D01*
X172669783Y-105936282D01*
X172666356Y-105932963D01*
X172529140Y-105795747D01*
X172373913Y-105640520D01*
X172373910Y-105640518D01*
X172373906Y-105640515D01*
X172282591Y-105587794D01*
X172282588Y-105587793D01*
X172255295Y-105580480D01*
X172180729Y-105560500D01*
X172180727Y-105560500D01*
X148335180Y-105560500D01*
X148260680Y-105540538D01*
X148212266Y-105492124D01*
X148210699Y-105493172D01*
X148163898Y-105423130D01*
X148097139Y-105323218D01*
X147957782Y-105183861D01*
X147885405Y-105135500D01*
X147793915Y-105074368D01*
X147793912Y-105074367D01*
X147611836Y-104998949D01*
X147611834Y-104998948D01*
X147456989Y-104968147D01*
X147418541Y-104960500D01*
X147221459Y-104960500D01*
X147189389Y-104966878D01*
X147028165Y-104998948D01*
X147028163Y-104998949D01*
X146846087Y-105074367D01*
X146846084Y-105074368D01*
X146682219Y-105183860D01*
X146682214Y-105183864D01*
X146542864Y-105323214D01*
X146542860Y-105323219D01*
X146433368Y-105487084D01*
X146433367Y-105487087D01*
X146357949Y-105669163D01*
X146357948Y-105669165D01*
X146329643Y-105811465D01*
X146327429Y-105815954D01*
X146327429Y-105820961D01*
X146310501Y-105850279D01*
X146295530Y-105880639D01*
X146291367Y-105883420D01*
X146288865Y-105887755D01*
X146259549Y-105904680D01*
X146231400Y-105923489D01*
X146226404Y-105923816D01*
X146222070Y-105926319D01*
X146188219Y-105926319D01*
X146154437Y-105928533D01*
X146149947Y-105926319D01*
X146144941Y-105926319D01*
X146115622Y-105909391D01*
X146085263Y-105894420D01*
X146078155Y-105887763D01*
X145922641Y-105732248D01*
X145884077Y-105665453D01*
X145879000Y-105626889D01*
X145879000Y-105218679D01*
X145898962Y-105144179D01*
X145947374Y-105095766D01*
X145946327Y-105094199D01*
X145952414Y-105090132D01*
X146116282Y-104980639D01*
X146255639Y-104841282D01*
X146365132Y-104677414D01*
X146440551Y-104495335D01*
X146479000Y-104302041D01*
X146479000Y-104104959D01*
X146440551Y-103911665D01*
X146365132Y-103729586D01*
X146255639Y-103565718D01*
X146116282Y-103426361D01*
X146055877Y-103386000D01*
X145952415Y-103316868D01*
X145952412Y-103316867D01*
X145770336Y-103241449D01*
X145770334Y-103241448D01*
X145615489Y-103210647D01*
X145577041Y-103203000D01*
X145379959Y-103203000D01*
X145347889Y-103209378D01*
X145186665Y-103241448D01*
X145186663Y-103241449D01*
X145004587Y-103316867D01*
X145004584Y-103316868D01*
X144840719Y-103426360D01*
X144840714Y-103426364D01*
X144701364Y-103565714D01*
X144701360Y-103565719D01*
X144591868Y-103729584D01*
X144591867Y-103729587D01*
X144516449Y-103911663D01*
X144516448Y-103911665D01*
X144478000Y-104104960D01*
X123182500Y-104104960D01*
X123182500Y-102988177D01*
X178990000Y-102988177D01*
X178990000Y-103636000D01*
X179906988Y-103636000D01*
X179874075Y-103693007D01*
X179840000Y-103820174D01*
X179840000Y-103951826D01*
X179874075Y-104078993D01*
X179906988Y-104136000D01*
X178990000Y-104136000D01*
X178990000Y-104783822D01*
X178990001Y-104783842D01*
X178996401Y-104843377D01*
X179046645Y-104978084D01*
X179046650Y-104978094D01*
X179132809Y-105093187D01*
X179132812Y-105093190D01*
X179247905Y-105179349D01*
X179247915Y-105179354D01*
X179382623Y-105229598D01*
X179382621Y-105229598D01*
X179442157Y-105235998D01*
X179442177Y-105236000D01*
X180090000Y-105236000D01*
X180090000Y-104319012D01*
X180147007Y-104351925D01*
X180274174Y-104386000D01*
X180405826Y-104386000D01*
X180532993Y-104351925D01*
X180590000Y-104319012D01*
X180590000Y-105236000D01*
X181237823Y-105236000D01*
X181237842Y-105235998D01*
X181297377Y-105229598D01*
X181432084Y-105179354D01*
X181432094Y-105179349D01*
X181547187Y-105093190D01*
X181547190Y-105093187D01*
X181633349Y-104978094D01*
X181633354Y-104978084D01*
X181683598Y-104843377D01*
X181689998Y-104783842D01*
X181690000Y-104783822D01*
X181690000Y-104136000D01*
X180773012Y-104136000D01*
X180805925Y-104078993D01*
X180840000Y-103951826D01*
X180840000Y-103820174D01*
X180805925Y-103693007D01*
X180773012Y-103636000D01*
X181690000Y-103636000D01*
X181690000Y-102988177D01*
X181689998Y-102988157D01*
X181683598Y-102928622D01*
X181633354Y-102793915D01*
X181633349Y-102793905D01*
X181547190Y-102678812D01*
X181547187Y-102678809D01*
X181432094Y-102592650D01*
X181432084Y-102592645D01*
X181297376Y-102542401D01*
X181297378Y-102542401D01*
X181237842Y-102536001D01*
X181237823Y-102536000D01*
X180590000Y-102536000D01*
X180590000Y-103452988D01*
X180532993Y-103420075D01*
X180405826Y-103386000D01*
X180274174Y-103386000D01*
X180147007Y-103420075D01*
X180090000Y-103452988D01*
X180090000Y-102536000D01*
X179442177Y-102536000D01*
X179442157Y-102536001D01*
X179382622Y-102542401D01*
X179247915Y-102592645D01*
X179247905Y-102592650D01*
X179132812Y-102678809D01*
X179132809Y-102678812D01*
X179046650Y-102793905D01*
X179046645Y-102793915D01*
X178996401Y-102928622D01*
X178990001Y-102988157D01*
X178990000Y-102988177D01*
X123182500Y-102988177D01*
X123182500Y-101618460D01*
X134508500Y-101618460D01*
X134508500Y-101815539D01*
X134546948Y-102008834D01*
X134546949Y-102008836D01*
X134622367Y-102190912D01*
X134622368Y-102190915D01*
X134695197Y-102299911D01*
X134731861Y-102354782D01*
X134871218Y-102494139D01*
X134980215Y-102566968D01*
X135035084Y-102603631D01*
X135035085Y-102603631D01*
X135035086Y-102603632D01*
X135217165Y-102679051D01*
X135410459Y-102717500D01*
X135410460Y-102717500D01*
X135607540Y-102717500D01*
X135607541Y-102717500D01*
X135800835Y-102679051D01*
X135982914Y-102603632D01*
X136146782Y-102494139D01*
X136286139Y-102354782D01*
X136395632Y-102190914D01*
X136471051Y-102008835D01*
X136509500Y-101815541D01*
X136509500Y-101618459D01*
X136471051Y-101425165D01*
X136395632Y-101243086D01*
X136286139Y-101079218D01*
X136146782Y-100939861D01*
X136091911Y-100903197D01*
X135982915Y-100830368D01*
X135982912Y-100830367D01*
X135800836Y-100754949D01*
X135800834Y-100754948D01*
X135645989Y-100724147D01*
X135607541Y-100716500D01*
X135410459Y-100716500D01*
X135378389Y-100722878D01*
X135217165Y-100754948D01*
X135217163Y-100754949D01*
X135035087Y-100830367D01*
X135035084Y-100830368D01*
X134871219Y-100939860D01*
X134871214Y-100939864D01*
X134731864Y-101079214D01*
X134731860Y-101079219D01*
X134622368Y-101243084D01*
X134622367Y-101243087D01*
X134546949Y-101425163D01*
X134546948Y-101425165D01*
X134508500Y-101618460D01*
X123182500Y-101618460D01*
X123182500Y-96802460D01*
X131460500Y-96802460D01*
X131460500Y-96999539D01*
X131498948Y-97192834D01*
X131498949Y-97192836D01*
X131574367Y-97374912D01*
X131574368Y-97374915D01*
X131647197Y-97483911D01*
X131683861Y-97538782D01*
X131823218Y-97678139D01*
X131932215Y-97750968D01*
X131987084Y-97787631D01*
X131987085Y-97787631D01*
X131987086Y-97787632D01*
X132169165Y-97863051D01*
X132362459Y-97901500D01*
X132362460Y-97901500D01*
X132559540Y-97901500D01*
X132559541Y-97901500D01*
X132752835Y-97863051D01*
X132752834Y-97863051D01*
X132760014Y-97861623D01*
X132760562Y-97864380D01*
X132824043Y-97862270D01*
X132892083Y-97898592D01*
X132895643Y-97902036D01*
X135136087Y-100142480D01*
X135136089Y-100142481D01*
X135136093Y-100142484D01*
X135227408Y-100195205D01*
X135227409Y-100195205D01*
X135227412Y-100195207D01*
X135329273Y-100222500D01*
X135434727Y-100222500D01*
X142995500Y-100222500D01*
X143070000Y-100242462D01*
X143124538Y-100297000D01*
X143144500Y-100371500D01*
X143144500Y-100555539D01*
X143182948Y-100748834D01*
X143182949Y-100748836D01*
X143258367Y-100930912D01*
X143258368Y-100930915D01*
X143264346Y-100939861D01*
X143367861Y-101094782D01*
X143507218Y-101234139D01*
X143616215Y-101306968D01*
X143671084Y-101343631D01*
X143671085Y-101343631D01*
X143671086Y-101343632D01*
X143853165Y-101419051D01*
X144046459Y-101457500D01*
X144046460Y-101457500D01*
X144243540Y-101457500D01*
X144243541Y-101457500D01*
X144436835Y-101419051D01*
X144618914Y-101343632D01*
X144782782Y-101234139D01*
X144922139Y-101094782D01*
X145031632Y-100930914D01*
X145107051Y-100748835D01*
X145145500Y-100555541D01*
X145145500Y-100358459D01*
X145107051Y-100165165D01*
X145031632Y-99983086D01*
X144922139Y-99819218D01*
X144782782Y-99679861D01*
X144727911Y-99643197D01*
X144618915Y-99570368D01*
X144618912Y-99570367D01*
X144436836Y-99494949D01*
X144436834Y-99494948D01*
X144281989Y-99464147D01*
X144243541Y-99456500D01*
X144046459Y-99456500D01*
X143906153Y-99484409D01*
X143853165Y-99494949D01*
X143846160Y-99497074D01*
X143845430Y-99494668D01*
X143781264Y-99503088D01*
X143726279Y-99484409D01*
X143664592Y-99448794D01*
X143562729Y-99421500D01*
X143562727Y-99421500D01*
X135609611Y-99421500D01*
X135590663Y-99416423D01*
X135571047Y-99416423D01*
X135554059Y-99406615D01*
X135535111Y-99401538D01*
X135504252Y-99377859D01*
X135298252Y-99171859D01*
X135259688Y-99105064D01*
X135259688Y-99027936D01*
X135298252Y-98961141D01*
X135365047Y-98922577D01*
X135403611Y-98917500D01*
X135607540Y-98917500D01*
X135607541Y-98917500D01*
X135800835Y-98879051D01*
X135982914Y-98803632D01*
X136146782Y-98694139D01*
X136286139Y-98554782D01*
X136395632Y-98390914D01*
X136471051Y-98208835D01*
X136509500Y-98015541D01*
X136509500Y-97818459D01*
X136471051Y-97625165D01*
X136395632Y-97443086D01*
X136286139Y-97279218D01*
X136146782Y-97139861D01*
X136091911Y-97103197D01*
X135982915Y-97030368D01*
X135982912Y-97030367D01*
X135800836Y-96954949D01*
X135800834Y-96954948D01*
X135645989Y-96924147D01*
X135607541Y-96916500D01*
X135410459Y-96916500D01*
X135378389Y-96922878D01*
X135217165Y-96954948D01*
X135217163Y-96954949D01*
X135035087Y-97030367D01*
X135035084Y-97030368D01*
X134871219Y-97139860D01*
X134871214Y-97139864D01*
X134731864Y-97279214D01*
X134731860Y-97279219D01*
X134622368Y-97443084D01*
X134622367Y-97443087D01*
X134546949Y-97625163D01*
X134546948Y-97625165D01*
X134508500Y-97818460D01*
X134508500Y-98022389D01*
X134488538Y-98096889D01*
X134434000Y-98151427D01*
X134359500Y-98171389D01*
X134285000Y-98151427D01*
X134254141Y-98127748D01*
X133462036Y-97335643D01*
X133423472Y-97268848D01*
X133423472Y-97200381D01*
X133421623Y-97200014D01*
X133433588Y-97139861D01*
X133461500Y-96999541D01*
X133461500Y-96802459D01*
X133423051Y-96609165D01*
X133347632Y-96427086D01*
X133238139Y-96263218D01*
X133098782Y-96123861D01*
X133043911Y-96087197D01*
X132934915Y-96014368D01*
X132934912Y-96014367D01*
X132752836Y-95938949D01*
X132752834Y-95938948D01*
X132597989Y-95908147D01*
X132559541Y-95900500D01*
X132362459Y-95900500D01*
X132330389Y-95906878D01*
X132169165Y-95938948D01*
X132169163Y-95938949D01*
X131987087Y-96014367D01*
X131987084Y-96014368D01*
X131823219Y-96123860D01*
X131823214Y-96123864D01*
X131683864Y-96263214D01*
X131683860Y-96263219D01*
X131574368Y-96427084D01*
X131574367Y-96427087D01*
X131498949Y-96609163D01*
X131498948Y-96609165D01*
X131460500Y-96802460D01*
X123182500Y-96802460D01*
X123182500Y-89055460D01*
X135143500Y-89055460D01*
X135143500Y-89252539D01*
X135181948Y-89445834D01*
X135181949Y-89445836D01*
X135257367Y-89627912D01*
X135257368Y-89627915D01*
X135330197Y-89736911D01*
X135366861Y-89791782D01*
X135506218Y-89931139D01*
X135615215Y-90003968D01*
X135670084Y-90040631D01*
X135670085Y-90040631D01*
X135670086Y-90040632D01*
X135852165Y-90116051D01*
X136045459Y-90154500D01*
X136045460Y-90154500D01*
X136242540Y-90154500D01*
X136242541Y-90154500D01*
X136435835Y-90116051D01*
X136617914Y-90040632D01*
X136781782Y-89931139D01*
X136921139Y-89791782D01*
X137005225Y-89665937D01*
X137034699Y-89621828D01*
X137037029Y-89623385D01*
X137080477Y-89576982D01*
X137154280Y-89554581D01*
X137159180Y-89554500D01*
X147426389Y-89554500D01*
X147500889Y-89574462D01*
X147531748Y-89598141D01*
X150208963Y-92275356D01*
X150247527Y-92342151D01*
X150247527Y-92410619D01*
X150249377Y-92410987D01*
X150209500Y-92611460D01*
X150209500Y-92808539D01*
X150247948Y-93001834D01*
X150247949Y-93001836D01*
X150323367Y-93183912D01*
X150323368Y-93183915D01*
X150373873Y-93259500D01*
X150432861Y-93347782D01*
X150572218Y-93487139D01*
X150681215Y-93559968D01*
X150736084Y-93596631D01*
X150736085Y-93596631D01*
X150736086Y-93596632D01*
X150918165Y-93672051D01*
X151111459Y-93710500D01*
X151111460Y-93710500D01*
X151308540Y-93710500D01*
X151308541Y-93710500D01*
X151501835Y-93672051D01*
X151683914Y-93596632D01*
X151847782Y-93487139D01*
X151987139Y-93347782D01*
X152071225Y-93221937D01*
X152100699Y-93177828D01*
X152103029Y-93179385D01*
X152146477Y-93132982D01*
X152220280Y-93110581D01*
X152225180Y-93110500D01*
X164500500Y-93110500D01*
X164575000Y-93130462D01*
X164629538Y-93185000D01*
X164649500Y-93259500D01*
X164649500Y-94836505D01*
X164629538Y-94911005D01*
X164575000Y-94965543D01*
X164557521Y-94974163D01*
X164499087Y-94998367D01*
X164499080Y-94998370D01*
X164335219Y-95107860D01*
X164335214Y-95107864D01*
X164195864Y-95247214D01*
X164195860Y-95247219D01*
X164086368Y-95411084D01*
X164086367Y-95411087D01*
X164010949Y-95593163D01*
X164010948Y-95593165D01*
X163972500Y-95786460D01*
X163972500Y-95983539D01*
X164010948Y-96176834D01*
X164010949Y-96176836D01*
X164086367Y-96358912D01*
X164086368Y-96358915D01*
X164159197Y-96467911D01*
X164195861Y-96522782D01*
X164335218Y-96662139D01*
X164444215Y-96734968D01*
X164499084Y-96771631D01*
X164499085Y-96771631D01*
X164499086Y-96771632D01*
X164681165Y-96847051D01*
X164874459Y-96885500D01*
X164874460Y-96885500D01*
X165071540Y-96885500D01*
X165071541Y-96885500D01*
X165264835Y-96847051D01*
X165446914Y-96771632D01*
X165610782Y-96662139D01*
X165750139Y-96522782D01*
X165859632Y-96358914D01*
X165935051Y-96176835D01*
X165973500Y-95983541D01*
X165973500Y-95786459D01*
X165935051Y-95593165D01*
X165859632Y-95411086D01*
X165750139Y-95247218D01*
X165610782Y-95107861D01*
X165610778Y-95107858D01*
X165516719Y-95045009D01*
X165465865Y-94987021D01*
X165450500Y-94921121D01*
X165450500Y-90219179D01*
X165470462Y-90144679D01*
X165518874Y-90096266D01*
X165517827Y-90094699D01*
X165523914Y-90090632D01*
X165687782Y-89981139D01*
X165827139Y-89841782D01*
X165936632Y-89677914D01*
X166012051Y-89495835D01*
X166050500Y-89302541D01*
X166050500Y-89105459D01*
X166040554Y-89055460D01*
X174640500Y-89055460D01*
X174640500Y-89252539D01*
X174678948Y-89445834D01*
X174678949Y-89445836D01*
X174754367Y-89627912D01*
X174754368Y-89627915D01*
X174827197Y-89736911D01*
X174863861Y-89791782D01*
X175003218Y-89931139D01*
X175112215Y-90003968D01*
X175167084Y-90040631D01*
X175167085Y-90040631D01*
X175167086Y-90040632D01*
X175349165Y-90116051D01*
X175542459Y-90154500D01*
X175542460Y-90154500D01*
X175739540Y-90154500D01*
X175739541Y-90154500D01*
X175932835Y-90116051D01*
X176114914Y-90040632D01*
X176278782Y-89931139D01*
X176418139Y-89791782D01*
X176527632Y-89627914D01*
X176603051Y-89445835D01*
X176641500Y-89252541D01*
X176641500Y-89055459D01*
X176603051Y-88862165D01*
X176527632Y-88680086D01*
X176418139Y-88516218D01*
X176278782Y-88376861D01*
X176189743Y-88317367D01*
X176108828Y-88263301D01*
X176110375Y-88260984D01*
X176063927Y-88217433D01*
X176041577Y-88143615D01*
X176041500Y-88138819D01*
X176041500Y-86206611D01*
X176061462Y-86132111D01*
X176085141Y-86101252D01*
X176652252Y-85534141D01*
X176719047Y-85495577D01*
X176757611Y-85490500D01*
X179090500Y-85490500D01*
X179165000Y-85510462D01*
X179219538Y-85565000D01*
X179239500Y-85639500D01*
X179239500Y-85964677D01*
X179254033Y-86037739D01*
X179296471Y-86101252D01*
X179309399Y-86120601D01*
X179392260Y-86175966D01*
X179465326Y-86190500D01*
X179465330Y-86190500D01*
X181214670Y-86190500D01*
X181214674Y-86190500D01*
X181287740Y-86175966D01*
X181370601Y-86120601D01*
X181425966Y-86037740D01*
X181440500Y-85964674D01*
X181440500Y-84215326D01*
X181435895Y-84192177D01*
X192198000Y-84192177D01*
X192198000Y-84840000D01*
X193114988Y-84840000D01*
X193082075Y-84897007D01*
X193048000Y-85024174D01*
X193048000Y-85155826D01*
X193082075Y-85282993D01*
X193114988Y-85340000D01*
X192198000Y-85340000D01*
X192198000Y-85987822D01*
X192198001Y-85987842D01*
X192204401Y-86047377D01*
X192254645Y-86182084D01*
X192254650Y-86182094D01*
X192340809Y-86297187D01*
X192340812Y-86297190D01*
X192455905Y-86383349D01*
X192455915Y-86383354D01*
X192590623Y-86433598D01*
X192590621Y-86433598D01*
X192650157Y-86439998D01*
X192650177Y-86440000D01*
X193298000Y-86440000D01*
X193298000Y-85523012D01*
X193355007Y-85555925D01*
X193482174Y-85590000D01*
X193613826Y-85590000D01*
X193740993Y-85555925D01*
X193798000Y-85523012D01*
X193798000Y-86440000D01*
X194445823Y-86440000D01*
X194445842Y-86439998D01*
X194505377Y-86433598D01*
X194640084Y-86383354D01*
X194640094Y-86383349D01*
X194755187Y-86297190D01*
X194755190Y-86297187D01*
X194841349Y-86182094D01*
X194841354Y-86182084D01*
X194891598Y-86047377D01*
X194897998Y-85987842D01*
X194898000Y-85987822D01*
X194898000Y-85340000D01*
X193981012Y-85340000D01*
X194013925Y-85282993D01*
X194048000Y-85155826D01*
X194048000Y-85024174D01*
X194013925Y-84897007D01*
X193981012Y-84840000D01*
X194898000Y-84840000D01*
X194898000Y-84192177D01*
X194897998Y-84192157D01*
X194891598Y-84132622D01*
X194841354Y-83997915D01*
X194841349Y-83997905D01*
X194755190Y-83882812D01*
X194755187Y-83882809D01*
X194640094Y-83796650D01*
X194640084Y-83796645D01*
X194505376Y-83746401D01*
X194505378Y-83746401D01*
X194445842Y-83740001D01*
X194445823Y-83740000D01*
X193798000Y-83740000D01*
X193798000Y-84656988D01*
X193740993Y-84624075D01*
X193613826Y-84590000D01*
X193482174Y-84590000D01*
X193355007Y-84624075D01*
X193298000Y-84656988D01*
X193298000Y-83740000D01*
X192650177Y-83740000D01*
X192650157Y-83740001D01*
X192590622Y-83746401D01*
X192455915Y-83796645D01*
X192455905Y-83796650D01*
X192340812Y-83882809D01*
X192340809Y-83882812D01*
X192254650Y-83997905D01*
X192254645Y-83997915D01*
X192204401Y-84132622D01*
X192198001Y-84192157D01*
X192198000Y-84192177D01*
X181435895Y-84192177D01*
X181425966Y-84142260D01*
X181370601Y-84059399D01*
X181287740Y-84004034D01*
X181287739Y-84004033D01*
X181214677Y-83989500D01*
X181214674Y-83989500D01*
X179465326Y-83989500D01*
X179465322Y-83989500D01*
X179392260Y-84004033D01*
X179309399Y-84059398D01*
X179309398Y-84059399D01*
X179254033Y-84142260D01*
X179239500Y-84215322D01*
X179239500Y-84540500D01*
X179219538Y-84615000D01*
X179165000Y-84669538D01*
X179090500Y-84689500D01*
X176477270Y-84689500D01*
X176375408Y-84716794D01*
X176284093Y-84769515D01*
X176284089Y-84769518D01*
X175320518Y-85733089D01*
X175320515Y-85733093D01*
X175267794Y-85824408D01*
X175240500Y-85926270D01*
X175240500Y-88138819D01*
X175220538Y-88213319D01*
X175172124Y-88261732D01*
X175173172Y-88263301D01*
X175003219Y-88376860D01*
X175003214Y-88376864D01*
X174863864Y-88516214D01*
X174863860Y-88516219D01*
X174754368Y-88680084D01*
X174754367Y-88680087D01*
X174678949Y-88862163D01*
X174678948Y-88862165D01*
X174640500Y-89055460D01*
X166040554Y-89055460D01*
X166012051Y-88912165D01*
X165936632Y-88730086D01*
X165827139Y-88566218D01*
X165687782Y-88426861D01*
X165612950Y-88376860D01*
X165523915Y-88317368D01*
X165523912Y-88317367D01*
X165341836Y-88241949D01*
X165341834Y-88241948D01*
X165186989Y-88211147D01*
X165148541Y-88203500D01*
X164951459Y-88203500D01*
X164919389Y-88209878D01*
X164758165Y-88241948D01*
X164758163Y-88241949D01*
X164576087Y-88317367D01*
X164576084Y-88317368D01*
X164412219Y-88426860D01*
X164412214Y-88426864D01*
X164272864Y-88566214D01*
X164272860Y-88566219D01*
X164163368Y-88730084D01*
X164163367Y-88730087D01*
X164087949Y-88912163D01*
X164087948Y-88912165D01*
X164049500Y-89105460D01*
X164049500Y-89302539D01*
X164087948Y-89495834D01*
X164087949Y-89495836D01*
X164163367Y-89677912D01*
X164163368Y-89677915D01*
X164236197Y-89786911D01*
X164272861Y-89841782D01*
X164412218Y-89981139D01*
X164501256Y-90040632D01*
X164582173Y-90094699D01*
X164580611Y-90097036D01*
X164626992Y-90140434D01*
X164649418Y-90214230D01*
X164649500Y-90219179D01*
X164649500Y-92160500D01*
X164629538Y-92235000D01*
X164575000Y-92289538D01*
X164500500Y-92309500D01*
X152225180Y-92309500D01*
X152150680Y-92289538D01*
X152102266Y-92241124D01*
X152100699Y-92242172D01*
X152046127Y-92160500D01*
X151987139Y-92072218D01*
X151847782Y-91932861D01*
X151792911Y-91896197D01*
X151683915Y-91823368D01*
X151683912Y-91823367D01*
X151501836Y-91747949D01*
X151501834Y-91747948D01*
X151346989Y-91717147D01*
X151308541Y-91709500D01*
X151111459Y-91709500D01*
X150918165Y-91747949D01*
X150918164Y-91747949D01*
X150910987Y-91749377D01*
X150910444Y-91746648D01*
X150846778Y-91748688D01*
X150778783Y-91712282D01*
X150775356Y-91708963D01*
X147899913Y-88833520D01*
X147899910Y-88833518D01*
X147899906Y-88833515D01*
X147808591Y-88780794D01*
X147808588Y-88780793D01*
X147781295Y-88773480D01*
X147706729Y-88753500D01*
X147706727Y-88753500D01*
X137159180Y-88753500D01*
X137084680Y-88733538D01*
X137036266Y-88685124D01*
X137034699Y-88686172D01*
X136987898Y-88616130D01*
X136921139Y-88516218D01*
X136781782Y-88376861D01*
X136726911Y-88340197D01*
X136617915Y-88267368D01*
X136617912Y-88267367D01*
X136435836Y-88191949D01*
X136435834Y-88191948D01*
X136280989Y-88161147D01*
X136242541Y-88153500D01*
X136045459Y-88153500D01*
X136013389Y-88159878D01*
X135852165Y-88191948D01*
X135852163Y-88191949D01*
X135670087Y-88267367D01*
X135670084Y-88267368D01*
X135506219Y-88376860D01*
X135506214Y-88376864D01*
X135366864Y-88516214D01*
X135366860Y-88516219D01*
X135257368Y-88680084D01*
X135257367Y-88680087D01*
X135181949Y-88862163D01*
X135181948Y-88862165D01*
X135143500Y-89055460D01*
X123182500Y-89055460D01*
X123182500Y-81929500D01*
X123202462Y-81855000D01*
X123257000Y-81800462D01*
X123331500Y-81780500D01*
X196684500Y-81780500D01*
X196759000Y-81800462D01*
G37*
%TD.AperFunction*%
%TD*%
M02*
