M48
; DRILL file {KiCad 9.0.5} date 2026-03-18T16:26:29+0100
; FORMAT={-:-/ absolute / metric / decimal}
; #@! TF.CreationDate,2026-03-18T16:26:29+01:00
; #@! TF.GenerationSoftware,Kicad,Pcbnew,9.0.5
; #@! TF.FileFunction,Plated,1,2,PTH
FMAT,2
METRIC
; #@! TA.AperFunction,Plated,PTH,ComponentDrill
T1C0.800
; #@! TA.AperFunction,Plated,PTH,ViaDrill
T2C1.000
; #@! TA.AperFunction,Plated,PTH,ComponentDrill
T3C1.000
%
G90
G05
T1
X135.509Y-97.917
X135.509Y-101.717
T2
X127.381Y-106.045
X132.461Y-96.901
X136.144Y-89.154
X138.049Y-104.013
X144.145Y-97.79
X144.145Y-100.457
X145.478Y-104.203
X147.32Y-92.71
X147.32Y-105.961
X151.21Y-92.71
X164.973Y-95.885
X165.05Y-89.204
X170.561Y-107.061
X173.101Y-106.934
X175.641Y-89.154
T3
X127.381Y-109.601
X127.381Y-112.141
X129.921Y-109.601
X129.921Y-112.141
X132.461Y-109.601
X132.461Y-112.141
X135.001Y-109.601
X135.001Y-112.141
X137.541Y-109.601
X137.541Y-112.141
X140.081Y-109.601
X140.081Y-112.141
X142.621Y-109.601
X142.621Y-112.141
X145.161Y-109.601
X145.161Y-112.141
X147.701Y-109.601
X147.701Y-112.141
X150.241Y-109.601
X150.241Y-112.141
X152.781Y-109.601
X152.781Y-112.141
X155.321Y-109.601
X155.321Y-112.141
X157.861Y-109.601
X157.861Y-112.141
X160.401Y-109.601
X160.401Y-112.141
X162.941Y-109.601
X162.941Y-112.141
X165.481Y-109.601
X165.481Y-112.141
X168.021Y-109.601
X168.021Y-112.141
X170.561Y-109.601
X170.561Y-112.141
X173.101Y-109.601
X173.101Y-112.141
X175.641Y-109.601
X175.641Y-112.141
X180.34Y-85.09
X180.34Y-103.886
X185.928Y-110.744
X188.468Y-110.744
X193.294Y-103.886
X193.548Y-85.09
M30
